G04 #@! TF.GenerationSoftware,KiCad,Pcbnew,7.0.2*
G04 #@! TF.CreationDate,2023-06-01T00:45:36-07:00*
G04 #@! TF.ProjectId,Reflow Skillet Rev 1,5265666c-6f77-4205-936b-696c6c657420,rev?*
G04 #@! TF.SameCoordinates,Original*
G04 #@! TF.FileFunction,Legend,Top*
G04 #@! TF.FilePolarity,Positive*
%FSLAX46Y46*%
G04 Gerber Fmt 4.6, Leading zero omitted, Abs format (unit mm)*
G04 Created by KiCad (PCBNEW 7.0.2) date 2023-06-01 00:45:36*
%MOMM*%
%LPD*%
G01*
G04 APERTURE LIST*
G04 Aperture macros list*
%AMRoundRect*
0 Rectangle with rounded corners*
0 $1 Rounding radius*
0 $2 $3 $4 $5 $6 $7 $8 $9 X,Y pos of 4 corners*
0 Add a 4 corners polygon primitive as box body*
4,1,4,$2,$3,$4,$5,$6,$7,$8,$9,$2,$3,0*
0 Add four circle primitives for the rounded corners*
1,1,$1+$1,$2,$3*
1,1,$1+$1,$4,$5*
1,1,$1+$1,$6,$7*
1,1,$1+$1,$8,$9*
0 Add four rect primitives between the rounded corners*
20,1,$1+$1,$2,$3,$4,$5,0*
20,1,$1+$1,$4,$5,$6,$7,0*
20,1,$1+$1,$6,$7,$8,$9,0*
20,1,$1+$1,$8,$9,$2,$3,0*%
G04 Aperture macros list end*
%ADD10C,0.153000*%
%ADD11C,0.150000*%
%ADD12C,0.127000*%
%ADD13C,0.120000*%
%ADD14C,0.050000*%
%ADD15C,0.010000*%
%ADD16C,1.879600*%
%ADD17RoundRect,0.237500X0.250000X0.237500X-0.250000X0.237500X-0.250000X-0.237500X0.250000X-0.237500X0*%
%ADD18R,1.700000X1.700000*%
%ADD19C,1.700000*%
%ADD20C,1.930400*%
%ADD21C,2.500000*%
%ADD22R,2.100000X2.100000*%
%ADD23C,2.100000*%
%ADD24RoundRect,0.237500X-0.250000X-0.237500X0.250000X-0.237500X0.250000X0.237500X-0.250000X0.237500X0*%
G04 APERTURE END LIST*
D10*
X142000000Y-73227619D02*
X142000000Y-72227619D01*
X142000000Y-72227619D02*
X142380952Y-72227619D01*
X142380952Y-72227619D02*
X142476190Y-72275238D01*
X142476190Y-72275238D02*
X142523809Y-72322857D01*
X142523809Y-72322857D02*
X142571428Y-72418095D01*
X142571428Y-72418095D02*
X142571428Y-72560952D01*
X142571428Y-72560952D02*
X142523809Y-72656190D01*
X142523809Y-72656190D02*
X142476190Y-72703809D01*
X142476190Y-72703809D02*
X142380952Y-72751428D01*
X142380952Y-72751428D02*
X142000000Y-72751428D01*
X143428571Y-73227619D02*
X143428571Y-72703809D01*
X143428571Y-72703809D02*
X143380952Y-72608571D01*
X143380952Y-72608571D02*
X143285714Y-72560952D01*
X143285714Y-72560952D02*
X143095238Y-72560952D01*
X143095238Y-72560952D02*
X143000000Y-72608571D01*
X143428571Y-73180000D02*
X143333333Y-73227619D01*
X143333333Y-73227619D02*
X143095238Y-73227619D01*
X143095238Y-73227619D02*
X143000000Y-73180000D01*
X143000000Y-73180000D02*
X142952381Y-73084761D01*
X142952381Y-73084761D02*
X142952381Y-72989523D01*
X142952381Y-72989523D02*
X143000000Y-72894285D01*
X143000000Y-72894285D02*
X143095238Y-72846666D01*
X143095238Y-72846666D02*
X143333333Y-72846666D01*
X143333333Y-72846666D02*
X143428571Y-72799047D01*
X144333333Y-72560952D02*
X144333333Y-73227619D01*
X143904762Y-72560952D02*
X143904762Y-73084761D01*
X143904762Y-73084761D02*
X143952381Y-73180000D01*
X143952381Y-73180000D02*
X144047619Y-73227619D01*
X144047619Y-73227619D02*
X144190476Y-73227619D01*
X144190476Y-73227619D02*
X144285714Y-73180000D01*
X144285714Y-73180000D02*
X144333333Y-73132380D01*
X144761905Y-73180000D02*
X144857143Y-73227619D01*
X144857143Y-73227619D02*
X145047619Y-73227619D01*
X145047619Y-73227619D02*
X145142857Y-73180000D01*
X145142857Y-73180000D02*
X145190476Y-73084761D01*
X145190476Y-73084761D02*
X145190476Y-73037142D01*
X145190476Y-73037142D02*
X145142857Y-72941904D01*
X145142857Y-72941904D02*
X145047619Y-72894285D01*
X145047619Y-72894285D02*
X144904762Y-72894285D01*
X144904762Y-72894285D02*
X144809524Y-72846666D01*
X144809524Y-72846666D02*
X144761905Y-72751428D01*
X144761905Y-72751428D02*
X144761905Y-72703809D01*
X144761905Y-72703809D02*
X144809524Y-72608571D01*
X144809524Y-72608571D02*
X144904762Y-72560952D01*
X144904762Y-72560952D02*
X145047619Y-72560952D01*
X145047619Y-72560952D02*
X145142857Y-72608571D01*
X146000000Y-73180000D02*
X145904762Y-73227619D01*
X145904762Y-73227619D02*
X145714286Y-73227619D01*
X145714286Y-73227619D02*
X145619048Y-73180000D01*
X145619048Y-73180000D02*
X145571429Y-73084761D01*
X145571429Y-73084761D02*
X145571429Y-72703809D01*
X145571429Y-72703809D02*
X145619048Y-72608571D01*
X145619048Y-72608571D02*
X145714286Y-72560952D01*
X145714286Y-72560952D02*
X145904762Y-72560952D01*
X145904762Y-72560952D02*
X146000000Y-72608571D01*
X146000000Y-72608571D02*
X146047619Y-72703809D01*
X146047619Y-72703809D02*
X146047619Y-72799047D01*
X146047619Y-72799047D02*
X145571429Y-72894285D01*
X163782380Y-39909523D02*
X164258571Y-39576190D01*
X163782380Y-39338095D02*
X164782380Y-39338095D01*
X164782380Y-39338095D02*
X164782380Y-39719047D01*
X164782380Y-39719047D02*
X164734761Y-39814285D01*
X164734761Y-39814285D02*
X164687142Y-39861904D01*
X164687142Y-39861904D02*
X164591904Y-39909523D01*
X164591904Y-39909523D02*
X164449047Y-39909523D01*
X164449047Y-39909523D02*
X164353809Y-39861904D01*
X164353809Y-39861904D02*
X164306190Y-39814285D01*
X164306190Y-39814285D02*
X164258571Y-39719047D01*
X164258571Y-39719047D02*
X164258571Y-39338095D01*
X163830000Y-40719047D02*
X163782380Y-40623809D01*
X163782380Y-40623809D02*
X163782380Y-40433333D01*
X163782380Y-40433333D02*
X163830000Y-40338095D01*
X163830000Y-40338095D02*
X163925238Y-40290476D01*
X163925238Y-40290476D02*
X164306190Y-40290476D01*
X164306190Y-40290476D02*
X164401428Y-40338095D01*
X164401428Y-40338095D02*
X164449047Y-40433333D01*
X164449047Y-40433333D02*
X164449047Y-40623809D01*
X164449047Y-40623809D02*
X164401428Y-40719047D01*
X164401428Y-40719047D02*
X164306190Y-40766666D01*
X164306190Y-40766666D02*
X164210952Y-40766666D01*
X164210952Y-40766666D02*
X164115714Y-40290476D01*
X164449047Y-41052381D02*
X164449047Y-41433333D01*
X163782380Y-41195238D02*
X164639523Y-41195238D01*
X164639523Y-41195238D02*
X164734761Y-41242857D01*
X164734761Y-41242857D02*
X164782380Y-41338095D01*
X164782380Y-41338095D02*
X164782380Y-41433333D01*
X163782380Y-41909524D02*
X163830000Y-41814286D01*
X163830000Y-41814286D02*
X163925238Y-41766667D01*
X163925238Y-41766667D02*
X164782380Y-41766667D01*
X163782380Y-42433334D02*
X163830000Y-42338096D01*
X163830000Y-42338096D02*
X163877619Y-42290477D01*
X163877619Y-42290477D02*
X163972857Y-42242858D01*
X163972857Y-42242858D02*
X164258571Y-42242858D01*
X164258571Y-42242858D02*
X164353809Y-42290477D01*
X164353809Y-42290477D02*
X164401428Y-42338096D01*
X164401428Y-42338096D02*
X164449047Y-42433334D01*
X164449047Y-42433334D02*
X164449047Y-42576191D01*
X164449047Y-42576191D02*
X164401428Y-42671429D01*
X164401428Y-42671429D02*
X164353809Y-42719048D01*
X164353809Y-42719048D02*
X164258571Y-42766667D01*
X164258571Y-42766667D02*
X163972857Y-42766667D01*
X163972857Y-42766667D02*
X163877619Y-42719048D01*
X163877619Y-42719048D02*
X163830000Y-42671429D01*
X163830000Y-42671429D02*
X163782380Y-42576191D01*
X163782380Y-42576191D02*
X163782380Y-42433334D01*
X164449047Y-43100001D02*
X163782380Y-43290477D01*
X163782380Y-43290477D02*
X164258571Y-43480953D01*
X164258571Y-43480953D02*
X163782380Y-43671429D01*
X163782380Y-43671429D02*
X164449047Y-43861905D01*
X163830000Y-44957144D02*
X163782380Y-45100001D01*
X163782380Y-45100001D02*
X163782380Y-45338096D01*
X163782380Y-45338096D02*
X163830000Y-45433334D01*
X163830000Y-45433334D02*
X163877619Y-45480953D01*
X163877619Y-45480953D02*
X163972857Y-45528572D01*
X163972857Y-45528572D02*
X164068095Y-45528572D01*
X164068095Y-45528572D02*
X164163333Y-45480953D01*
X164163333Y-45480953D02*
X164210952Y-45433334D01*
X164210952Y-45433334D02*
X164258571Y-45338096D01*
X164258571Y-45338096D02*
X164306190Y-45147620D01*
X164306190Y-45147620D02*
X164353809Y-45052382D01*
X164353809Y-45052382D02*
X164401428Y-45004763D01*
X164401428Y-45004763D02*
X164496666Y-44957144D01*
X164496666Y-44957144D02*
X164591904Y-44957144D01*
X164591904Y-44957144D02*
X164687142Y-45004763D01*
X164687142Y-45004763D02*
X164734761Y-45052382D01*
X164734761Y-45052382D02*
X164782380Y-45147620D01*
X164782380Y-45147620D02*
X164782380Y-45385715D01*
X164782380Y-45385715D02*
X164734761Y-45528572D01*
X163782380Y-45957144D02*
X164782380Y-45957144D01*
X164163333Y-46052382D02*
X163782380Y-46338096D01*
X164449047Y-46338096D02*
X164068095Y-45957144D01*
X163782380Y-46766668D02*
X164449047Y-46766668D01*
X164782380Y-46766668D02*
X164734761Y-46719049D01*
X164734761Y-46719049D02*
X164687142Y-46766668D01*
X164687142Y-46766668D02*
X164734761Y-46814287D01*
X164734761Y-46814287D02*
X164782380Y-46766668D01*
X164782380Y-46766668D02*
X164687142Y-46766668D01*
X163782380Y-47385715D02*
X163830000Y-47290477D01*
X163830000Y-47290477D02*
X163925238Y-47242858D01*
X163925238Y-47242858D02*
X164782380Y-47242858D01*
X163782380Y-47909525D02*
X163830000Y-47814287D01*
X163830000Y-47814287D02*
X163925238Y-47766668D01*
X163925238Y-47766668D02*
X164782380Y-47766668D01*
X163830000Y-48671430D02*
X163782380Y-48576192D01*
X163782380Y-48576192D02*
X163782380Y-48385716D01*
X163782380Y-48385716D02*
X163830000Y-48290478D01*
X163830000Y-48290478D02*
X163925238Y-48242859D01*
X163925238Y-48242859D02*
X164306190Y-48242859D01*
X164306190Y-48242859D02*
X164401428Y-48290478D01*
X164401428Y-48290478D02*
X164449047Y-48385716D01*
X164449047Y-48385716D02*
X164449047Y-48576192D01*
X164449047Y-48576192D02*
X164401428Y-48671430D01*
X164401428Y-48671430D02*
X164306190Y-48719049D01*
X164306190Y-48719049D02*
X164210952Y-48719049D01*
X164210952Y-48719049D02*
X164115714Y-48242859D01*
X164449047Y-49004764D02*
X164449047Y-49385716D01*
X164782380Y-49147621D02*
X163925238Y-49147621D01*
X163925238Y-49147621D02*
X163830000Y-49195240D01*
X163830000Y-49195240D02*
X163782380Y-49290478D01*
X163782380Y-49290478D02*
X163782380Y-49385716D01*
X163782380Y-51052383D02*
X164258571Y-50719050D01*
X163782380Y-50480955D02*
X164782380Y-50480955D01*
X164782380Y-50480955D02*
X164782380Y-50861907D01*
X164782380Y-50861907D02*
X164734761Y-50957145D01*
X164734761Y-50957145D02*
X164687142Y-51004764D01*
X164687142Y-51004764D02*
X164591904Y-51052383D01*
X164591904Y-51052383D02*
X164449047Y-51052383D01*
X164449047Y-51052383D02*
X164353809Y-51004764D01*
X164353809Y-51004764D02*
X164306190Y-50957145D01*
X164306190Y-50957145D02*
X164258571Y-50861907D01*
X164258571Y-50861907D02*
X164258571Y-50480955D01*
X163830000Y-51861907D02*
X163782380Y-51766669D01*
X163782380Y-51766669D02*
X163782380Y-51576193D01*
X163782380Y-51576193D02*
X163830000Y-51480955D01*
X163830000Y-51480955D02*
X163925238Y-51433336D01*
X163925238Y-51433336D02*
X164306190Y-51433336D01*
X164306190Y-51433336D02*
X164401428Y-51480955D01*
X164401428Y-51480955D02*
X164449047Y-51576193D01*
X164449047Y-51576193D02*
X164449047Y-51766669D01*
X164449047Y-51766669D02*
X164401428Y-51861907D01*
X164401428Y-51861907D02*
X164306190Y-51909526D01*
X164306190Y-51909526D02*
X164210952Y-51909526D01*
X164210952Y-51909526D02*
X164115714Y-51433336D01*
X164449047Y-52242860D02*
X163782380Y-52480955D01*
X163782380Y-52480955D02*
X164449047Y-52719050D01*
X163782380Y-54385717D02*
X163782380Y-53814289D01*
X163782380Y-54100003D02*
X164782380Y-54100003D01*
X164782380Y-54100003D02*
X164639523Y-54004765D01*
X164639523Y-54004765D02*
X164544285Y-53909527D01*
X164544285Y-53909527D02*
X164496666Y-53814289D01*
X162162380Y-39338095D02*
X163162380Y-39338095D01*
X163162380Y-39338095D02*
X163162380Y-39719047D01*
X163162380Y-39719047D02*
X163114761Y-39814285D01*
X163114761Y-39814285D02*
X163067142Y-39861904D01*
X163067142Y-39861904D02*
X162971904Y-39909523D01*
X162971904Y-39909523D02*
X162829047Y-39909523D01*
X162829047Y-39909523D02*
X162733809Y-39861904D01*
X162733809Y-39861904D02*
X162686190Y-39814285D01*
X162686190Y-39814285D02*
X162638571Y-39719047D01*
X162638571Y-39719047D02*
X162638571Y-39338095D01*
X162162380Y-40766666D02*
X162686190Y-40766666D01*
X162686190Y-40766666D02*
X162781428Y-40719047D01*
X162781428Y-40719047D02*
X162829047Y-40623809D01*
X162829047Y-40623809D02*
X162829047Y-40433333D01*
X162829047Y-40433333D02*
X162781428Y-40338095D01*
X162210000Y-40766666D02*
X162162380Y-40671428D01*
X162162380Y-40671428D02*
X162162380Y-40433333D01*
X162162380Y-40433333D02*
X162210000Y-40338095D01*
X162210000Y-40338095D02*
X162305238Y-40290476D01*
X162305238Y-40290476D02*
X162400476Y-40290476D01*
X162400476Y-40290476D02*
X162495714Y-40338095D01*
X162495714Y-40338095D02*
X162543333Y-40433333D01*
X162543333Y-40433333D02*
X162543333Y-40671428D01*
X162543333Y-40671428D02*
X162590952Y-40766666D01*
X162829047Y-41671428D02*
X162162380Y-41671428D01*
X162829047Y-41242857D02*
X162305238Y-41242857D01*
X162305238Y-41242857D02*
X162210000Y-41290476D01*
X162210000Y-41290476D02*
X162162380Y-41385714D01*
X162162380Y-41385714D02*
X162162380Y-41528571D01*
X162162380Y-41528571D02*
X162210000Y-41623809D01*
X162210000Y-41623809D02*
X162257619Y-41671428D01*
X162162380Y-42290476D02*
X162210000Y-42195238D01*
X162210000Y-42195238D02*
X162305238Y-42147619D01*
X162305238Y-42147619D02*
X163162380Y-42147619D01*
X162686190Y-43766667D02*
X162638571Y-43909524D01*
X162638571Y-43909524D02*
X162590952Y-43957143D01*
X162590952Y-43957143D02*
X162495714Y-44004762D01*
X162495714Y-44004762D02*
X162352857Y-44004762D01*
X162352857Y-44004762D02*
X162257619Y-43957143D01*
X162257619Y-43957143D02*
X162210000Y-43909524D01*
X162210000Y-43909524D02*
X162162380Y-43814286D01*
X162162380Y-43814286D02*
X162162380Y-43433334D01*
X162162380Y-43433334D02*
X163162380Y-43433334D01*
X163162380Y-43433334D02*
X163162380Y-43766667D01*
X163162380Y-43766667D02*
X163114761Y-43861905D01*
X163114761Y-43861905D02*
X163067142Y-43909524D01*
X163067142Y-43909524D02*
X162971904Y-43957143D01*
X162971904Y-43957143D02*
X162876666Y-43957143D01*
X162876666Y-43957143D02*
X162781428Y-43909524D01*
X162781428Y-43909524D02*
X162733809Y-43861905D01*
X162733809Y-43861905D02*
X162686190Y-43766667D01*
X162686190Y-43766667D02*
X162686190Y-43433334D01*
X162162380Y-44576191D02*
X162210000Y-44480953D01*
X162210000Y-44480953D02*
X162305238Y-44433334D01*
X162305238Y-44433334D02*
X163162380Y-44433334D01*
X162162380Y-45385715D02*
X162686190Y-45385715D01*
X162686190Y-45385715D02*
X162781428Y-45338096D01*
X162781428Y-45338096D02*
X162829047Y-45242858D01*
X162829047Y-45242858D02*
X162829047Y-45052382D01*
X162829047Y-45052382D02*
X162781428Y-44957144D01*
X162210000Y-45385715D02*
X162162380Y-45290477D01*
X162162380Y-45290477D02*
X162162380Y-45052382D01*
X162162380Y-45052382D02*
X162210000Y-44957144D01*
X162210000Y-44957144D02*
X162305238Y-44909525D01*
X162305238Y-44909525D02*
X162400476Y-44909525D01*
X162400476Y-44909525D02*
X162495714Y-44957144D01*
X162495714Y-44957144D02*
X162543333Y-45052382D01*
X162543333Y-45052382D02*
X162543333Y-45290477D01*
X162543333Y-45290477D02*
X162590952Y-45385715D01*
X162210000Y-46290477D02*
X162162380Y-46195239D01*
X162162380Y-46195239D02*
X162162380Y-46004763D01*
X162162380Y-46004763D02*
X162210000Y-45909525D01*
X162210000Y-45909525D02*
X162257619Y-45861906D01*
X162257619Y-45861906D02*
X162352857Y-45814287D01*
X162352857Y-45814287D02*
X162638571Y-45814287D01*
X162638571Y-45814287D02*
X162733809Y-45861906D01*
X162733809Y-45861906D02*
X162781428Y-45909525D01*
X162781428Y-45909525D02*
X162829047Y-46004763D01*
X162829047Y-46004763D02*
X162829047Y-46195239D01*
X162829047Y-46195239D02*
X162781428Y-46290477D01*
X162162380Y-46719049D02*
X163162380Y-46719049D01*
X162543333Y-46814287D02*
X162162380Y-47100001D01*
X162829047Y-47100001D02*
X162448095Y-46719049D01*
X162162380Y-47528573D02*
X163162380Y-47528573D01*
X162781428Y-47528573D02*
X162829047Y-47623811D01*
X162829047Y-47623811D02*
X162829047Y-47814287D01*
X162829047Y-47814287D02*
X162781428Y-47909525D01*
X162781428Y-47909525D02*
X162733809Y-47957144D01*
X162733809Y-47957144D02*
X162638571Y-48004763D01*
X162638571Y-48004763D02*
X162352857Y-48004763D01*
X162352857Y-48004763D02*
X162257619Y-47957144D01*
X162257619Y-47957144D02*
X162210000Y-47909525D01*
X162210000Y-47909525D02*
X162162380Y-47814287D01*
X162162380Y-47814287D02*
X162162380Y-47623811D01*
X162162380Y-47623811D02*
X162210000Y-47528573D01*
X162829047Y-48861906D02*
X162162380Y-48861906D01*
X162829047Y-48433335D02*
X162305238Y-48433335D01*
X162305238Y-48433335D02*
X162210000Y-48480954D01*
X162210000Y-48480954D02*
X162162380Y-48576192D01*
X162162380Y-48576192D02*
X162162380Y-48719049D01*
X162162380Y-48719049D02*
X162210000Y-48814287D01*
X162210000Y-48814287D02*
X162257619Y-48861906D01*
X162162380Y-49338097D02*
X162829047Y-49338097D01*
X162638571Y-49338097D02*
X162733809Y-49385716D01*
X162733809Y-49385716D02*
X162781428Y-49433335D01*
X162781428Y-49433335D02*
X162829047Y-49528573D01*
X162829047Y-49528573D02*
X162829047Y-49623811D01*
X162829047Y-49957145D02*
X162162380Y-49957145D01*
X162733809Y-49957145D02*
X162781428Y-50004764D01*
X162781428Y-50004764D02*
X162829047Y-50100002D01*
X162829047Y-50100002D02*
X162829047Y-50242859D01*
X162829047Y-50242859D02*
X162781428Y-50338097D01*
X162781428Y-50338097D02*
X162686190Y-50385716D01*
X162686190Y-50385716D02*
X162162380Y-50385716D01*
X161447142Y-39290476D02*
X161494761Y-39338095D01*
X161494761Y-39338095D02*
X161542380Y-39433333D01*
X161542380Y-39433333D02*
X161542380Y-39671428D01*
X161542380Y-39671428D02*
X161494761Y-39766666D01*
X161494761Y-39766666D02*
X161447142Y-39814285D01*
X161447142Y-39814285D02*
X161351904Y-39861904D01*
X161351904Y-39861904D02*
X161256666Y-39861904D01*
X161256666Y-39861904D02*
X161113809Y-39814285D01*
X161113809Y-39814285D02*
X160542380Y-39242857D01*
X160542380Y-39242857D02*
X160542380Y-39861904D01*
X161542380Y-40480952D02*
X161542380Y-40576190D01*
X161542380Y-40576190D02*
X161494761Y-40671428D01*
X161494761Y-40671428D02*
X161447142Y-40719047D01*
X161447142Y-40719047D02*
X161351904Y-40766666D01*
X161351904Y-40766666D02*
X161161428Y-40814285D01*
X161161428Y-40814285D02*
X160923333Y-40814285D01*
X160923333Y-40814285D02*
X160732857Y-40766666D01*
X160732857Y-40766666D02*
X160637619Y-40719047D01*
X160637619Y-40719047D02*
X160590000Y-40671428D01*
X160590000Y-40671428D02*
X160542380Y-40576190D01*
X160542380Y-40576190D02*
X160542380Y-40480952D01*
X160542380Y-40480952D02*
X160590000Y-40385714D01*
X160590000Y-40385714D02*
X160637619Y-40338095D01*
X160637619Y-40338095D02*
X160732857Y-40290476D01*
X160732857Y-40290476D02*
X160923333Y-40242857D01*
X160923333Y-40242857D02*
X161161428Y-40242857D01*
X161161428Y-40242857D02*
X161351904Y-40290476D01*
X161351904Y-40290476D02*
X161447142Y-40338095D01*
X161447142Y-40338095D02*
X161494761Y-40385714D01*
X161494761Y-40385714D02*
X161542380Y-40480952D01*
X161447142Y-41195238D02*
X161494761Y-41242857D01*
X161494761Y-41242857D02*
X161542380Y-41338095D01*
X161542380Y-41338095D02*
X161542380Y-41576190D01*
X161542380Y-41576190D02*
X161494761Y-41671428D01*
X161494761Y-41671428D02*
X161447142Y-41719047D01*
X161447142Y-41719047D02*
X161351904Y-41766666D01*
X161351904Y-41766666D02*
X161256666Y-41766666D01*
X161256666Y-41766666D02*
X161113809Y-41719047D01*
X161113809Y-41719047D02*
X160542380Y-41147619D01*
X160542380Y-41147619D02*
X160542380Y-41766666D01*
X161542380Y-42100000D02*
X161542380Y-42719047D01*
X161542380Y-42719047D02*
X161161428Y-42385714D01*
X161161428Y-42385714D02*
X161161428Y-42528571D01*
X161161428Y-42528571D02*
X161113809Y-42623809D01*
X161113809Y-42623809D02*
X161066190Y-42671428D01*
X161066190Y-42671428D02*
X160970952Y-42719047D01*
X160970952Y-42719047D02*
X160732857Y-42719047D01*
X160732857Y-42719047D02*
X160637619Y-42671428D01*
X160637619Y-42671428D02*
X160590000Y-42623809D01*
X160590000Y-42623809D02*
X160542380Y-42528571D01*
X160542380Y-42528571D02*
X160542380Y-42242857D01*
X160542380Y-42242857D02*
X160590000Y-42147619D01*
X160590000Y-42147619D02*
X160637619Y-42100000D01*
X159874761Y-39861904D02*
X159922380Y-39766666D01*
X159922380Y-39766666D02*
X159922380Y-39623809D01*
X159922380Y-39623809D02*
X159874761Y-39480952D01*
X159874761Y-39480952D02*
X159779523Y-39385714D01*
X159779523Y-39385714D02*
X159684285Y-39338095D01*
X159684285Y-39338095D02*
X159493809Y-39290476D01*
X159493809Y-39290476D02*
X159350952Y-39290476D01*
X159350952Y-39290476D02*
X159160476Y-39338095D01*
X159160476Y-39338095D02*
X159065238Y-39385714D01*
X159065238Y-39385714D02*
X158970000Y-39480952D01*
X158970000Y-39480952D02*
X158922380Y-39623809D01*
X158922380Y-39623809D02*
X158922380Y-39719047D01*
X158922380Y-39719047D02*
X158970000Y-39861904D01*
X158970000Y-39861904D02*
X159017619Y-39909523D01*
X159017619Y-39909523D02*
X159350952Y-39909523D01*
X159350952Y-39909523D02*
X159350952Y-39719047D01*
X158922380Y-40338095D02*
X159922380Y-40338095D01*
X159446190Y-40338095D02*
X159446190Y-40909523D01*
X158922380Y-40909523D02*
X159922380Y-40909523D01*
X159017619Y-41385714D02*
X158970000Y-41433333D01*
X158970000Y-41433333D02*
X158922380Y-41385714D01*
X158922380Y-41385714D02*
X158970000Y-41338095D01*
X158970000Y-41338095D02*
X159017619Y-41385714D01*
X159017619Y-41385714D02*
X158922380Y-41385714D01*
X159541428Y-41385714D02*
X159493809Y-41433333D01*
X159493809Y-41433333D02*
X159446190Y-41385714D01*
X159446190Y-41385714D02*
X159493809Y-41338095D01*
X159493809Y-41338095D02*
X159541428Y-41385714D01*
X159541428Y-41385714D02*
X159446190Y-41385714D01*
X159398571Y-42480951D02*
X159446190Y-42433332D01*
X159446190Y-42433332D02*
X159493809Y-42338094D01*
X159493809Y-42338094D02*
X159493809Y-42242856D01*
X159493809Y-42242856D02*
X159446190Y-42147618D01*
X159446190Y-42147618D02*
X159398571Y-42099999D01*
X159398571Y-42099999D02*
X159303333Y-42052380D01*
X159303333Y-42052380D02*
X159208095Y-42052380D01*
X159208095Y-42052380D02*
X159112857Y-42099999D01*
X159112857Y-42099999D02*
X159065238Y-42147618D01*
X159065238Y-42147618D02*
X159017619Y-42242856D01*
X159017619Y-42242856D02*
X159017619Y-42338094D01*
X159017619Y-42338094D02*
X159065238Y-42433332D01*
X159065238Y-42433332D02*
X159112857Y-42480951D01*
X159493809Y-42480951D02*
X159112857Y-42480951D01*
X159112857Y-42480951D02*
X159065238Y-42528570D01*
X159065238Y-42528570D02*
X159065238Y-42576189D01*
X159065238Y-42576189D02*
X159112857Y-42671428D01*
X159112857Y-42671428D02*
X159208095Y-42719047D01*
X159208095Y-42719047D02*
X159446190Y-42719047D01*
X159446190Y-42719047D02*
X159589047Y-42623809D01*
X159589047Y-42623809D02*
X159684285Y-42480951D01*
X159684285Y-42480951D02*
X159731904Y-42290475D01*
X159731904Y-42290475D02*
X159684285Y-42099999D01*
X159684285Y-42099999D02*
X159589047Y-41957142D01*
X159589047Y-41957142D02*
X159446190Y-41861904D01*
X159446190Y-41861904D02*
X159255714Y-41814285D01*
X159255714Y-41814285D02*
X159065238Y-41861904D01*
X159065238Y-41861904D02*
X158922380Y-41957142D01*
X158922380Y-41957142D02*
X158827142Y-42099999D01*
X158827142Y-42099999D02*
X158779523Y-42290475D01*
X158779523Y-42290475D02*
X158827142Y-42480951D01*
X158827142Y-42480951D02*
X158922380Y-42623809D01*
X158922380Y-43147618D02*
X159589047Y-43147618D01*
X159922380Y-43147618D02*
X159874761Y-43099999D01*
X159874761Y-43099999D02*
X159827142Y-43147618D01*
X159827142Y-43147618D02*
X159874761Y-43195237D01*
X159874761Y-43195237D02*
X159922380Y-43147618D01*
X159922380Y-43147618D02*
X159827142Y-43147618D01*
X159589047Y-43623808D02*
X158922380Y-43623808D01*
X159493809Y-43623808D02*
X159541428Y-43671427D01*
X159541428Y-43671427D02*
X159589047Y-43766665D01*
X159589047Y-43766665D02*
X159589047Y-43909522D01*
X159589047Y-43909522D02*
X159541428Y-44004760D01*
X159541428Y-44004760D02*
X159446190Y-44052379D01*
X159446190Y-44052379D02*
X158922380Y-44052379D01*
X158922380Y-44957141D02*
X159922380Y-44957141D01*
X158970000Y-44957141D02*
X158922380Y-44861903D01*
X158922380Y-44861903D02*
X158922380Y-44671427D01*
X158922380Y-44671427D02*
X158970000Y-44576189D01*
X158970000Y-44576189D02*
X159017619Y-44528570D01*
X159017619Y-44528570D02*
X159112857Y-44480951D01*
X159112857Y-44480951D02*
X159398571Y-44480951D01*
X159398571Y-44480951D02*
X159493809Y-44528570D01*
X159493809Y-44528570D02*
X159541428Y-44576189D01*
X159541428Y-44576189D02*
X159589047Y-44671427D01*
X159589047Y-44671427D02*
X159589047Y-44861903D01*
X159589047Y-44861903D02*
X159541428Y-44957141D01*
X158922380Y-45433332D02*
X159589047Y-45433332D01*
X159922380Y-45433332D02*
X159874761Y-45385713D01*
X159874761Y-45385713D02*
X159827142Y-45433332D01*
X159827142Y-45433332D02*
X159874761Y-45480951D01*
X159874761Y-45480951D02*
X159922380Y-45433332D01*
X159922380Y-45433332D02*
X159827142Y-45433332D01*
X159589047Y-45814284D02*
X158922380Y-46052379D01*
X158922380Y-46052379D02*
X159589047Y-46290474D01*
X158922380Y-46671427D02*
X159589047Y-46671427D01*
X159922380Y-46671427D02*
X159874761Y-46623808D01*
X159874761Y-46623808D02*
X159827142Y-46671427D01*
X159827142Y-46671427D02*
X159874761Y-46719046D01*
X159874761Y-46719046D02*
X159922380Y-46671427D01*
X159922380Y-46671427D02*
X159827142Y-46671427D01*
X158922380Y-47576188D02*
X159922380Y-47576188D01*
X158970000Y-47576188D02*
X158922380Y-47480950D01*
X158922380Y-47480950D02*
X158922380Y-47290474D01*
X158922380Y-47290474D02*
X158970000Y-47195236D01*
X158970000Y-47195236D02*
X159017619Y-47147617D01*
X159017619Y-47147617D02*
X159112857Y-47099998D01*
X159112857Y-47099998D02*
X159398571Y-47099998D01*
X159398571Y-47099998D02*
X159493809Y-47147617D01*
X159493809Y-47147617D02*
X159541428Y-47195236D01*
X159541428Y-47195236D02*
X159589047Y-47290474D01*
X159589047Y-47290474D02*
X159589047Y-47480950D01*
X159589047Y-47480950D02*
X159541428Y-47576188D01*
X159589047Y-48480950D02*
X158922380Y-48480950D01*
X159589047Y-48052379D02*
X159065238Y-48052379D01*
X159065238Y-48052379D02*
X158970000Y-48099998D01*
X158970000Y-48099998D02*
X158922380Y-48195236D01*
X158922380Y-48195236D02*
X158922380Y-48338093D01*
X158922380Y-48338093D02*
X158970000Y-48433331D01*
X158970000Y-48433331D02*
X159017619Y-48480950D01*
X158922380Y-49385712D02*
X159446190Y-49385712D01*
X159446190Y-49385712D02*
X159541428Y-49338093D01*
X159541428Y-49338093D02*
X159589047Y-49242855D01*
X159589047Y-49242855D02*
X159589047Y-49052379D01*
X159589047Y-49052379D02*
X159541428Y-48957141D01*
X158970000Y-49385712D02*
X158922380Y-49290474D01*
X158922380Y-49290474D02*
X158922380Y-49052379D01*
X158922380Y-49052379D02*
X158970000Y-48957141D01*
X158970000Y-48957141D02*
X159065238Y-48909522D01*
X159065238Y-48909522D02*
X159160476Y-48909522D01*
X159160476Y-48909522D02*
X159255714Y-48957141D01*
X159255714Y-48957141D02*
X159303333Y-49052379D01*
X159303333Y-49052379D02*
X159303333Y-49290474D01*
X159303333Y-49290474D02*
X159350952Y-49385712D01*
X158922380Y-50004760D02*
X158970000Y-49909522D01*
X158970000Y-49909522D02*
X159065238Y-49861903D01*
X159065238Y-49861903D02*
X159922380Y-49861903D01*
X159922380Y-50814284D02*
X159922380Y-50623808D01*
X159922380Y-50623808D02*
X159874761Y-50528570D01*
X159874761Y-50528570D02*
X159827142Y-50480951D01*
X159827142Y-50480951D02*
X159684285Y-50385713D01*
X159684285Y-50385713D02*
X159493809Y-50338094D01*
X159493809Y-50338094D02*
X159112857Y-50338094D01*
X159112857Y-50338094D02*
X159017619Y-50385713D01*
X159017619Y-50385713D02*
X158970000Y-50433332D01*
X158970000Y-50433332D02*
X158922380Y-50528570D01*
X158922380Y-50528570D02*
X158922380Y-50719046D01*
X158922380Y-50719046D02*
X158970000Y-50814284D01*
X158970000Y-50814284D02*
X159017619Y-50861903D01*
X159017619Y-50861903D02*
X159112857Y-50909522D01*
X159112857Y-50909522D02*
X159350952Y-50909522D01*
X159350952Y-50909522D02*
X159446190Y-50861903D01*
X159446190Y-50861903D02*
X159493809Y-50814284D01*
X159493809Y-50814284D02*
X159541428Y-50719046D01*
X159541428Y-50719046D02*
X159541428Y-50528570D01*
X159541428Y-50528570D02*
X159493809Y-50433332D01*
X159493809Y-50433332D02*
X159446190Y-50385713D01*
X159446190Y-50385713D02*
X159350952Y-50338094D01*
X158922380Y-51861903D02*
X158922380Y-51290475D01*
X158922380Y-51576189D02*
X159922380Y-51576189D01*
X159922380Y-51576189D02*
X159779523Y-51480951D01*
X159779523Y-51480951D02*
X159684285Y-51385713D01*
X159684285Y-51385713D02*
X159636666Y-51290475D01*
X128890475Y-73180000D02*
X129033332Y-73227619D01*
X129033332Y-73227619D02*
X129271427Y-73227619D01*
X129271427Y-73227619D02*
X129366665Y-73180000D01*
X129366665Y-73180000D02*
X129414284Y-73132380D01*
X129414284Y-73132380D02*
X129461903Y-73037142D01*
X129461903Y-73037142D02*
X129461903Y-72941904D01*
X129461903Y-72941904D02*
X129414284Y-72846666D01*
X129414284Y-72846666D02*
X129366665Y-72799047D01*
X129366665Y-72799047D02*
X129271427Y-72751428D01*
X129271427Y-72751428D02*
X129080951Y-72703809D01*
X129080951Y-72703809D02*
X128985713Y-72656190D01*
X128985713Y-72656190D02*
X128938094Y-72608571D01*
X128938094Y-72608571D02*
X128890475Y-72513333D01*
X128890475Y-72513333D02*
X128890475Y-72418095D01*
X128890475Y-72418095D02*
X128938094Y-72322857D01*
X128938094Y-72322857D02*
X128985713Y-72275238D01*
X128985713Y-72275238D02*
X129080951Y-72227619D01*
X129080951Y-72227619D02*
X129319046Y-72227619D01*
X129319046Y-72227619D02*
X129461903Y-72275238D01*
X129747618Y-72560952D02*
X130128570Y-72560952D01*
X129890475Y-72227619D02*
X129890475Y-73084761D01*
X129890475Y-73084761D02*
X129938094Y-73180000D01*
X129938094Y-73180000D02*
X130033332Y-73227619D01*
X130033332Y-73227619D02*
X130128570Y-73227619D01*
X130890475Y-73227619D02*
X130890475Y-72703809D01*
X130890475Y-72703809D02*
X130842856Y-72608571D01*
X130842856Y-72608571D02*
X130747618Y-72560952D01*
X130747618Y-72560952D02*
X130557142Y-72560952D01*
X130557142Y-72560952D02*
X130461904Y-72608571D01*
X130890475Y-73180000D02*
X130795237Y-73227619D01*
X130795237Y-73227619D02*
X130557142Y-73227619D01*
X130557142Y-73227619D02*
X130461904Y-73180000D01*
X130461904Y-73180000D02*
X130414285Y-73084761D01*
X130414285Y-73084761D02*
X130414285Y-72989523D01*
X130414285Y-72989523D02*
X130461904Y-72894285D01*
X130461904Y-72894285D02*
X130557142Y-72846666D01*
X130557142Y-72846666D02*
X130795237Y-72846666D01*
X130795237Y-72846666D02*
X130890475Y-72799047D01*
X131366666Y-73227619D02*
X131366666Y-72560952D01*
X131366666Y-72751428D02*
X131414285Y-72656190D01*
X131414285Y-72656190D02*
X131461904Y-72608571D01*
X131461904Y-72608571D02*
X131557142Y-72560952D01*
X131557142Y-72560952D02*
X131652380Y-72560952D01*
X131842857Y-72560952D02*
X132223809Y-72560952D01*
X131985714Y-72227619D02*
X131985714Y-73084761D01*
X131985714Y-73084761D02*
X132033333Y-73180000D01*
X132033333Y-73180000D02*
X132128571Y-73227619D01*
X132128571Y-73227619D02*
X132223809Y-73227619D01*
X133271428Y-72180000D02*
X132414286Y-73465714D01*
X133557143Y-73180000D02*
X133700000Y-73227619D01*
X133700000Y-73227619D02*
X133938095Y-73227619D01*
X133938095Y-73227619D02*
X134033333Y-73180000D01*
X134033333Y-73180000D02*
X134080952Y-73132380D01*
X134080952Y-73132380D02*
X134128571Y-73037142D01*
X134128571Y-73037142D02*
X134128571Y-72941904D01*
X134128571Y-72941904D02*
X134080952Y-72846666D01*
X134080952Y-72846666D02*
X134033333Y-72799047D01*
X134033333Y-72799047D02*
X133938095Y-72751428D01*
X133938095Y-72751428D02*
X133747619Y-72703809D01*
X133747619Y-72703809D02*
X133652381Y-72656190D01*
X133652381Y-72656190D02*
X133604762Y-72608571D01*
X133604762Y-72608571D02*
X133557143Y-72513333D01*
X133557143Y-72513333D02*
X133557143Y-72418095D01*
X133557143Y-72418095D02*
X133604762Y-72322857D01*
X133604762Y-72322857D02*
X133652381Y-72275238D01*
X133652381Y-72275238D02*
X133747619Y-72227619D01*
X133747619Y-72227619D02*
X133985714Y-72227619D01*
X133985714Y-72227619D02*
X134128571Y-72275238D01*
X134414286Y-72560952D02*
X134795238Y-72560952D01*
X134557143Y-72227619D02*
X134557143Y-73084761D01*
X134557143Y-73084761D02*
X134604762Y-73180000D01*
X134604762Y-73180000D02*
X134700000Y-73227619D01*
X134700000Y-73227619D02*
X134795238Y-73227619D01*
X135271429Y-73227619D02*
X135176191Y-73180000D01*
X135176191Y-73180000D02*
X135128572Y-73132380D01*
X135128572Y-73132380D02*
X135080953Y-73037142D01*
X135080953Y-73037142D02*
X135080953Y-72751428D01*
X135080953Y-72751428D02*
X135128572Y-72656190D01*
X135128572Y-72656190D02*
X135176191Y-72608571D01*
X135176191Y-72608571D02*
X135271429Y-72560952D01*
X135271429Y-72560952D02*
X135414286Y-72560952D01*
X135414286Y-72560952D02*
X135509524Y-72608571D01*
X135509524Y-72608571D02*
X135557143Y-72656190D01*
X135557143Y-72656190D02*
X135604762Y-72751428D01*
X135604762Y-72751428D02*
X135604762Y-73037142D01*
X135604762Y-73037142D02*
X135557143Y-73132380D01*
X135557143Y-73132380D02*
X135509524Y-73180000D01*
X135509524Y-73180000D02*
X135414286Y-73227619D01*
X135414286Y-73227619D02*
X135271429Y-73227619D01*
X136033334Y-72560952D02*
X136033334Y-73560952D01*
X136033334Y-72608571D02*
X136128572Y-72560952D01*
X136128572Y-72560952D02*
X136319048Y-72560952D01*
X136319048Y-72560952D02*
X136414286Y-72608571D01*
X136414286Y-72608571D02*
X136461905Y-72656190D01*
X136461905Y-72656190D02*
X136509524Y-72751428D01*
X136509524Y-72751428D02*
X136509524Y-73037142D01*
X136509524Y-73037142D02*
X136461905Y-73132380D01*
X136461905Y-73132380D02*
X136414286Y-73180000D01*
X136414286Y-73180000D02*
X136319048Y-73227619D01*
X136319048Y-73227619D02*
X136128572Y-73227619D01*
X136128572Y-73227619D02*
X136033334Y-73180000D01*
X194190476Y-47830000D02*
X194333333Y-47877619D01*
X194333333Y-47877619D02*
X194571428Y-47877619D01*
X194571428Y-47877619D02*
X194666666Y-47830000D01*
X194666666Y-47830000D02*
X194714285Y-47782380D01*
X194714285Y-47782380D02*
X194761904Y-47687142D01*
X194761904Y-47687142D02*
X194761904Y-47591904D01*
X194761904Y-47591904D02*
X194714285Y-47496666D01*
X194714285Y-47496666D02*
X194666666Y-47449047D01*
X194666666Y-47449047D02*
X194571428Y-47401428D01*
X194571428Y-47401428D02*
X194380952Y-47353809D01*
X194380952Y-47353809D02*
X194285714Y-47306190D01*
X194285714Y-47306190D02*
X194238095Y-47258571D01*
X194238095Y-47258571D02*
X194190476Y-47163333D01*
X194190476Y-47163333D02*
X194190476Y-47068095D01*
X194190476Y-47068095D02*
X194238095Y-46972857D01*
X194238095Y-46972857D02*
X194285714Y-46925238D01*
X194285714Y-46925238D02*
X194380952Y-46877619D01*
X194380952Y-46877619D02*
X194619047Y-46877619D01*
X194619047Y-46877619D02*
X194761904Y-46925238D01*
X195142857Y-47830000D02*
X195285714Y-47877619D01*
X195285714Y-47877619D02*
X195523809Y-47877619D01*
X195523809Y-47877619D02*
X195619047Y-47830000D01*
X195619047Y-47830000D02*
X195666666Y-47782380D01*
X195666666Y-47782380D02*
X195714285Y-47687142D01*
X195714285Y-47687142D02*
X195714285Y-47591904D01*
X195714285Y-47591904D02*
X195666666Y-47496666D01*
X195666666Y-47496666D02*
X195619047Y-47449047D01*
X195619047Y-47449047D02*
X195523809Y-47401428D01*
X195523809Y-47401428D02*
X195333333Y-47353809D01*
X195333333Y-47353809D02*
X195238095Y-47306190D01*
X195238095Y-47306190D02*
X195190476Y-47258571D01*
X195190476Y-47258571D02*
X195142857Y-47163333D01*
X195142857Y-47163333D02*
X195142857Y-47068095D01*
X195142857Y-47068095D02*
X195190476Y-46972857D01*
X195190476Y-46972857D02*
X195238095Y-46925238D01*
X195238095Y-46925238D02*
X195333333Y-46877619D01*
X195333333Y-46877619D02*
X195571428Y-46877619D01*
X195571428Y-46877619D02*
X195714285Y-46925238D01*
X196714285Y-47877619D02*
X196380952Y-47401428D01*
X196142857Y-47877619D02*
X196142857Y-46877619D01*
X196142857Y-46877619D02*
X196523809Y-46877619D01*
X196523809Y-46877619D02*
X196619047Y-46925238D01*
X196619047Y-46925238D02*
X196666666Y-46972857D01*
X196666666Y-46972857D02*
X196714285Y-47068095D01*
X196714285Y-47068095D02*
X196714285Y-47210952D01*
X196714285Y-47210952D02*
X196666666Y-47306190D01*
X196666666Y-47306190D02*
X196619047Y-47353809D01*
X196619047Y-47353809D02*
X196523809Y-47401428D01*
X196523809Y-47401428D02*
X196142857Y-47401428D01*
X194761904Y-55925238D02*
X194666666Y-55877619D01*
X194666666Y-55877619D02*
X194523809Y-55877619D01*
X194523809Y-55877619D02*
X194380952Y-55925238D01*
X194380952Y-55925238D02*
X194285714Y-56020476D01*
X194285714Y-56020476D02*
X194238095Y-56115714D01*
X194238095Y-56115714D02*
X194190476Y-56306190D01*
X194190476Y-56306190D02*
X194190476Y-56449047D01*
X194190476Y-56449047D02*
X194238095Y-56639523D01*
X194238095Y-56639523D02*
X194285714Y-56734761D01*
X194285714Y-56734761D02*
X194380952Y-56830000D01*
X194380952Y-56830000D02*
X194523809Y-56877619D01*
X194523809Y-56877619D02*
X194619047Y-56877619D01*
X194619047Y-56877619D02*
X194761904Y-56830000D01*
X194761904Y-56830000D02*
X194809523Y-56782380D01*
X194809523Y-56782380D02*
X194809523Y-56449047D01*
X194809523Y-56449047D02*
X194619047Y-56449047D01*
X195238095Y-56877619D02*
X195238095Y-55877619D01*
X195238095Y-55877619D02*
X195809523Y-56877619D01*
X195809523Y-56877619D02*
X195809523Y-55877619D01*
X196285714Y-56877619D02*
X196285714Y-55877619D01*
X196285714Y-55877619D02*
X196523809Y-55877619D01*
X196523809Y-55877619D02*
X196666666Y-55925238D01*
X196666666Y-55925238D02*
X196761904Y-56020476D01*
X196761904Y-56020476D02*
X196809523Y-56115714D01*
X196809523Y-56115714D02*
X196857142Y-56306190D01*
X196857142Y-56306190D02*
X196857142Y-56449047D01*
X196857142Y-56449047D02*
X196809523Y-56639523D01*
X196809523Y-56639523D02*
X196761904Y-56734761D01*
X196761904Y-56734761D02*
X196666666Y-56830000D01*
X196666666Y-56830000D02*
X196523809Y-56877619D01*
X196523809Y-56877619D02*
X196285714Y-56877619D01*
X173537380Y-63731095D02*
X172727857Y-63731095D01*
X172727857Y-63731095D02*
X172632619Y-63778714D01*
X172632619Y-63778714D02*
X172585000Y-63826333D01*
X172585000Y-63826333D02*
X172537380Y-63921571D01*
X172537380Y-63921571D02*
X172537380Y-64112047D01*
X172537380Y-64112047D02*
X172585000Y-64207285D01*
X172585000Y-64207285D02*
X172632619Y-64254904D01*
X172632619Y-64254904D02*
X172727857Y-64302523D01*
X172727857Y-64302523D02*
X173537380Y-64302523D01*
X173442142Y-64731095D02*
X173489761Y-64778714D01*
X173489761Y-64778714D02*
X173537380Y-64873952D01*
X173537380Y-64873952D02*
X173537380Y-65112047D01*
X173537380Y-65112047D02*
X173489761Y-65207285D01*
X173489761Y-65207285D02*
X173442142Y-65254904D01*
X173442142Y-65254904D02*
X173346904Y-65302523D01*
X173346904Y-65302523D02*
X173251666Y-65302523D01*
X173251666Y-65302523D02*
X173108809Y-65254904D01*
X173108809Y-65254904D02*
X172537380Y-64683476D01*
X172537380Y-64683476D02*
X172537380Y-65302523D01*
X187966261Y-68625942D02*
X188013880Y-68538857D01*
X188013880Y-68538857D02*
X188013880Y-68408228D01*
X188013880Y-68408228D02*
X187966261Y-68277599D01*
X187966261Y-68277599D02*
X187871023Y-68190514D01*
X187871023Y-68190514D02*
X187775785Y-68146971D01*
X187775785Y-68146971D02*
X187585309Y-68103428D01*
X187585309Y-68103428D02*
X187442452Y-68103428D01*
X187442452Y-68103428D02*
X187251976Y-68146971D01*
X187251976Y-68146971D02*
X187156738Y-68190514D01*
X187156738Y-68190514D02*
X187061500Y-68277599D01*
X187061500Y-68277599D02*
X187013880Y-68408228D01*
X187013880Y-68408228D02*
X187013880Y-68495314D01*
X187013880Y-68495314D02*
X187061500Y-68625942D01*
X187061500Y-68625942D02*
X187109119Y-68669485D01*
X187109119Y-68669485D02*
X187442452Y-68669485D01*
X187442452Y-68669485D02*
X187442452Y-68495314D01*
X187013880Y-69061371D02*
X188013880Y-69061371D01*
X188013880Y-69061371D02*
X187013880Y-69583885D01*
X187013880Y-69583885D02*
X188013880Y-69583885D01*
X187013880Y-70019314D02*
X188013880Y-70019314D01*
X188013880Y-70019314D02*
X188013880Y-70237028D01*
X188013880Y-70237028D02*
X187966261Y-70367657D01*
X187966261Y-70367657D02*
X187871023Y-70454742D01*
X187871023Y-70454742D02*
X187775785Y-70498285D01*
X187775785Y-70498285D02*
X187585309Y-70541828D01*
X187585309Y-70541828D02*
X187442452Y-70541828D01*
X187442452Y-70541828D02*
X187251976Y-70498285D01*
X187251976Y-70498285D02*
X187156738Y-70454742D01*
X187156738Y-70454742D02*
X187061500Y-70367657D01*
X187061500Y-70367657D02*
X187013880Y-70237028D01*
X187013880Y-70237028D02*
X187013880Y-70019314D01*
X154208799Y-60838809D02*
X154339427Y-60886428D01*
X154339427Y-60886428D02*
X154382970Y-60934047D01*
X154382970Y-60934047D02*
X154426513Y-61029285D01*
X154426513Y-61029285D02*
X154426513Y-61172142D01*
X154426513Y-61172142D02*
X154382970Y-61267380D01*
X154382970Y-61267380D02*
X154339427Y-61315000D01*
X154339427Y-61315000D02*
X154252342Y-61362619D01*
X154252342Y-61362619D02*
X153903999Y-61362619D01*
X153903999Y-61362619D02*
X153903999Y-60362619D01*
X153903999Y-60362619D02*
X154208799Y-60362619D01*
X154208799Y-60362619D02*
X154295885Y-60410238D01*
X154295885Y-60410238D02*
X154339427Y-60457857D01*
X154339427Y-60457857D02*
X154382970Y-60553095D01*
X154382970Y-60553095D02*
X154382970Y-60648333D01*
X154382970Y-60648333D02*
X154339427Y-60743571D01*
X154339427Y-60743571D02*
X154295885Y-60791190D01*
X154295885Y-60791190D02*
X154208799Y-60838809D01*
X154208799Y-60838809D02*
X153903999Y-60838809D01*
X155253827Y-61362619D02*
X154818399Y-61362619D01*
X154818399Y-61362619D02*
X154818399Y-60362619D01*
X155558628Y-61362619D02*
X155558628Y-60362619D01*
X156081142Y-61362619D02*
X155689256Y-60791190D01*
X156081142Y-60362619D02*
X155558628Y-60934047D01*
X157126171Y-60315000D02*
X156342399Y-61600714D01*
X157909942Y-60410238D02*
X157822857Y-60362619D01*
X157822857Y-60362619D02*
X157692228Y-60362619D01*
X157692228Y-60362619D02*
X157561599Y-60410238D01*
X157561599Y-60410238D02*
X157474514Y-60505476D01*
X157474514Y-60505476D02*
X157430971Y-60600714D01*
X157430971Y-60600714D02*
X157387428Y-60791190D01*
X157387428Y-60791190D02*
X157387428Y-60934047D01*
X157387428Y-60934047D02*
X157430971Y-61124523D01*
X157430971Y-61124523D02*
X157474514Y-61219761D01*
X157474514Y-61219761D02*
X157561599Y-61315000D01*
X157561599Y-61315000D02*
X157692228Y-61362619D01*
X157692228Y-61362619D02*
X157779314Y-61362619D01*
X157779314Y-61362619D02*
X157909942Y-61315000D01*
X157909942Y-61315000D02*
X157953485Y-61267380D01*
X157953485Y-61267380D02*
X157953485Y-60934047D01*
X157953485Y-60934047D02*
X157779314Y-60934047D01*
X158345371Y-61362619D02*
X158345371Y-60362619D01*
X158345371Y-60362619D02*
X158867885Y-61362619D01*
X158867885Y-61362619D02*
X158867885Y-60362619D01*
X159303314Y-61362619D02*
X159303314Y-60362619D01*
X159303314Y-60362619D02*
X159521028Y-60362619D01*
X159521028Y-60362619D02*
X159651657Y-60410238D01*
X159651657Y-60410238D02*
X159738742Y-60505476D01*
X159738742Y-60505476D02*
X159782285Y-60600714D01*
X159782285Y-60600714D02*
X159825828Y-60791190D01*
X159825828Y-60791190D02*
X159825828Y-60934047D01*
X159825828Y-60934047D02*
X159782285Y-61124523D01*
X159782285Y-61124523D02*
X159738742Y-61219761D01*
X159738742Y-61219761D02*
X159651657Y-61315000D01*
X159651657Y-61315000D02*
X159521028Y-61362619D01*
X159521028Y-61362619D02*
X159303314Y-61362619D01*
X158998514Y-62845619D02*
X158563086Y-62845619D01*
X158563086Y-62845619D02*
X158519543Y-63321809D01*
X158519543Y-63321809D02*
X158563086Y-63274190D01*
X158563086Y-63274190D02*
X158650172Y-63226571D01*
X158650172Y-63226571D02*
X158867886Y-63226571D01*
X158867886Y-63226571D02*
X158954972Y-63274190D01*
X158954972Y-63274190D02*
X158998514Y-63321809D01*
X158998514Y-63321809D02*
X159042057Y-63417047D01*
X159042057Y-63417047D02*
X159042057Y-63655142D01*
X159042057Y-63655142D02*
X158998514Y-63750380D01*
X158998514Y-63750380D02*
X158954972Y-63798000D01*
X158954972Y-63798000D02*
X158867886Y-63845619D01*
X158867886Y-63845619D02*
X158650172Y-63845619D01*
X158650172Y-63845619D02*
X158563086Y-63798000D01*
X158563086Y-63798000D02*
X158519543Y-63750380D01*
X159303314Y-62845619D02*
X159608114Y-63845619D01*
X159608114Y-63845619D02*
X159912914Y-62845619D01*
X158954971Y-66362619D02*
X158650171Y-65886428D01*
X158432457Y-66362619D02*
X158432457Y-65362619D01*
X158432457Y-65362619D02*
X158780800Y-65362619D01*
X158780800Y-65362619D02*
X158867885Y-65410238D01*
X158867885Y-65410238D02*
X158911428Y-65457857D01*
X158911428Y-65457857D02*
X158954971Y-65553095D01*
X158954971Y-65553095D02*
X158954971Y-65695952D01*
X158954971Y-65695952D02*
X158911428Y-65791190D01*
X158911428Y-65791190D02*
X158867885Y-65838809D01*
X158867885Y-65838809D02*
X158780800Y-65886428D01*
X158780800Y-65886428D02*
X158432457Y-65886428D01*
X159259771Y-65362619D02*
X159869371Y-66362619D01*
X159869371Y-65362619D02*
X159259771Y-66362619D01*
X190077690Y-67711543D02*
X190030071Y-67842171D01*
X190030071Y-67842171D02*
X189982452Y-67885714D01*
X189982452Y-67885714D02*
X189887214Y-67929257D01*
X189887214Y-67929257D02*
X189744357Y-67929257D01*
X189744357Y-67929257D02*
X189649119Y-67885714D01*
X189649119Y-67885714D02*
X189601500Y-67842171D01*
X189601500Y-67842171D02*
X189553880Y-67755086D01*
X189553880Y-67755086D02*
X189553880Y-67406743D01*
X189553880Y-67406743D02*
X190553880Y-67406743D01*
X190553880Y-67406743D02*
X190553880Y-67711543D01*
X190553880Y-67711543D02*
X190506261Y-67798629D01*
X190506261Y-67798629D02*
X190458642Y-67842171D01*
X190458642Y-67842171D02*
X190363404Y-67885714D01*
X190363404Y-67885714D02*
X190268166Y-67885714D01*
X190268166Y-67885714D02*
X190172928Y-67842171D01*
X190172928Y-67842171D02*
X190125309Y-67798629D01*
X190125309Y-67798629D02*
X190077690Y-67711543D01*
X190077690Y-67711543D02*
X190077690Y-67406743D01*
X189839595Y-68277600D02*
X189839595Y-68713029D01*
X189553880Y-68190514D02*
X190553880Y-68495314D01*
X190553880Y-68495314D02*
X189553880Y-68800114D01*
X190553880Y-68974285D02*
X190553880Y-69496800D01*
X189553880Y-69235542D02*
X190553880Y-69235542D01*
X189934833Y-69801600D02*
X189934833Y-70498286D01*
X189553880Y-70149943D02*
X190315785Y-70149943D01*
X176663380Y-63602790D02*
X177663380Y-63602790D01*
X177663380Y-63602790D02*
X177663380Y-64028542D01*
X177663380Y-64028542D02*
X177615761Y-64134980D01*
X177615761Y-64134980D02*
X177568142Y-64188199D01*
X177568142Y-64188199D02*
X177472904Y-64241418D01*
X177472904Y-64241418D02*
X177330047Y-64241418D01*
X177330047Y-64241418D02*
X177234809Y-64188199D01*
X177234809Y-64188199D02*
X177187190Y-64134980D01*
X177187190Y-64134980D02*
X177139571Y-64028542D01*
X177139571Y-64028542D02*
X177139571Y-63602790D01*
X176663380Y-64720390D02*
X177330047Y-64720390D01*
X177139571Y-64720390D02*
X177234809Y-64773609D01*
X177234809Y-64773609D02*
X177282428Y-64826828D01*
X177282428Y-64826828D02*
X177330047Y-64933266D01*
X177330047Y-64933266D02*
X177330047Y-65039704D01*
X176663380Y-65571895D02*
X176711000Y-65465457D01*
X176711000Y-65465457D02*
X176758619Y-65412238D01*
X176758619Y-65412238D02*
X176853857Y-65359019D01*
X176853857Y-65359019D02*
X177139571Y-65359019D01*
X177139571Y-65359019D02*
X177234809Y-65412238D01*
X177234809Y-65412238D02*
X177282428Y-65465457D01*
X177282428Y-65465457D02*
X177330047Y-65571895D01*
X177330047Y-65571895D02*
X177330047Y-65731552D01*
X177330047Y-65731552D02*
X177282428Y-65837990D01*
X177282428Y-65837990D02*
X177234809Y-65891209D01*
X177234809Y-65891209D02*
X177139571Y-65944428D01*
X177139571Y-65944428D02*
X176853857Y-65944428D01*
X176853857Y-65944428D02*
X176758619Y-65891209D01*
X176758619Y-65891209D02*
X176711000Y-65837990D01*
X176711000Y-65837990D02*
X176663380Y-65731552D01*
X176663380Y-65731552D02*
X176663380Y-65571895D01*
X174599595Y-58758019D02*
X174599595Y-59139019D01*
X174313880Y-58681819D02*
X175313880Y-58948519D01*
X175313880Y-58948519D02*
X174313880Y-59215219D01*
X175313880Y-59634319D02*
X175313880Y-59710519D01*
X175313880Y-59710519D02*
X175266261Y-59786719D01*
X175266261Y-59786719D02*
X175218642Y-59824819D01*
X175218642Y-59824819D02*
X175123404Y-59862919D01*
X175123404Y-59862919D02*
X174932928Y-59901019D01*
X174932928Y-59901019D02*
X174694833Y-59901019D01*
X174694833Y-59901019D02*
X174504357Y-59862919D01*
X174504357Y-59862919D02*
X174409119Y-59824819D01*
X174409119Y-59824819D02*
X174361500Y-59786719D01*
X174361500Y-59786719D02*
X174313880Y-59710519D01*
X174313880Y-59710519D02*
X174313880Y-59634319D01*
X174313880Y-59634319D02*
X174361500Y-59558119D01*
X174361500Y-59558119D02*
X174409119Y-59520019D01*
X174409119Y-59520019D02*
X174504357Y-59481919D01*
X174504357Y-59481919D02*
X174694833Y-59443819D01*
X174694833Y-59443819D02*
X174932928Y-59443819D01*
X174932928Y-59443819D02*
X175123404Y-59481919D01*
X175123404Y-59481919D02*
X175218642Y-59520019D01*
X175218642Y-59520019D02*
X175266261Y-59558119D01*
X175266261Y-59558119D02*
X175313880Y-59634319D01*
X176393380Y-62469709D02*
X176393380Y-63044475D01*
X175393380Y-62757092D02*
X176393380Y-62757092D01*
X175393380Y-63379754D02*
X176060047Y-63379754D01*
X175869571Y-63379754D02*
X175964809Y-63427651D01*
X175964809Y-63427651D02*
X176012428Y-63475549D01*
X176012428Y-63475549D02*
X176060047Y-63571343D01*
X176060047Y-63571343D02*
X176060047Y-63667137D01*
X175393380Y-64002417D02*
X176060047Y-64002417D01*
X176393380Y-64002417D02*
X176345761Y-63954520D01*
X176345761Y-63954520D02*
X176298142Y-64002417D01*
X176298142Y-64002417D02*
X176345761Y-64050314D01*
X176345761Y-64050314D02*
X176393380Y-64002417D01*
X176393380Y-64002417D02*
X176298142Y-64002417D01*
X176060047Y-64481388D02*
X175393380Y-64481388D01*
X175964809Y-64481388D02*
X176012428Y-64529285D01*
X176012428Y-64529285D02*
X176060047Y-64625080D01*
X176060047Y-64625080D02*
X176060047Y-64768771D01*
X176060047Y-64768771D02*
X176012428Y-64864565D01*
X176012428Y-64864565D02*
X175917190Y-64912463D01*
X175917190Y-64912463D02*
X175393380Y-64912463D01*
X175393380Y-65391434D02*
X176393380Y-65391434D01*
X175774333Y-65487229D02*
X175393380Y-65774611D01*
X176060047Y-65774611D02*
X175679095Y-65391434D01*
X175441000Y-66588862D02*
X175393380Y-66493068D01*
X175393380Y-66493068D02*
X175393380Y-66301480D01*
X175393380Y-66301480D02*
X175441000Y-66205685D01*
X175441000Y-66205685D02*
X175536238Y-66157788D01*
X175536238Y-66157788D02*
X175917190Y-66157788D01*
X175917190Y-66157788D02*
X176012428Y-66205685D01*
X176012428Y-66205685D02*
X176060047Y-66301480D01*
X176060047Y-66301480D02*
X176060047Y-66493068D01*
X176060047Y-66493068D02*
X176012428Y-66588862D01*
X176012428Y-66588862D02*
X175917190Y-66636760D01*
X175917190Y-66636760D02*
X175821952Y-66636760D01*
X175821952Y-66636760D02*
X175726714Y-66157788D01*
X176060047Y-66924143D02*
X176060047Y-67307320D01*
X176393380Y-67067834D02*
X175536238Y-67067834D01*
X175536238Y-67067834D02*
X175441000Y-67115731D01*
X175441000Y-67115731D02*
X175393380Y-67211526D01*
X175393380Y-67211526D02*
X175393380Y-67307320D01*
X175488619Y-67642600D02*
X175441000Y-67690497D01*
X175441000Y-67690497D02*
X175393380Y-67642600D01*
X175393380Y-67642600D02*
X175441000Y-67594703D01*
X175441000Y-67594703D02*
X175488619Y-67642600D01*
X175488619Y-67642600D02*
X175393380Y-67642600D01*
X175774333Y-67642600D02*
X176345761Y-67594703D01*
X176345761Y-67594703D02*
X176393380Y-67642600D01*
X176393380Y-67642600D02*
X176345761Y-67690497D01*
X176345761Y-67690497D02*
X175774333Y-67642600D01*
X175774333Y-67642600D02*
X176393380Y-67642600D01*
X184346880Y-59302304D02*
X184346880Y-58779790D01*
X184346880Y-59041047D02*
X185346880Y-59041047D01*
X185346880Y-59041047D02*
X185204023Y-58953961D01*
X185204023Y-58953961D02*
X185108785Y-58866876D01*
X185108785Y-58866876D02*
X185061166Y-58779790D01*
X184346880Y-60173161D02*
X184346880Y-59650647D01*
X184346880Y-59911904D02*
X185346880Y-59911904D01*
X185346880Y-59911904D02*
X185204023Y-59824818D01*
X185204023Y-59824818D02*
X185108785Y-59737733D01*
X185108785Y-59737733D02*
X185061166Y-59650647D01*
X154470056Y-70410238D02*
X154382971Y-70362619D01*
X154382971Y-70362619D02*
X154252342Y-70362619D01*
X154252342Y-70362619D02*
X154121713Y-70410238D01*
X154121713Y-70410238D02*
X154034628Y-70505476D01*
X154034628Y-70505476D02*
X153991085Y-70600714D01*
X153991085Y-70600714D02*
X153947542Y-70791190D01*
X153947542Y-70791190D02*
X153947542Y-70934047D01*
X153947542Y-70934047D02*
X153991085Y-71124523D01*
X153991085Y-71124523D02*
X154034628Y-71219761D01*
X154034628Y-71219761D02*
X154121713Y-71315000D01*
X154121713Y-71315000D02*
X154252342Y-71362619D01*
X154252342Y-71362619D02*
X154339428Y-71362619D01*
X154339428Y-71362619D02*
X154470056Y-71315000D01*
X154470056Y-71315000D02*
X154513599Y-71267380D01*
X154513599Y-71267380D02*
X154513599Y-70934047D01*
X154513599Y-70934047D02*
X154339428Y-70934047D01*
X155427999Y-71362619D02*
X155123199Y-70886428D01*
X154905485Y-71362619D02*
X154905485Y-70362619D01*
X154905485Y-70362619D02*
X155253828Y-70362619D01*
X155253828Y-70362619D02*
X155340913Y-70410238D01*
X155340913Y-70410238D02*
X155384456Y-70457857D01*
X155384456Y-70457857D02*
X155427999Y-70553095D01*
X155427999Y-70553095D02*
X155427999Y-70695952D01*
X155427999Y-70695952D02*
X155384456Y-70791190D01*
X155384456Y-70791190D02*
X155340913Y-70838809D01*
X155340913Y-70838809D02*
X155253828Y-70886428D01*
X155253828Y-70886428D02*
X154905485Y-70886428D01*
X155819885Y-71362619D02*
X155819885Y-70362619D01*
X155819885Y-70362619D02*
X156342399Y-71362619D01*
X156342399Y-71362619D02*
X156342399Y-70362619D01*
X157430971Y-70315000D02*
X156647199Y-71600714D01*
X158258285Y-71362619D02*
X157953485Y-70886428D01*
X157735771Y-71362619D02*
X157735771Y-70362619D01*
X157735771Y-70362619D02*
X158084114Y-70362619D01*
X158084114Y-70362619D02*
X158171199Y-70410238D01*
X158171199Y-70410238D02*
X158214742Y-70457857D01*
X158214742Y-70457857D02*
X158258285Y-70553095D01*
X158258285Y-70553095D02*
X158258285Y-70695952D01*
X158258285Y-70695952D02*
X158214742Y-70791190D01*
X158214742Y-70791190D02*
X158171199Y-70838809D01*
X158171199Y-70838809D02*
X158084114Y-70886428D01*
X158084114Y-70886428D02*
X157735771Y-70886428D01*
X158606628Y-71315000D02*
X158737257Y-71362619D01*
X158737257Y-71362619D02*
X158954971Y-71362619D01*
X158954971Y-71362619D02*
X159042057Y-71315000D01*
X159042057Y-71315000D02*
X159085599Y-71267380D01*
X159085599Y-71267380D02*
X159129142Y-71172142D01*
X159129142Y-71172142D02*
X159129142Y-71076904D01*
X159129142Y-71076904D02*
X159085599Y-70981666D01*
X159085599Y-70981666D02*
X159042057Y-70934047D01*
X159042057Y-70934047D02*
X158954971Y-70886428D01*
X158954971Y-70886428D02*
X158780799Y-70838809D01*
X158780799Y-70838809D02*
X158693714Y-70791190D01*
X158693714Y-70791190D02*
X158650171Y-70743571D01*
X158650171Y-70743571D02*
X158606628Y-70648333D01*
X158606628Y-70648333D02*
X158606628Y-70553095D01*
X158606628Y-70553095D02*
X158650171Y-70457857D01*
X158650171Y-70457857D02*
X158693714Y-70410238D01*
X158693714Y-70410238D02*
X158780799Y-70362619D01*
X158780799Y-70362619D02*
X158998514Y-70362619D01*
X158998514Y-70362619D02*
X159129142Y-70410238D01*
X159390399Y-70362619D02*
X159912914Y-70362619D01*
X159651656Y-71362619D02*
X159651656Y-70362619D01*
X185251690Y-68733348D02*
X185204071Y-68857445D01*
X185204071Y-68857445D02*
X185156452Y-68898811D01*
X185156452Y-68898811D02*
X185061214Y-68940177D01*
X185061214Y-68940177D02*
X184918357Y-68940177D01*
X184918357Y-68940177D02*
X184823119Y-68898811D01*
X184823119Y-68898811D02*
X184775500Y-68857445D01*
X184775500Y-68857445D02*
X184727880Y-68774714D01*
X184727880Y-68774714D02*
X184727880Y-68443788D01*
X184727880Y-68443788D02*
X185727880Y-68443788D01*
X185727880Y-68443788D02*
X185727880Y-68733348D01*
X185727880Y-68733348D02*
X185680261Y-68816080D01*
X185680261Y-68816080D02*
X185632642Y-68857445D01*
X185632642Y-68857445D02*
X185537404Y-68898811D01*
X185537404Y-68898811D02*
X185442166Y-68898811D01*
X185442166Y-68898811D02*
X185346928Y-68857445D01*
X185346928Y-68857445D02*
X185299309Y-68816080D01*
X185299309Y-68816080D02*
X185251690Y-68733348D01*
X185251690Y-68733348D02*
X185251690Y-68443788D01*
X185727880Y-69312468D02*
X184918357Y-69312468D01*
X184918357Y-69312468D02*
X184823119Y-69353834D01*
X184823119Y-69353834D02*
X184775500Y-69395200D01*
X184775500Y-69395200D02*
X184727880Y-69477931D01*
X184727880Y-69477931D02*
X184727880Y-69643394D01*
X184727880Y-69643394D02*
X184775500Y-69726125D01*
X184775500Y-69726125D02*
X184823119Y-69767491D01*
X184823119Y-69767491D02*
X184918357Y-69808857D01*
X184918357Y-69808857D02*
X185727880Y-69808857D01*
X184775500Y-70181148D02*
X184727880Y-70305246D01*
X184727880Y-70305246D02*
X184727880Y-70512074D01*
X184727880Y-70512074D02*
X184775500Y-70594806D01*
X184775500Y-70594806D02*
X184823119Y-70636171D01*
X184823119Y-70636171D02*
X184918357Y-70677537D01*
X184918357Y-70677537D02*
X185013595Y-70677537D01*
X185013595Y-70677537D02*
X185108833Y-70636171D01*
X185108833Y-70636171D02*
X185156452Y-70594806D01*
X185156452Y-70594806D02*
X185204071Y-70512074D01*
X185204071Y-70512074D02*
X185251690Y-70346611D01*
X185251690Y-70346611D02*
X185299309Y-70263880D01*
X185299309Y-70263880D02*
X185346928Y-70222514D01*
X185346928Y-70222514D02*
X185442166Y-70181148D01*
X185442166Y-70181148D02*
X185537404Y-70181148D01*
X185537404Y-70181148D02*
X185632642Y-70222514D01*
X185632642Y-70222514D02*
X185680261Y-70263880D01*
X185680261Y-70263880D02*
X185727880Y-70346611D01*
X185727880Y-70346611D02*
X185727880Y-70553440D01*
X185727880Y-70553440D02*
X185680261Y-70677537D01*
X169392595Y-58779790D02*
X169392595Y-59215219D01*
X169106880Y-58692704D02*
X170106880Y-58997504D01*
X170106880Y-58997504D02*
X169106880Y-59302304D01*
X170011642Y-59563561D02*
X170059261Y-59607104D01*
X170059261Y-59607104D02*
X170106880Y-59694190D01*
X170106880Y-59694190D02*
X170106880Y-59911904D01*
X170106880Y-59911904D02*
X170059261Y-59998990D01*
X170059261Y-59998990D02*
X170011642Y-60042532D01*
X170011642Y-60042532D02*
X169916404Y-60086075D01*
X169916404Y-60086075D02*
X169821166Y-60086075D01*
X169821166Y-60086075D02*
X169678309Y-60042532D01*
X169678309Y-60042532D02*
X169106880Y-59520018D01*
X169106880Y-59520018D02*
X169106880Y-60086075D01*
X188410833Y-58792514D02*
X188458452Y-58836057D01*
X188458452Y-58836057D02*
X188506071Y-58923143D01*
X188506071Y-58923143D02*
X188410833Y-59097314D01*
X188410833Y-59097314D02*
X188458452Y-59184400D01*
X188458452Y-59184400D02*
X188506071Y-59227943D01*
X164376095Y-58779790D02*
X164376095Y-59215219D01*
X164090380Y-58692704D02*
X165090380Y-58997504D01*
X165090380Y-58997504D02*
X164090380Y-59302304D01*
X164757047Y-59998990D02*
X164090380Y-59998990D01*
X165138000Y-59781275D02*
X164423714Y-59563561D01*
X164423714Y-59563561D02*
X164423714Y-60129618D01*
X177012595Y-58779790D02*
X177012595Y-59215219D01*
X176726880Y-58692704D02*
X177726880Y-58997504D01*
X177726880Y-58997504D02*
X176726880Y-59302304D01*
X176726880Y-59607104D02*
X177393547Y-59607104D01*
X177203071Y-59607104D02*
X177298309Y-59650647D01*
X177298309Y-59650647D02*
X177345928Y-59694190D01*
X177345928Y-59694190D02*
X177393547Y-59781275D01*
X177393547Y-59781275D02*
X177393547Y-59868361D01*
X179266880Y-59302304D02*
X179266880Y-58779790D01*
X179266880Y-59041047D02*
X180266880Y-59041047D01*
X180266880Y-59041047D02*
X180124023Y-58953961D01*
X180124023Y-58953961D02*
X180028785Y-58866876D01*
X180028785Y-58866876D02*
X179981166Y-58779790D01*
X180266880Y-59607104D02*
X180266880Y-60173161D01*
X180266880Y-60173161D02*
X179885928Y-59868361D01*
X179885928Y-59868361D02*
X179885928Y-59998990D01*
X179885928Y-59998990D02*
X179838309Y-60086076D01*
X179838309Y-60086076D02*
X179790690Y-60129618D01*
X179790690Y-60129618D02*
X179695452Y-60173161D01*
X179695452Y-60173161D02*
X179457357Y-60173161D01*
X179457357Y-60173161D02*
X179362119Y-60129618D01*
X179362119Y-60129618D02*
X179314500Y-60086076D01*
X179314500Y-60086076D02*
X179266880Y-59998990D01*
X179266880Y-59998990D02*
X179266880Y-59737733D01*
X179266880Y-59737733D02*
X179314500Y-59650647D01*
X179314500Y-59650647D02*
X179362119Y-59607104D01*
X170360880Y-70102771D02*
X170360880Y-70668828D01*
X170360880Y-70668828D02*
X169979928Y-70364028D01*
X169979928Y-70364028D02*
X169979928Y-70494657D01*
X169979928Y-70494657D02*
X169932309Y-70581743D01*
X169932309Y-70581743D02*
X169884690Y-70625285D01*
X169884690Y-70625285D02*
X169789452Y-70668828D01*
X169789452Y-70668828D02*
X169551357Y-70668828D01*
X169551357Y-70668828D02*
X169456119Y-70625285D01*
X169456119Y-70625285D02*
X169408500Y-70581743D01*
X169408500Y-70581743D02*
X169360880Y-70494657D01*
X169360880Y-70494657D02*
X169360880Y-70233400D01*
X169360880Y-70233400D02*
X169408500Y-70146314D01*
X169408500Y-70146314D02*
X169456119Y-70102771D01*
X166916095Y-58779790D02*
X166916095Y-59215219D01*
X166630380Y-58692704D02*
X167630380Y-58997504D01*
X167630380Y-58997504D02*
X166630380Y-59302304D01*
X167630380Y-59520018D02*
X167630380Y-60086075D01*
X167630380Y-60086075D02*
X167249428Y-59781275D01*
X167249428Y-59781275D02*
X167249428Y-59911904D01*
X167249428Y-59911904D02*
X167201809Y-59998990D01*
X167201809Y-59998990D02*
X167154190Y-60042532D01*
X167154190Y-60042532D02*
X167058952Y-60086075D01*
X167058952Y-60086075D02*
X166820857Y-60086075D01*
X166820857Y-60086075D02*
X166725619Y-60042532D01*
X166725619Y-60042532D02*
X166678000Y-59998990D01*
X166678000Y-59998990D02*
X166630380Y-59911904D01*
X166630380Y-59911904D02*
X166630380Y-59650647D01*
X166630380Y-59650647D02*
X166678000Y-59563561D01*
X166678000Y-59563561D02*
X166725619Y-59520018D01*
X154208799Y-58241809D02*
X154339427Y-58289428D01*
X154339427Y-58289428D02*
X154382970Y-58337047D01*
X154382970Y-58337047D02*
X154426513Y-58432285D01*
X154426513Y-58432285D02*
X154426513Y-58575142D01*
X154426513Y-58575142D02*
X154382970Y-58670380D01*
X154382970Y-58670380D02*
X154339427Y-58718000D01*
X154339427Y-58718000D02*
X154252342Y-58765619D01*
X154252342Y-58765619D02*
X153903999Y-58765619D01*
X153903999Y-58765619D02*
X153903999Y-57765619D01*
X153903999Y-57765619D02*
X154208799Y-57765619D01*
X154208799Y-57765619D02*
X154295885Y-57813238D01*
X154295885Y-57813238D02*
X154339427Y-57860857D01*
X154339427Y-57860857D02*
X154382970Y-57956095D01*
X154382970Y-57956095D02*
X154382970Y-58051333D01*
X154382970Y-58051333D02*
X154339427Y-58146571D01*
X154339427Y-58146571D02*
X154295885Y-58194190D01*
X154295885Y-58194190D02*
X154208799Y-58241809D01*
X154208799Y-58241809D02*
X153903999Y-58241809D01*
X155253827Y-58765619D02*
X154818399Y-58765619D01*
X154818399Y-58765619D02*
X154818399Y-57765619D01*
X155558628Y-58765619D02*
X155558628Y-57765619D01*
X156081142Y-58765619D02*
X155689256Y-58194190D01*
X156081142Y-57765619D02*
X155558628Y-58337047D01*
X157126171Y-57718000D02*
X156342399Y-59003714D01*
X157909942Y-57813238D02*
X157822857Y-57765619D01*
X157822857Y-57765619D02*
X157692228Y-57765619D01*
X157692228Y-57765619D02*
X157561599Y-57813238D01*
X157561599Y-57813238D02*
X157474514Y-57908476D01*
X157474514Y-57908476D02*
X157430971Y-58003714D01*
X157430971Y-58003714D02*
X157387428Y-58194190D01*
X157387428Y-58194190D02*
X157387428Y-58337047D01*
X157387428Y-58337047D02*
X157430971Y-58527523D01*
X157430971Y-58527523D02*
X157474514Y-58622761D01*
X157474514Y-58622761D02*
X157561599Y-58718000D01*
X157561599Y-58718000D02*
X157692228Y-58765619D01*
X157692228Y-58765619D02*
X157779314Y-58765619D01*
X157779314Y-58765619D02*
X157909942Y-58718000D01*
X157909942Y-58718000D02*
X157953485Y-58670380D01*
X157953485Y-58670380D02*
X157953485Y-58337047D01*
X157953485Y-58337047D02*
X157779314Y-58337047D01*
X158345371Y-58765619D02*
X158345371Y-57765619D01*
X158345371Y-57765619D02*
X158867885Y-58765619D01*
X158867885Y-58765619D02*
X158867885Y-57765619D01*
X159303314Y-58765619D02*
X159303314Y-57765619D01*
X159303314Y-57765619D02*
X159521028Y-57765619D01*
X159521028Y-57765619D02*
X159651657Y-57813238D01*
X159651657Y-57813238D02*
X159738742Y-57908476D01*
X159738742Y-57908476D02*
X159782285Y-58003714D01*
X159782285Y-58003714D02*
X159825828Y-58194190D01*
X159825828Y-58194190D02*
X159825828Y-58337047D01*
X159825828Y-58337047D02*
X159782285Y-58527523D01*
X159782285Y-58527523D02*
X159738742Y-58622761D01*
X159738742Y-58622761D02*
X159651657Y-58718000D01*
X159651657Y-58718000D02*
X159521028Y-58765619D01*
X159521028Y-58765619D02*
X159303314Y-58765619D01*
X172567547Y-70581743D02*
X171900880Y-70581743D01*
X172948500Y-70364028D02*
X172234214Y-70146314D01*
X172234214Y-70146314D02*
X172234214Y-70712371D01*
X190823833Y-58792514D02*
X190871452Y-58836057D01*
X190871452Y-58836057D02*
X190919071Y-58923143D01*
X190919071Y-58923143D02*
X190823833Y-59097314D01*
X190823833Y-59097314D02*
X190871452Y-59184400D01*
X190871452Y-59184400D02*
X190919071Y-59227943D01*
X183060880Y-69841514D02*
X183060880Y-69406086D01*
X183060880Y-69406086D02*
X182584690Y-69362543D01*
X182584690Y-69362543D02*
X182632309Y-69406086D01*
X182632309Y-69406086D02*
X182679928Y-69493172D01*
X182679928Y-69493172D02*
X182679928Y-69710886D01*
X182679928Y-69710886D02*
X182632309Y-69797972D01*
X182632309Y-69797972D02*
X182584690Y-69841514D01*
X182584690Y-69841514D02*
X182489452Y-69885057D01*
X182489452Y-69885057D02*
X182251357Y-69885057D01*
X182251357Y-69885057D02*
X182156119Y-69841514D01*
X182156119Y-69841514D02*
X182108500Y-69797972D01*
X182108500Y-69797972D02*
X182060880Y-69710886D01*
X182060880Y-69710886D02*
X182060880Y-69493172D01*
X182060880Y-69493172D02*
X182108500Y-69406086D01*
X182108500Y-69406086D02*
X182156119Y-69362543D01*
X183060880Y-70146314D02*
X182060880Y-70451114D01*
X182060880Y-70451114D02*
X183060880Y-70755914D01*
X175710833Y-70177132D02*
X175758452Y-70220675D01*
X175758452Y-70220675D02*
X175806071Y-70307761D01*
X175806071Y-70307761D02*
X175710833Y-70481932D01*
X175710833Y-70481932D02*
X175758452Y-70569018D01*
X175758452Y-70569018D02*
X175806071Y-70612561D01*
X167884380Y-69362542D02*
X167884380Y-69885057D01*
X166884380Y-69623799D02*
X167884380Y-69623799D01*
X167884380Y-70102771D02*
X166884380Y-70712371D01*
X167884380Y-70712371D02*
X166884380Y-70102771D01*
X189490380Y-58866876D02*
X189490380Y-59041047D01*
X189490380Y-59041047D02*
X189538000Y-59128133D01*
X189538000Y-59128133D02*
X189585619Y-59171676D01*
X189585619Y-59171676D02*
X189728476Y-59258761D01*
X189728476Y-59258761D02*
X189918952Y-59302304D01*
X189918952Y-59302304D02*
X190299904Y-59302304D01*
X190299904Y-59302304D02*
X190395142Y-59258761D01*
X190395142Y-59258761D02*
X190442761Y-59215219D01*
X190442761Y-59215219D02*
X190490380Y-59128133D01*
X190490380Y-59128133D02*
X190490380Y-58953961D01*
X190490380Y-58953961D02*
X190442761Y-58866876D01*
X190442761Y-58866876D02*
X190395142Y-58823333D01*
X190395142Y-58823333D02*
X190299904Y-58779790D01*
X190299904Y-58779790D02*
X190061809Y-58779790D01*
X190061809Y-58779790D02*
X189966571Y-58823333D01*
X189966571Y-58823333D02*
X189918952Y-58866876D01*
X189918952Y-58866876D02*
X189871333Y-58953961D01*
X189871333Y-58953961D02*
X189871333Y-59128133D01*
X189871333Y-59128133D02*
X189918952Y-59215219D01*
X189918952Y-59215219D02*
X189966571Y-59258761D01*
X189966571Y-59258761D02*
X190061809Y-59302304D01*
X164344380Y-69797971D02*
X164820571Y-69493171D01*
X164344380Y-69275457D02*
X165344380Y-69275457D01*
X165344380Y-69275457D02*
X165344380Y-69623800D01*
X165344380Y-69623800D02*
X165296761Y-69710885D01*
X165296761Y-69710885D02*
X165249142Y-69754428D01*
X165249142Y-69754428D02*
X165153904Y-69797971D01*
X165153904Y-69797971D02*
X165011047Y-69797971D01*
X165011047Y-69797971D02*
X164915809Y-69754428D01*
X164915809Y-69754428D02*
X164868190Y-69710885D01*
X164868190Y-69710885D02*
X164820571Y-69623800D01*
X164820571Y-69623800D02*
X164820571Y-69275457D01*
X165344380Y-70102771D02*
X164344380Y-70712371D01*
X165344380Y-70712371D02*
X164344380Y-70102771D01*
X170630833Y-70177132D02*
X170678452Y-70220675D01*
X170678452Y-70220675D02*
X170726071Y-70307761D01*
X170726071Y-70307761D02*
X170630833Y-70481932D01*
X170630833Y-70481932D02*
X170678452Y-70569018D01*
X170678452Y-70569018D02*
X170726071Y-70612561D01*
X161740880Y-69101285D02*
X162217071Y-68796485D01*
X161740880Y-68578771D02*
X162740880Y-68578771D01*
X162740880Y-68578771D02*
X162740880Y-68927114D01*
X162740880Y-68927114D02*
X162693261Y-69014199D01*
X162693261Y-69014199D02*
X162645642Y-69057742D01*
X162645642Y-69057742D02*
X162550404Y-69101285D01*
X162550404Y-69101285D02*
X162407547Y-69101285D01*
X162407547Y-69101285D02*
X162312309Y-69057742D01*
X162312309Y-69057742D02*
X162264690Y-69014199D01*
X162264690Y-69014199D02*
X162217071Y-68927114D01*
X162217071Y-68927114D02*
X162217071Y-68578771D01*
X161788500Y-69449628D02*
X161740880Y-69580257D01*
X161740880Y-69580257D02*
X161740880Y-69797971D01*
X161740880Y-69797971D02*
X161788500Y-69885057D01*
X161788500Y-69885057D02*
X161836119Y-69928599D01*
X161836119Y-69928599D02*
X161931357Y-69972142D01*
X161931357Y-69972142D02*
X162026595Y-69972142D01*
X162026595Y-69972142D02*
X162121833Y-69928599D01*
X162121833Y-69928599D02*
X162169452Y-69885057D01*
X162169452Y-69885057D02*
X162217071Y-69797971D01*
X162217071Y-69797971D02*
X162264690Y-69623799D01*
X162264690Y-69623799D02*
X162312309Y-69536714D01*
X162312309Y-69536714D02*
X162359928Y-69493171D01*
X162359928Y-69493171D02*
X162455166Y-69449628D01*
X162455166Y-69449628D02*
X162550404Y-69449628D01*
X162550404Y-69449628D02*
X162645642Y-69493171D01*
X162645642Y-69493171D02*
X162693261Y-69536714D01*
X162693261Y-69536714D02*
X162740880Y-69623799D01*
X162740880Y-69623799D02*
X162740880Y-69841514D01*
X162740880Y-69841514D02*
X162693261Y-69972142D01*
X162740880Y-70233399D02*
X162740880Y-70755914D01*
X161740880Y-70494656D02*
X162740880Y-70494656D01*
X187013880Y-59302304D02*
X187013880Y-58779790D01*
X187013880Y-59041047D02*
X188013880Y-59041047D01*
X188013880Y-59041047D02*
X187871023Y-58953961D01*
X187871023Y-58953961D02*
X187775785Y-58866876D01*
X187775785Y-58866876D02*
X187728166Y-58779790D01*
X188013880Y-59868361D02*
X188013880Y-59955447D01*
X188013880Y-59955447D02*
X187966261Y-60042533D01*
X187966261Y-60042533D02*
X187918642Y-60086076D01*
X187918642Y-60086076D02*
X187823404Y-60129618D01*
X187823404Y-60129618D02*
X187632928Y-60173161D01*
X187632928Y-60173161D02*
X187394833Y-60173161D01*
X187394833Y-60173161D02*
X187204357Y-60129618D01*
X187204357Y-60129618D02*
X187109119Y-60086076D01*
X187109119Y-60086076D02*
X187061500Y-60042533D01*
X187061500Y-60042533D02*
X187013880Y-59955447D01*
X187013880Y-59955447D02*
X187013880Y-59868361D01*
X187013880Y-59868361D02*
X187061500Y-59781276D01*
X187061500Y-59781276D02*
X187109119Y-59737733D01*
X187109119Y-59737733D02*
X187204357Y-59694190D01*
X187204357Y-59694190D02*
X187394833Y-59650647D01*
X187394833Y-59650647D02*
X187632928Y-59650647D01*
X187632928Y-59650647D02*
X187823404Y-59694190D01*
X187823404Y-59694190D02*
X187918642Y-59737733D01*
X187918642Y-59737733D02*
X187966261Y-59781276D01*
X187966261Y-59781276D02*
X188013880Y-59868361D01*
X158519542Y-67925619D02*
X159042057Y-67925619D01*
X158780799Y-68925619D02*
X158780799Y-67925619D01*
X159259771Y-67925619D02*
X159869371Y-68925619D01*
X159869371Y-67925619D02*
X159259771Y-68925619D01*
X161963095Y-58779790D02*
X161963095Y-59215219D01*
X161677380Y-58692704D02*
X162677380Y-58997504D01*
X162677380Y-58997504D02*
X161677380Y-59302304D01*
X162677380Y-60042532D02*
X162677380Y-59607104D01*
X162677380Y-59607104D02*
X162201190Y-59563561D01*
X162201190Y-59563561D02*
X162248809Y-59607104D01*
X162248809Y-59607104D02*
X162296428Y-59694190D01*
X162296428Y-59694190D02*
X162296428Y-59911904D01*
X162296428Y-59911904D02*
X162248809Y-59998990D01*
X162248809Y-59998990D02*
X162201190Y-60042532D01*
X162201190Y-60042532D02*
X162105952Y-60086075D01*
X162105952Y-60086075D02*
X161867857Y-60086075D01*
X161867857Y-60086075D02*
X161772619Y-60042532D01*
X161772619Y-60042532D02*
X161725000Y-59998990D01*
X161725000Y-59998990D02*
X161677380Y-59911904D01*
X161677380Y-59911904D02*
X161677380Y-59694190D01*
X161677380Y-59694190D02*
X161725000Y-59607104D01*
X161725000Y-59607104D02*
X161772619Y-59563561D01*
X177853880Y-70581743D02*
X177853880Y-70407571D01*
X177853880Y-70407571D02*
X177806261Y-70320485D01*
X177806261Y-70320485D02*
X177758642Y-70276943D01*
X177758642Y-70276943D02*
X177615785Y-70189857D01*
X177615785Y-70189857D02*
X177425309Y-70146314D01*
X177425309Y-70146314D02*
X177044357Y-70146314D01*
X177044357Y-70146314D02*
X176949119Y-70189857D01*
X176949119Y-70189857D02*
X176901500Y-70233400D01*
X176901500Y-70233400D02*
X176853880Y-70320485D01*
X176853880Y-70320485D02*
X176853880Y-70494657D01*
X176853880Y-70494657D02*
X176901500Y-70581743D01*
X176901500Y-70581743D02*
X176949119Y-70625285D01*
X176949119Y-70625285D02*
X177044357Y-70668828D01*
X177044357Y-70668828D02*
X177282452Y-70668828D01*
X177282452Y-70668828D02*
X177377690Y-70625285D01*
X177377690Y-70625285D02*
X177425309Y-70581743D01*
X177425309Y-70581743D02*
X177472928Y-70494657D01*
X177472928Y-70494657D02*
X177472928Y-70320485D01*
X177472928Y-70320485D02*
X177425309Y-70233400D01*
X177425309Y-70233400D02*
X177377690Y-70189857D01*
X177377690Y-70189857D02*
X177282452Y-70146314D01*
X178187333Y-70177132D02*
X178234952Y-70220675D01*
X178234952Y-70220675D02*
X178282571Y-70307761D01*
X178282571Y-70307761D02*
X178187333Y-70481932D01*
X178187333Y-70481932D02*
X178234952Y-70569018D01*
X178234952Y-70569018D02*
X178282571Y-70612561D01*
X181933880Y-59302304D02*
X181933880Y-58779790D01*
X181933880Y-59041047D02*
X182933880Y-59041047D01*
X182933880Y-59041047D02*
X182791023Y-58953961D01*
X182791023Y-58953961D02*
X182695785Y-58866876D01*
X182695785Y-58866876D02*
X182648166Y-58779790D01*
X182838642Y-59650647D02*
X182886261Y-59694190D01*
X182886261Y-59694190D02*
X182933880Y-59781276D01*
X182933880Y-59781276D02*
X182933880Y-59998990D01*
X182933880Y-59998990D02*
X182886261Y-60086076D01*
X182886261Y-60086076D02*
X182838642Y-60129618D01*
X182838642Y-60129618D02*
X182743404Y-60173161D01*
X182743404Y-60173161D02*
X182648166Y-60173161D01*
X182648166Y-60173161D02*
X182505309Y-60129618D01*
X182505309Y-60129618D02*
X181933880Y-59607104D01*
X181933880Y-59607104D02*
X181933880Y-60173161D01*
X180092309Y-70320485D02*
X180139928Y-70233400D01*
X180139928Y-70233400D02*
X180187547Y-70189857D01*
X180187547Y-70189857D02*
X180282785Y-70146314D01*
X180282785Y-70146314D02*
X180330404Y-70146314D01*
X180330404Y-70146314D02*
X180425642Y-70189857D01*
X180425642Y-70189857D02*
X180473261Y-70233400D01*
X180473261Y-70233400D02*
X180520880Y-70320485D01*
X180520880Y-70320485D02*
X180520880Y-70494657D01*
X180520880Y-70494657D02*
X180473261Y-70581743D01*
X180473261Y-70581743D02*
X180425642Y-70625285D01*
X180425642Y-70625285D02*
X180330404Y-70668828D01*
X180330404Y-70668828D02*
X180282785Y-70668828D01*
X180282785Y-70668828D02*
X180187547Y-70625285D01*
X180187547Y-70625285D02*
X180139928Y-70581743D01*
X180139928Y-70581743D02*
X180092309Y-70494657D01*
X180092309Y-70494657D02*
X180092309Y-70320485D01*
X180092309Y-70320485D02*
X180044690Y-70233400D01*
X180044690Y-70233400D02*
X179997071Y-70189857D01*
X179997071Y-70189857D02*
X179901833Y-70146314D01*
X179901833Y-70146314D02*
X179711357Y-70146314D01*
X179711357Y-70146314D02*
X179616119Y-70189857D01*
X179616119Y-70189857D02*
X179568500Y-70233400D01*
X179568500Y-70233400D02*
X179520880Y-70320485D01*
X179520880Y-70320485D02*
X179520880Y-70494657D01*
X179520880Y-70494657D02*
X179568500Y-70581743D01*
X179568500Y-70581743D02*
X179616119Y-70625285D01*
X179616119Y-70625285D02*
X179711357Y-70668828D01*
X179711357Y-70668828D02*
X179901833Y-70668828D01*
X179901833Y-70668828D02*
X179997071Y-70625285D01*
X179997071Y-70625285D02*
X180044690Y-70581743D01*
X180044690Y-70581743D02*
X180092309Y-70494657D01*
X175440880Y-70625285D02*
X175440880Y-70189857D01*
X175440880Y-70189857D02*
X174964690Y-70146314D01*
X174964690Y-70146314D02*
X175012309Y-70189857D01*
X175012309Y-70189857D02*
X175059928Y-70276943D01*
X175059928Y-70276943D02*
X175059928Y-70494657D01*
X175059928Y-70494657D02*
X175012309Y-70581743D01*
X175012309Y-70581743D02*
X174964690Y-70625285D01*
X174964690Y-70625285D02*
X174869452Y-70668828D01*
X174869452Y-70668828D02*
X174631357Y-70668828D01*
X174631357Y-70668828D02*
X174536119Y-70625285D01*
X174536119Y-70625285D02*
X174488500Y-70581743D01*
X174488500Y-70581743D02*
X174440880Y-70494657D01*
X174440880Y-70494657D02*
X174440880Y-70276943D01*
X174440880Y-70276943D02*
X174488500Y-70189857D01*
X174488500Y-70189857D02*
X174536119Y-70146314D01*
X171932595Y-58771081D02*
X171932595Y-59184739D01*
X171646880Y-58688350D02*
X172646880Y-58977910D01*
X172646880Y-58977910D02*
X171646880Y-59267470D01*
X171646880Y-60012053D02*
X171646880Y-59515664D01*
X171646880Y-59763859D02*
X172646880Y-59763859D01*
X172646880Y-59763859D02*
X172504023Y-59681127D01*
X172504023Y-59681127D02*
X172408785Y-59598396D01*
X172408785Y-59598396D02*
X172361166Y-59515664D01*
X185743833Y-58792514D02*
X185791452Y-58836057D01*
X185791452Y-58836057D02*
X185839071Y-58923143D01*
X185839071Y-58923143D02*
X185743833Y-59097314D01*
X185743833Y-59097314D02*
X185791452Y-59184400D01*
X185791452Y-59184400D02*
X185839071Y-59227943D01*
D11*
X129192633Y-58411819D02*
X128859300Y-57935628D01*
X128621205Y-58411819D02*
X128621205Y-57411819D01*
X128621205Y-57411819D02*
X129002157Y-57411819D01*
X129002157Y-57411819D02*
X129097395Y-57459438D01*
X129097395Y-57459438D02*
X129145014Y-57507057D01*
X129145014Y-57507057D02*
X129192633Y-57602295D01*
X129192633Y-57602295D02*
X129192633Y-57745152D01*
X129192633Y-57745152D02*
X129145014Y-57840390D01*
X129145014Y-57840390D02*
X129097395Y-57888009D01*
X129097395Y-57888009D02*
X129002157Y-57935628D01*
X129002157Y-57935628D02*
X128621205Y-57935628D01*
X130145014Y-58411819D02*
X129573586Y-58411819D01*
X129859300Y-58411819D02*
X129859300Y-57411819D01*
X129859300Y-57411819D02*
X129764062Y-57554676D01*
X129764062Y-57554676D02*
X129668824Y-57649914D01*
X129668824Y-57649914D02*
X129573586Y-57697533D01*
X142916667Y-64415000D02*
X143059524Y-64462619D01*
X143059524Y-64462619D02*
X143297619Y-64462619D01*
X143297619Y-64462619D02*
X143392857Y-64415000D01*
X143392857Y-64415000D02*
X143440476Y-64367380D01*
X143440476Y-64367380D02*
X143488095Y-64272142D01*
X143488095Y-64272142D02*
X143488095Y-64176904D01*
X143488095Y-64176904D02*
X143440476Y-64081666D01*
X143440476Y-64081666D02*
X143392857Y-64034047D01*
X143392857Y-64034047D02*
X143297619Y-63986428D01*
X143297619Y-63986428D02*
X143107143Y-63938809D01*
X143107143Y-63938809D02*
X143011905Y-63891190D01*
X143011905Y-63891190D02*
X142964286Y-63843571D01*
X142964286Y-63843571D02*
X142916667Y-63748333D01*
X142916667Y-63748333D02*
X142916667Y-63653095D01*
X142916667Y-63653095D02*
X142964286Y-63557857D01*
X142964286Y-63557857D02*
X143011905Y-63510238D01*
X143011905Y-63510238D02*
X143107143Y-63462619D01*
X143107143Y-63462619D02*
X143345238Y-63462619D01*
X143345238Y-63462619D02*
X143488095Y-63510238D01*
X143821429Y-63462619D02*
X144059524Y-64462619D01*
X144059524Y-64462619D02*
X144250000Y-63748333D01*
X144250000Y-63748333D02*
X144440476Y-64462619D01*
X144440476Y-64462619D02*
X144678572Y-63462619D01*
X145011905Y-63557857D02*
X145059524Y-63510238D01*
X145059524Y-63510238D02*
X145154762Y-63462619D01*
X145154762Y-63462619D02*
X145392857Y-63462619D01*
X145392857Y-63462619D02*
X145488095Y-63510238D01*
X145488095Y-63510238D02*
X145535714Y-63557857D01*
X145535714Y-63557857D02*
X145583333Y-63653095D01*
X145583333Y-63653095D02*
X145583333Y-63748333D01*
X145583333Y-63748333D02*
X145535714Y-63891190D01*
X145535714Y-63891190D02*
X144964286Y-64462619D01*
X144964286Y-64462619D02*
X145583333Y-64462619D01*
X137587095Y-47818619D02*
X137587095Y-48628142D01*
X137587095Y-48628142D02*
X137634714Y-48723380D01*
X137634714Y-48723380D02*
X137682333Y-48771000D01*
X137682333Y-48771000D02*
X137777571Y-48818619D01*
X137777571Y-48818619D02*
X137968047Y-48818619D01*
X137968047Y-48818619D02*
X138063285Y-48771000D01*
X138063285Y-48771000D02*
X138110904Y-48723380D01*
X138110904Y-48723380D02*
X138158523Y-48628142D01*
X138158523Y-48628142D02*
X138158523Y-47818619D01*
X138539476Y-47818619D02*
X139158523Y-47818619D01*
X139158523Y-47818619D02*
X138825190Y-48199571D01*
X138825190Y-48199571D02*
X138968047Y-48199571D01*
X138968047Y-48199571D02*
X139063285Y-48247190D01*
X139063285Y-48247190D02*
X139110904Y-48294809D01*
X139110904Y-48294809D02*
X139158523Y-48390047D01*
X139158523Y-48390047D02*
X139158523Y-48628142D01*
X139158523Y-48628142D02*
X139110904Y-48723380D01*
X139110904Y-48723380D02*
X139063285Y-48771000D01*
X139063285Y-48771000D02*
X138968047Y-48818619D01*
X138968047Y-48818619D02*
X138682333Y-48818619D01*
X138682333Y-48818619D02*
X138587095Y-48771000D01*
X138587095Y-48771000D02*
X138539476Y-48723380D01*
X147805761Y-36917904D02*
X147853380Y-36822666D01*
X147853380Y-36822666D02*
X147853380Y-36679809D01*
X147853380Y-36679809D02*
X147805761Y-36536952D01*
X147805761Y-36536952D02*
X147710523Y-36441714D01*
X147710523Y-36441714D02*
X147615285Y-36394095D01*
X147615285Y-36394095D02*
X147424809Y-36346476D01*
X147424809Y-36346476D02*
X147281952Y-36346476D01*
X147281952Y-36346476D02*
X147091476Y-36394095D01*
X147091476Y-36394095D02*
X146996238Y-36441714D01*
X146996238Y-36441714D02*
X146901000Y-36536952D01*
X146901000Y-36536952D02*
X146853380Y-36679809D01*
X146853380Y-36679809D02*
X146853380Y-36775047D01*
X146853380Y-36775047D02*
X146901000Y-36917904D01*
X146901000Y-36917904D02*
X146948619Y-36965523D01*
X146948619Y-36965523D02*
X147281952Y-36965523D01*
X147281952Y-36965523D02*
X147281952Y-36775047D01*
X146853380Y-37394095D02*
X147853380Y-37394095D01*
X147853380Y-37394095D02*
X146853380Y-37965523D01*
X146853380Y-37965523D02*
X147853380Y-37965523D01*
X146853380Y-38441714D02*
X147853380Y-38441714D01*
X147853380Y-38441714D02*
X147853380Y-38679809D01*
X147853380Y-38679809D02*
X147805761Y-38822666D01*
X147805761Y-38822666D02*
X147710523Y-38917904D01*
X147710523Y-38917904D02*
X147615285Y-38965523D01*
X147615285Y-38965523D02*
X147424809Y-39013142D01*
X147424809Y-39013142D02*
X147281952Y-39013142D01*
X147281952Y-39013142D02*
X147091476Y-38965523D01*
X147091476Y-38965523D02*
X146996238Y-38917904D01*
X146996238Y-38917904D02*
X146901000Y-38822666D01*
X146901000Y-38822666D02*
X146853380Y-38679809D01*
X146853380Y-38679809D02*
X146853380Y-38441714D01*
X124563284Y-45447904D02*
X125039474Y-45447904D01*
X124468046Y-45733619D02*
X124801379Y-44733619D01*
X124801379Y-44733619D02*
X125134712Y-45733619D01*
X125896617Y-45733619D02*
X125896617Y-44733619D01*
X125896617Y-45686000D02*
X125801379Y-45733619D01*
X125801379Y-45733619D02*
X125610903Y-45733619D01*
X125610903Y-45733619D02*
X125515665Y-45686000D01*
X125515665Y-45686000D02*
X125468046Y-45638380D01*
X125468046Y-45638380D02*
X125420427Y-45543142D01*
X125420427Y-45543142D02*
X125420427Y-45257428D01*
X125420427Y-45257428D02*
X125468046Y-45162190D01*
X125468046Y-45162190D02*
X125515665Y-45114571D01*
X125515665Y-45114571D02*
X125610903Y-45066952D01*
X125610903Y-45066952D02*
X125801379Y-45066952D01*
X125801379Y-45066952D02*
X125896617Y-45114571D01*
X126801379Y-45733619D02*
X126801379Y-45209809D01*
X126801379Y-45209809D02*
X126753760Y-45114571D01*
X126753760Y-45114571D02*
X126658522Y-45066952D01*
X126658522Y-45066952D02*
X126468046Y-45066952D01*
X126468046Y-45066952D02*
X126372808Y-45114571D01*
X126801379Y-45686000D02*
X126706141Y-45733619D01*
X126706141Y-45733619D02*
X126468046Y-45733619D01*
X126468046Y-45733619D02*
X126372808Y-45686000D01*
X126372808Y-45686000D02*
X126325189Y-45590761D01*
X126325189Y-45590761D02*
X126325189Y-45495523D01*
X126325189Y-45495523D02*
X126372808Y-45400285D01*
X126372808Y-45400285D02*
X126468046Y-45352666D01*
X126468046Y-45352666D02*
X126706141Y-45352666D01*
X126706141Y-45352666D02*
X126801379Y-45305047D01*
X127134713Y-45066952D02*
X127515665Y-45066952D01*
X127277570Y-45733619D02*
X127277570Y-44876476D01*
X127277570Y-44876476D02*
X127325189Y-44781238D01*
X127325189Y-44781238D02*
X127420427Y-44733619D01*
X127420427Y-44733619D02*
X127515665Y-44733619D01*
X127848999Y-45733619D02*
X127848999Y-45066952D01*
X127848999Y-45257428D02*
X127896618Y-45162190D01*
X127896618Y-45162190D02*
X127944237Y-45114571D01*
X127944237Y-45114571D02*
X128039475Y-45066952D01*
X128039475Y-45066952D02*
X128134713Y-45066952D01*
X128896618Y-45066952D02*
X128896618Y-45733619D01*
X128468047Y-45066952D02*
X128468047Y-45590761D01*
X128468047Y-45590761D02*
X128515666Y-45686000D01*
X128515666Y-45686000D02*
X128610904Y-45733619D01*
X128610904Y-45733619D02*
X128753761Y-45733619D01*
X128753761Y-45733619D02*
X128848999Y-45686000D01*
X128848999Y-45686000D02*
X128896618Y-45638380D01*
X129372809Y-45733619D02*
X129372809Y-45066952D01*
X129372809Y-44733619D02*
X129325190Y-44781238D01*
X129325190Y-44781238D02*
X129372809Y-44828857D01*
X129372809Y-44828857D02*
X129420428Y-44781238D01*
X129420428Y-44781238D02*
X129372809Y-44733619D01*
X129372809Y-44733619D02*
X129372809Y-44828857D01*
X129706142Y-45066952D02*
X130087094Y-45066952D01*
X129848999Y-44733619D02*
X129848999Y-45590761D01*
X129848999Y-45590761D02*
X129896618Y-45686000D01*
X129896618Y-45686000D02*
X129991856Y-45733619D01*
X129991856Y-45733619D02*
X130087094Y-45733619D01*
X131706142Y-45733619D02*
X131134714Y-45733619D01*
X131420428Y-45733619D02*
X131420428Y-44733619D01*
X131420428Y-44733619D02*
X131325190Y-44876476D01*
X131325190Y-44876476D02*
X131229952Y-44971714D01*
X131229952Y-44971714D02*
X131134714Y-45019333D01*
X132134714Y-45638380D02*
X132182333Y-45686000D01*
X132182333Y-45686000D02*
X132134714Y-45733619D01*
X132134714Y-45733619D02*
X132087095Y-45686000D01*
X132087095Y-45686000D02*
X132134714Y-45638380D01*
X132134714Y-45638380D02*
X132134714Y-45733619D01*
X132515666Y-44733619D02*
X133134713Y-44733619D01*
X133134713Y-44733619D02*
X132801380Y-45114571D01*
X132801380Y-45114571D02*
X132944237Y-45114571D01*
X132944237Y-45114571D02*
X133039475Y-45162190D01*
X133039475Y-45162190D02*
X133087094Y-45209809D01*
X133087094Y-45209809D02*
X133134713Y-45305047D01*
X133134713Y-45305047D02*
X133134713Y-45543142D01*
X133134713Y-45543142D02*
X133087094Y-45638380D01*
X133087094Y-45638380D02*
X133039475Y-45686000D01*
X133039475Y-45686000D02*
X132944237Y-45733619D01*
X132944237Y-45733619D02*
X132658523Y-45733619D01*
X132658523Y-45733619D02*
X132563285Y-45686000D01*
X132563285Y-45686000D02*
X132515666Y-45638380D01*
X134848999Y-45733619D02*
X134277571Y-45733619D01*
X134563285Y-45733619D02*
X134563285Y-44733619D01*
X134563285Y-44733619D02*
X134468047Y-44876476D01*
X134468047Y-44876476D02*
X134372809Y-44971714D01*
X134372809Y-44971714D02*
X134277571Y-45019333D01*
X135229952Y-44828857D02*
X135277571Y-44781238D01*
X135277571Y-44781238D02*
X135372809Y-44733619D01*
X135372809Y-44733619D02*
X135610904Y-44733619D01*
X135610904Y-44733619D02*
X135706142Y-44781238D01*
X135706142Y-44781238D02*
X135753761Y-44828857D01*
X135753761Y-44828857D02*
X135801380Y-44924095D01*
X135801380Y-44924095D02*
X135801380Y-45019333D01*
X135801380Y-45019333D02*
X135753761Y-45162190D01*
X135753761Y-45162190D02*
X135182333Y-45733619D01*
X135182333Y-45733619D02*
X135801380Y-45733619D01*
X136372809Y-45162190D02*
X136277571Y-45114571D01*
X136277571Y-45114571D02*
X136229952Y-45066952D01*
X136229952Y-45066952D02*
X136182333Y-44971714D01*
X136182333Y-44971714D02*
X136182333Y-44924095D01*
X136182333Y-44924095D02*
X136229952Y-44828857D01*
X136229952Y-44828857D02*
X136277571Y-44781238D01*
X136277571Y-44781238D02*
X136372809Y-44733619D01*
X136372809Y-44733619D02*
X136563285Y-44733619D01*
X136563285Y-44733619D02*
X136658523Y-44781238D01*
X136658523Y-44781238D02*
X136706142Y-44828857D01*
X136706142Y-44828857D02*
X136753761Y-44924095D01*
X136753761Y-44924095D02*
X136753761Y-44971714D01*
X136753761Y-44971714D02*
X136706142Y-45066952D01*
X136706142Y-45066952D02*
X136658523Y-45114571D01*
X136658523Y-45114571D02*
X136563285Y-45162190D01*
X136563285Y-45162190D02*
X136372809Y-45162190D01*
X136372809Y-45162190D02*
X136277571Y-45209809D01*
X136277571Y-45209809D02*
X136229952Y-45257428D01*
X136229952Y-45257428D02*
X136182333Y-45352666D01*
X136182333Y-45352666D02*
X136182333Y-45543142D01*
X136182333Y-45543142D02*
X136229952Y-45638380D01*
X136229952Y-45638380D02*
X136277571Y-45686000D01*
X136277571Y-45686000D02*
X136372809Y-45733619D01*
X136372809Y-45733619D02*
X136563285Y-45733619D01*
X136563285Y-45733619D02*
X136658523Y-45686000D01*
X136658523Y-45686000D02*
X136706142Y-45638380D01*
X136706142Y-45638380D02*
X136753761Y-45543142D01*
X136753761Y-45543142D02*
X136753761Y-45352666D01*
X136753761Y-45352666D02*
X136706142Y-45257428D01*
X136706142Y-45257428D02*
X136658523Y-45209809D01*
X136658523Y-45209809D02*
X136563285Y-45162190D01*
X137849000Y-45733619D02*
X138372809Y-45066952D01*
X137849000Y-45066952D02*
X138372809Y-45733619D01*
X139944238Y-44733619D02*
X139753762Y-44733619D01*
X139753762Y-44733619D02*
X139658524Y-44781238D01*
X139658524Y-44781238D02*
X139610905Y-44828857D01*
X139610905Y-44828857D02*
X139515667Y-44971714D01*
X139515667Y-44971714D02*
X139468048Y-45162190D01*
X139468048Y-45162190D02*
X139468048Y-45543142D01*
X139468048Y-45543142D02*
X139515667Y-45638380D01*
X139515667Y-45638380D02*
X139563286Y-45686000D01*
X139563286Y-45686000D02*
X139658524Y-45733619D01*
X139658524Y-45733619D02*
X139849000Y-45733619D01*
X139849000Y-45733619D02*
X139944238Y-45686000D01*
X139944238Y-45686000D02*
X139991857Y-45638380D01*
X139991857Y-45638380D02*
X140039476Y-45543142D01*
X140039476Y-45543142D02*
X140039476Y-45305047D01*
X140039476Y-45305047D02*
X139991857Y-45209809D01*
X139991857Y-45209809D02*
X139944238Y-45162190D01*
X139944238Y-45162190D02*
X139849000Y-45114571D01*
X139849000Y-45114571D02*
X139658524Y-45114571D01*
X139658524Y-45114571D02*
X139563286Y-45162190D01*
X139563286Y-45162190D02*
X139515667Y-45209809D01*
X139515667Y-45209809D02*
X139468048Y-45305047D01*
X140896619Y-45066952D02*
X140896619Y-45733619D01*
X140658524Y-44686000D02*
X140420429Y-45400285D01*
X140420429Y-45400285D02*
X141039476Y-45400285D01*
X142372810Y-44733619D02*
X142563286Y-44733619D01*
X142563286Y-44733619D02*
X142658524Y-44781238D01*
X142658524Y-44781238D02*
X142753762Y-44876476D01*
X142753762Y-44876476D02*
X142801381Y-45066952D01*
X142801381Y-45066952D02*
X142801381Y-45400285D01*
X142801381Y-45400285D02*
X142753762Y-45590761D01*
X142753762Y-45590761D02*
X142658524Y-45686000D01*
X142658524Y-45686000D02*
X142563286Y-45733619D01*
X142563286Y-45733619D02*
X142372810Y-45733619D01*
X142372810Y-45733619D02*
X142277572Y-45686000D01*
X142277572Y-45686000D02*
X142182334Y-45590761D01*
X142182334Y-45590761D02*
X142134715Y-45400285D01*
X142134715Y-45400285D02*
X142134715Y-45066952D01*
X142134715Y-45066952D02*
X142182334Y-44876476D01*
X142182334Y-44876476D02*
X142277572Y-44781238D01*
X142277572Y-44781238D02*
X142372810Y-44733619D01*
X143706143Y-45733619D02*
X143229953Y-45733619D01*
X143229953Y-45733619D02*
X143229953Y-44733619D01*
X144039477Y-45209809D02*
X144372810Y-45209809D01*
X144515667Y-45733619D02*
X144039477Y-45733619D01*
X144039477Y-45733619D02*
X144039477Y-44733619D01*
X144039477Y-44733619D02*
X144515667Y-44733619D01*
X144944239Y-45733619D02*
X144944239Y-44733619D01*
X144944239Y-44733619D02*
X145182334Y-44733619D01*
X145182334Y-44733619D02*
X145325191Y-44781238D01*
X145325191Y-44781238D02*
X145420429Y-44876476D01*
X145420429Y-44876476D02*
X145468048Y-44971714D01*
X145468048Y-44971714D02*
X145515667Y-45162190D01*
X145515667Y-45162190D02*
X145515667Y-45305047D01*
X145515667Y-45305047D02*
X145468048Y-45495523D01*
X145468048Y-45495523D02*
X145420429Y-45590761D01*
X145420429Y-45590761D02*
X145325191Y-45686000D01*
X145325191Y-45686000D02*
X145182334Y-45733619D01*
X145182334Y-45733619D02*
X144944239Y-45733619D01*
X146896620Y-44733619D02*
X147087096Y-44733619D01*
X147087096Y-44733619D02*
X147182334Y-44781238D01*
X147182334Y-44781238D02*
X147277572Y-44876476D01*
X147277572Y-44876476D02*
X147325191Y-45066952D01*
X147325191Y-45066952D02*
X147325191Y-45400285D01*
X147325191Y-45400285D02*
X147277572Y-45590761D01*
X147277572Y-45590761D02*
X147182334Y-45686000D01*
X147182334Y-45686000D02*
X147087096Y-45733619D01*
X147087096Y-45733619D02*
X146896620Y-45733619D01*
X146896620Y-45733619D02*
X146801382Y-45686000D01*
X146801382Y-45686000D02*
X146706144Y-45590761D01*
X146706144Y-45590761D02*
X146658525Y-45400285D01*
X146658525Y-45400285D02*
X146658525Y-45066952D01*
X146658525Y-45066952D02*
X146706144Y-44876476D01*
X146706144Y-44876476D02*
X146801382Y-44781238D01*
X146801382Y-44781238D02*
X146896620Y-44733619D01*
X147753763Y-45733619D02*
X147753763Y-45066952D01*
X147753763Y-45257428D02*
X147801382Y-45162190D01*
X147801382Y-45162190D02*
X147849001Y-45114571D01*
X147849001Y-45114571D02*
X147944239Y-45066952D01*
X147944239Y-45066952D02*
X148039477Y-45066952D01*
X148372811Y-45733619D02*
X148372811Y-45066952D01*
X148372811Y-44733619D02*
X148325192Y-44781238D01*
X148325192Y-44781238D02*
X148372811Y-44828857D01*
X148372811Y-44828857D02*
X148420430Y-44781238D01*
X148420430Y-44781238D02*
X148372811Y-44733619D01*
X148372811Y-44733619D02*
X148372811Y-44828857D01*
X149277572Y-45066952D02*
X149277572Y-45876476D01*
X149277572Y-45876476D02*
X149229953Y-45971714D01*
X149229953Y-45971714D02*
X149182334Y-46019333D01*
X149182334Y-46019333D02*
X149087096Y-46066952D01*
X149087096Y-46066952D02*
X148944239Y-46066952D01*
X148944239Y-46066952D02*
X148849001Y-46019333D01*
X149277572Y-45686000D02*
X149182334Y-45733619D01*
X149182334Y-45733619D02*
X148991858Y-45733619D01*
X148991858Y-45733619D02*
X148896620Y-45686000D01*
X148896620Y-45686000D02*
X148849001Y-45638380D01*
X148849001Y-45638380D02*
X148801382Y-45543142D01*
X148801382Y-45543142D02*
X148801382Y-45257428D01*
X148801382Y-45257428D02*
X148849001Y-45162190D01*
X148849001Y-45162190D02*
X148896620Y-45114571D01*
X148896620Y-45114571D02*
X148991858Y-45066952D01*
X148991858Y-45066952D02*
X149182334Y-45066952D01*
X149182334Y-45066952D02*
X149277572Y-45114571D01*
X149753763Y-45733619D02*
X149753763Y-45066952D01*
X149753763Y-44733619D02*
X149706144Y-44781238D01*
X149706144Y-44781238D02*
X149753763Y-44828857D01*
X149753763Y-44828857D02*
X149801382Y-44781238D01*
X149801382Y-44781238D02*
X149753763Y-44733619D01*
X149753763Y-44733619D02*
X149753763Y-44828857D01*
X150229953Y-45066952D02*
X150229953Y-45733619D01*
X150229953Y-45162190D02*
X150277572Y-45114571D01*
X150277572Y-45114571D02*
X150372810Y-45066952D01*
X150372810Y-45066952D02*
X150515667Y-45066952D01*
X150515667Y-45066952D02*
X150610905Y-45114571D01*
X150610905Y-45114571D02*
X150658524Y-45209809D01*
X150658524Y-45209809D02*
X150658524Y-45733619D01*
X151563286Y-45733619D02*
X151563286Y-45209809D01*
X151563286Y-45209809D02*
X151515667Y-45114571D01*
X151515667Y-45114571D02*
X151420429Y-45066952D01*
X151420429Y-45066952D02*
X151229953Y-45066952D01*
X151229953Y-45066952D02*
X151134715Y-45114571D01*
X151563286Y-45686000D02*
X151468048Y-45733619D01*
X151468048Y-45733619D02*
X151229953Y-45733619D01*
X151229953Y-45733619D02*
X151134715Y-45686000D01*
X151134715Y-45686000D02*
X151087096Y-45590761D01*
X151087096Y-45590761D02*
X151087096Y-45495523D01*
X151087096Y-45495523D02*
X151134715Y-45400285D01*
X151134715Y-45400285D02*
X151229953Y-45352666D01*
X151229953Y-45352666D02*
X151468048Y-45352666D01*
X151468048Y-45352666D02*
X151563286Y-45305047D01*
X152182334Y-45733619D02*
X152087096Y-45686000D01*
X152087096Y-45686000D02*
X152039477Y-45590761D01*
X152039477Y-45590761D02*
X152039477Y-44733619D01*
X145313380Y-36251238D02*
X144313380Y-36584571D01*
X144313380Y-36584571D02*
X145313380Y-36917904D01*
X144313380Y-37251238D02*
X144980047Y-37251238D01*
X145313380Y-37251238D02*
X145265761Y-37203619D01*
X145265761Y-37203619D02*
X145218142Y-37251238D01*
X145218142Y-37251238D02*
X145265761Y-37298857D01*
X145265761Y-37298857D02*
X145313380Y-37251238D01*
X145313380Y-37251238D02*
X145218142Y-37251238D01*
X144980047Y-37727428D02*
X144313380Y-37727428D01*
X144884809Y-37727428D02*
X144932428Y-37775047D01*
X144932428Y-37775047D02*
X144980047Y-37870285D01*
X144980047Y-37870285D02*
X144980047Y-38013142D01*
X144980047Y-38013142D02*
X144932428Y-38108380D01*
X144932428Y-38108380D02*
X144837190Y-38155999D01*
X144837190Y-38155999D02*
X144313380Y-38155999D01*
X136439380Y-36965523D02*
X136915571Y-36632190D01*
X136439380Y-36394095D02*
X137439380Y-36394095D01*
X137439380Y-36394095D02*
X137439380Y-36775047D01*
X137439380Y-36775047D02*
X137391761Y-36870285D01*
X137391761Y-36870285D02*
X137344142Y-36917904D01*
X137344142Y-36917904D02*
X137248904Y-36965523D01*
X137248904Y-36965523D02*
X137106047Y-36965523D01*
X137106047Y-36965523D02*
X137010809Y-36917904D01*
X137010809Y-36917904D02*
X136963190Y-36870285D01*
X136963190Y-36870285D02*
X136915571Y-36775047D01*
X136915571Y-36775047D02*
X136915571Y-36394095D01*
X136487000Y-37346476D02*
X136439380Y-37489333D01*
X136439380Y-37489333D02*
X136439380Y-37727428D01*
X136439380Y-37727428D02*
X136487000Y-37822666D01*
X136487000Y-37822666D02*
X136534619Y-37870285D01*
X136534619Y-37870285D02*
X136629857Y-37917904D01*
X136629857Y-37917904D02*
X136725095Y-37917904D01*
X136725095Y-37917904D02*
X136820333Y-37870285D01*
X136820333Y-37870285D02*
X136867952Y-37822666D01*
X136867952Y-37822666D02*
X136915571Y-37727428D01*
X136915571Y-37727428D02*
X136963190Y-37536952D01*
X136963190Y-37536952D02*
X137010809Y-37441714D01*
X137010809Y-37441714D02*
X137058428Y-37394095D01*
X137058428Y-37394095D02*
X137153666Y-37346476D01*
X137153666Y-37346476D02*
X137248904Y-37346476D01*
X137248904Y-37346476D02*
X137344142Y-37394095D01*
X137344142Y-37394095D02*
X137391761Y-37441714D01*
X137391761Y-37441714D02*
X137439380Y-37536952D01*
X137439380Y-37536952D02*
X137439380Y-37775047D01*
X137439380Y-37775047D02*
X137391761Y-37917904D01*
X137439380Y-38203619D02*
X137439380Y-38775047D01*
X136439380Y-38489333D02*
X137439380Y-38489333D01*
X142773380Y-36298857D02*
X142773380Y-36917904D01*
X142773380Y-36917904D02*
X142392428Y-36584571D01*
X142392428Y-36584571D02*
X142392428Y-36727428D01*
X142392428Y-36727428D02*
X142344809Y-36822666D01*
X142344809Y-36822666D02*
X142297190Y-36870285D01*
X142297190Y-36870285D02*
X142201952Y-36917904D01*
X142201952Y-36917904D02*
X141963857Y-36917904D01*
X141963857Y-36917904D02*
X141868619Y-36870285D01*
X141868619Y-36870285D02*
X141821000Y-36822666D01*
X141821000Y-36822666D02*
X141773380Y-36727428D01*
X141773380Y-36727428D02*
X141773380Y-36441714D01*
X141773380Y-36441714D02*
X141821000Y-36346476D01*
X141821000Y-36346476D02*
X141868619Y-36298857D01*
X142440047Y-37251238D02*
X141773380Y-37489333D01*
X141773380Y-37489333D02*
X142440047Y-37727428D01*
X142773380Y-38013143D02*
X142773380Y-38632190D01*
X142773380Y-38632190D02*
X142392428Y-38298857D01*
X142392428Y-38298857D02*
X142392428Y-38441714D01*
X142392428Y-38441714D02*
X142344809Y-38536952D01*
X142344809Y-38536952D02*
X142297190Y-38584571D01*
X142297190Y-38584571D02*
X142201952Y-38632190D01*
X142201952Y-38632190D02*
X141963857Y-38632190D01*
X141963857Y-38632190D02*
X141868619Y-38584571D01*
X141868619Y-38584571D02*
X141821000Y-38536952D01*
X141821000Y-38536952D02*
X141773380Y-38441714D01*
X141773380Y-38441714D02*
X141773380Y-38156000D01*
X141773380Y-38156000D02*
X141821000Y-38060762D01*
X141821000Y-38060762D02*
X141868619Y-38013143D01*
X139074619Y-36965523D02*
X139027000Y-36917904D01*
X139027000Y-36917904D02*
X138979380Y-36775047D01*
X138979380Y-36775047D02*
X138979380Y-36679809D01*
X138979380Y-36679809D02*
X139027000Y-36536952D01*
X139027000Y-36536952D02*
X139122238Y-36441714D01*
X139122238Y-36441714D02*
X139217476Y-36394095D01*
X139217476Y-36394095D02*
X139407952Y-36346476D01*
X139407952Y-36346476D02*
X139550809Y-36346476D01*
X139550809Y-36346476D02*
X139741285Y-36394095D01*
X139741285Y-36394095D02*
X139836523Y-36441714D01*
X139836523Y-36441714D02*
X139931761Y-36536952D01*
X139931761Y-36536952D02*
X139979380Y-36679809D01*
X139979380Y-36679809D02*
X139979380Y-36775047D01*
X139979380Y-36775047D02*
X139931761Y-36917904D01*
X139931761Y-36917904D02*
X139884142Y-36965523D01*
X139027000Y-37346476D02*
X138979380Y-37489333D01*
X138979380Y-37489333D02*
X138979380Y-37727428D01*
X138979380Y-37727428D02*
X139027000Y-37822666D01*
X139027000Y-37822666D02*
X139074619Y-37870285D01*
X139074619Y-37870285D02*
X139169857Y-37917904D01*
X139169857Y-37917904D02*
X139265095Y-37917904D01*
X139265095Y-37917904D02*
X139360333Y-37870285D01*
X139360333Y-37870285D02*
X139407952Y-37822666D01*
X139407952Y-37822666D02*
X139455571Y-37727428D01*
X139455571Y-37727428D02*
X139503190Y-37536952D01*
X139503190Y-37536952D02*
X139550809Y-37441714D01*
X139550809Y-37441714D02*
X139598428Y-37394095D01*
X139598428Y-37394095D02*
X139693666Y-37346476D01*
X139693666Y-37346476D02*
X139788904Y-37346476D01*
X139788904Y-37346476D02*
X139884142Y-37394095D01*
X139884142Y-37394095D02*
X139931761Y-37441714D01*
X139931761Y-37441714D02*
X139979380Y-37536952D01*
X139979380Y-37536952D02*
X139979380Y-37775047D01*
X139979380Y-37775047D02*
X139931761Y-37917904D01*
D10*
X129073380Y-36394095D02*
X130073380Y-36394095D01*
X130073380Y-36394095D02*
X130073380Y-36632190D01*
X130073380Y-36632190D02*
X130025761Y-36775047D01*
X130025761Y-36775047D02*
X129930523Y-36870285D01*
X129930523Y-36870285D02*
X129835285Y-36917904D01*
X129835285Y-36917904D02*
X129644809Y-36965523D01*
X129644809Y-36965523D02*
X129501952Y-36965523D01*
X129501952Y-36965523D02*
X129311476Y-36917904D01*
X129311476Y-36917904D02*
X129216238Y-36870285D01*
X129216238Y-36870285D02*
X129121000Y-36775047D01*
X129121000Y-36775047D02*
X129073380Y-36632190D01*
X129073380Y-36632190D02*
X129073380Y-36394095D01*
X129073380Y-37822666D02*
X129597190Y-37822666D01*
X129597190Y-37822666D02*
X129692428Y-37775047D01*
X129692428Y-37775047D02*
X129740047Y-37679809D01*
X129740047Y-37679809D02*
X129740047Y-37489333D01*
X129740047Y-37489333D02*
X129692428Y-37394095D01*
X129121000Y-37822666D02*
X129073380Y-37727428D01*
X129073380Y-37727428D02*
X129073380Y-37489333D01*
X129073380Y-37489333D02*
X129121000Y-37394095D01*
X129121000Y-37394095D02*
X129216238Y-37346476D01*
X129216238Y-37346476D02*
X129311476Y-37346476D01*
X129311476Y-37346476D02*
X129406714Y-37394095D01*
X129406714Y-37394095D02*
X129454333Y-37489333D01*
X129454333Y-37489333D02*
X129454333Y-37727428D01*
X129454333Y-37727428D02*
X129501952Y-37822666D01*
X129740047Y-38156000D02*
X129740047Y-38536952D01*
X130073380Y-38298857D02*
X129216238Y-38298857D01*
X129216238Y-38298857D02*
X129121000Y-38346476D01*
X129121000Y-38346476D02*
X129073380Y-38441714D01*
X129073380Y-38441714D02*
X129073380Y-38536952D01*
X129073380Y-39298857D02*
X129597190Y-39298857D01*
X129597190Y-39298857D02*
X129692428Y-39251238D01*
X129692428Y-39251238D02*
X129740047Y-39156000D01*
X129740047Y-39156000D02*
X129740047Y-38965524D01*
X129740047Y-38965524D02*
X129692428Y-38870286D01*
X129121000Y-39298857D02*
X129073380Y-39203619D01*
X129073380Y-39203619D02*
X129073380Y-38965524D01*
X129073380Y-38965524D02*
X129121000Y-38870286D01*
X129121000Y-38870286D02*
X129216238Y-38822667D01*
X129216238Y-38822667D02*
X129311476Y-38822667D01*
X129311476Y-38822667D02*
X129406714Y-38870286D01*
X129406714Y-38870286D02*
X129454333Y-38965524D01*
X129454333Y-38965524D02*
X129454333Y-39203619D01*
X129454333Y-39203619D02*
X129501952Y-39298857D01*
D11*
X131708619Y-36965523D02*
X131661000Y-36917904D01*
X131661000Y-36917904D02*
X131613380Y-36775047D01*
X131613380Y-36775047D02*
X131613380Y-36679809D01*
X131613380Y-36679809D02*
X131661000Y-36536952D01*
X131661000Y-36536952D02*
X131756238Y-36441714D01*
X131756238Y-36441714D02*
X131851476Y-36394095D01*
X131851476Y-36394095D02*
X132041952Y-36346476D01*
X132041952Y-36346476D02*
X132184809Y-36346476D01*
X132184809Y-36346476D02*
X132375285Y-36394095D01*
X132375285Y-36394095D02*
X132470523Y-36441714D01*
X132470523Y-36441714D02*
X132565761Y-36536952D01*
X132565761Y-36536952D02*
X132613380Y-36679809D01*
X132613380Y-36679809D02*
X132613380Y-36775047D01*
X132613380Y-36775047D02*
X132565761Y-36917904D01*
X132565761Y-36917904D02*
X132518142Y-36965523D01*
X131613380Y-37536952D02*
X131661000Y-37441714D01*
X131661000Y-37441714D02*
X131756238Y-37394095D01*
X131756238Y-37394095D02*
X132613380Y-37394095D01*
X131613380Y-37917905D02*
X132613380Y-37917905D01*
X131994333Y-38013143D02*
X131613380Y-38298857D01*
X132280047Y-38298857D02*
X131899095Y-37917905D01*
X133947000Y-36346476D02*
X133899380Y-36489333D01*
X133899380Y-36489333D02*
X133899380Y-36727428D01*
X133899380Y-36727428D02*
X133947000Y-36822666D01*
X133947000Y-36822666D02*
X133994619Y-36870285D01*
X133994619Y-36870285D02*
X134089857Y-36917904D01*
X134089857Y-36917904D02*
X134185095Y-36917904D01*
X134185095Y-36917904D02*
X134280333Y-36870285D01*
X134280333Y-36870285D02*
X134327952Y-36822666D01*
X134327952Y-36822666D02*
X134375571Y-36727428D01*
X134375571Y-36727428D02*
X134423190Y-36536952D01*
X134423190Y-36536952D02*
X134470809Y-36441714D01*
X134470809Y-36441714D02*
X134518428Y-36394095D01*
X134518428Y-36394095D02*
X134613666Y-36346476D01*
X134613666Y-36346476D02*
X134708904Y-36346476D01*
X134708904Y-36346476D02*
X134804142Y-36394095D01*
X134804142Y-36394095D02*
X134851761Y-36441714D01*
X134851761Y-36441714D02*
X134899380Y-36536952D01*
X134899380Y-36536952D02*
X134899380Y-36775047D01*
X134899380Y-36775047D02*
X134851761Y-36917904D01*
X134185095Y-37298857D02*
X134185095Y-37775047D01*
X133899380Y-37203619D02*
X134899380Y-37536952D01*
X134899380Y-37536952D02*
X133899380Y-37870285D01*
X134899380Y-38394095D02*
X134899380Y-38489333D01*
X134899380Y-38489333D02*
X134851761Y-38584571D01*
X134851761Y-38584571D02*
X134804142Y-38632190D01*
X134804142Y-38632190D02*
X134708904Y-38679809D01*
X134708904Y-38679809D02*
X134518428Y-38727428D01*
X134518428Y-38727428D02*
X134280333Y-38727428D01*
X134280333Y-38727428D02*
X134089857Y-38679809D01*
X134089857Y-38679809D02*
X133994619Y-38632190D01*
X133994619Y-38632190D02*
X133947000Y-38584571D01*
X133947000Y-38584571D02*
X133899380Y-38489333D01*
X133899380Y-38489333D02*
X133899380Y-38394095D01*
X133899380Y-38394095D02*
X133947000Y-38298857D01*
X133947000Y-38298857D02*
X133994619Y-38251238D01*
X133994619Y-38251238D02*
X134089857Y-38203619D01*
X134089857Y-38203619D02*
X134280333Y-38156000D01*
X134280333Y-38156000D02*
X134518428Y-38156000D01*
X134518428Y-38156000D02*
X134708904Y-38203619D01*
X134708904Y-38203619D02*
X134804142Y-38251238D01*
X134804142Y-38251238D02*
X134851761Y-38298857D01*
X134851761Y-38298857D02*
X134899380Y-38394095D01*
X134947000Y-39870285D02*
X133661285Y-39013143D01*
X133899380Y-40203619D02*
X134899380Y-40203619D01*
X134899380Y-40203619D02*
X134899380Y-40441714D01*
X134899380Y-40441714D02*
X134851761Y-40584571D01*
X134851761Y-40584571D02*
X134756523Y-40679809D01*
X134756523Y-40679809D02*
X134661285Y-40727428D01*
X134661285Y-40727428D02*
X134470809Y-40775047D01*
X134470809Y-40775047D02*
X134327952Y-40775047D01*
X134327952Y-40775047D02*
X134137476Y-40727428D01*
X134137476Y-40727428D02*
X134042238Y-40679809D01*
X134042238Y-40679809D02*
X133947000Y-40584571D01*
X133947000Y-40584571D02*
X133899380Y-40441714D01*
X133899380Y-40441714D02*
X133899380Y-40203619D01*
X133994619Y-41775047D02*
X133947000Y-41727428D01*
X133947000Y-41727428D02*
X133899380Y-41584571D01*
X133899380Y-41584571D02*
X133899380Y-41489333D01*
X133899380Y-41489333D02*
X133947000Y-41346476D01*
X133947000Y-41346476D02*
X134042238Y-41251238D01*
X134042238Y-41251238D02*
X134137476Y-41203619D01*
X134137476Y-41203619D02*
X134327952Y-41156000D01*
X134327952Y-41156000D02*
X134470809Y-41156000D01*
X134470809Y-41156000D02*
X134661285Y-41203619D01*
X134661285Y-41203619D02*
X134756523Y-41251238D01*
X134756523Y-41251238D02*
X134851761Y-41346476D01*
X134851761Y-41346476D02*
X134899380Y-41489333D01*
X134899380Y-41489333D02*
X134899380Y-41584571D01*
X134899380Y-41584571D02*
X134851761Y-41727428D01*
X134851761Y-41727428D02*
X134804142Y-41775047D01*
X190666666Y-46462619D02*
X190666666Y-47176904D01*
X190666666Y-47176904D02*
X190619047Y-47319761D01*
X190619047Y-47319761D02*
X190523809Y-47415000D01*
X190523809Y-47415000D02*
X190380952Y-47462619D01*
X190380952Y-47462619D02*
X190285714Y-47462619D01*
X191666666Y-47462619D02*
X191095238Y-47462619D01*
X191380952Y-47462619D02*
X191380952Y-46462619D01*
X191380952Y-46462619D02*
X191285714Y-46605476D01*
X191285714Y-46605476D02*
X191190476Y-46700714D01*
X191190476Y-46700714D02*
X191095238Y-46748333D01*
X146865333Y-58462619D02*
X146532000Y-57986428D01*
X146293905Y-58462619D02*
X146293905Y-57462619D01*
X146293905Y-57462619D02*
X146674857Y-57462619D01*
X146674857Y-57462619D02*
X146770095Y-57510238D01*
X146770095Y-57510238D02*
X146817714Y-57557857D01*
X146817714Y-57557857D02*
X146865333Y-57653095D01*
X146865333Y-57653095D02*
X146865333Y-57795952D01*
X146865333Y-57795952D02*
X146817714Y-57891190D01*
X146817714Y-57891190D02*
X146770095Y-57938809D01*
X146770095Y-57938809D02*
X146674857Y-57986428D01*
X146674857Y-57986428D02*
X146293905Y-57986428D01*
X147246286Y-57557857D02*
X147293905Y-57510238D01*
X147293905Y-57510238D02*
X147389143Y-57462619D01*
X147389143Y-57462619D02*
X147627238Y-57462619D01*
X147627238Y-57462619D02*
X147722476Y-57510238D01*
X147722476Y-57510238D02*
X147770095Y-57557857D01*
X147770095Y-57557857D02*
X147817714Y-57653095D01*
X147817714Y-57653095D02*
X147817714Y-57748333D01*
X147817714Y-57748333D02*
X147770095Y-57891190D01*
X147770095Y-57891190D02*
X147198667Y-58462619D01*
X147198667Y-58462619D02*
X147817714Y-58462619D01*
X179037380Y-42238095D02*
X178227857Y-42238095D01*
X178227857Y-42238095D02*
X178132619Y-42285714D01*
X178132619Y-42285714D02*
X178085000Y-42333333D01*
X178085000Y-42333333D02*
X178037380Y-42428571D01*
X178037380Y-42428571D02*
X178037380Y-42619047D01*
X178037380Y-42619047D02*
X178085000Y-42714285D01*
X178085000Y-42714285D02*
X178132619Y-42761904D01*
X178132619Y-42761904D02*
X178227857Y-42809523D01*
X178227857Y-42809523D02*
X179037380Y-42809523D01*
X178037380Y-43809523D02*
X178037380Y-43238095D01*
X178037380Y-43523809D02*
X179037380Y-43523809D01*
X179037380Y-43523809D02*
X178894523Y-43428571D01*
X178894523Y-43428571D02*
X178799285Y-43333333D01*
X178799285Y-43333333D02*
X178751666Y-43238095D01*
X171690476Y-43370000D02*
X171833333Y-43417619D01*
X171833333Y-43417619D02*
X172071428Y-43417619D01*
X172071428Y-43417619D02*
X172166666Y-43370000D01*
X172166666Y-43370000D02*
X172214285Y-43322380D01*
X172214285Y-43322380D02*
X172261904Y-43227142D01*
X172261904Y-43227142D02*
X172261904Y-43131904D01*
X172261904Y-43131904D02*
X172214285Y-43036666D01*
X172214285Y-43036666D02*
X172166666Y-42989047D01*
X172166666Y-42989047D02*
X172071428Y-42941428D01*
X172071428Y-42941428D02*
X171880952Y-42893809D01*
X171880952Y-42893809D02*
X171785714Y-42846190D01*
X171785714Y-42846190D02*
X171738095Y-42798571D01*
X171738095Y-42798571D02*
X171690476Y-42703333D01*
X171690476Y-42703333D02*
X171690476Y-42608095D01*
X171690476Y-42608095D02*
X171738095Y-42512857D01*
X171738095Y-42512857D02*
X171785714Y-42465238D01*
X171785714Y-42465238D02*
X171880952Y-42417619D01*
X171880952Y-42417619D02*
X172119047Y-42417619D01*
X172119047Y-42417619D02*
X172261904Y-42465238D01*
X172690476Y-43417619D02*
X172690476Y-42417619D01*
X172690476Y-42417619D02*
X172928571Y-42417619D01*
X172928571Y-42417619D02*
X173071428Y-42465238D01*
X173071428Y-42465238D02*
X173166666Y-42560476D01*
X173166666Y-42560476D02*
X173214285Y-42655714D01*
X173214285Y-42655714D02*
X173261904Y-42846190D01*
X173261904Y-42846190D02*
X173261904Y-42989047D01*
X173261904Y-42989047D02*
X173214285Y-43179523D01*
X173214285Y-43179523D02*
X173166666Y-43274761D01*
X173166666Y-43274761D02*
X173071428Y-43370000D01*
X173071428Y-43370000D02*
X172928571Y-43417619D01*
X172928571Y-43417619D02*
X172690476Y-43417619D01*
X173880952Y-42417619D02*
X174071428Y-42417619D01*
X174071428Y-42417619D02*
X174166666Y-42465238D01*
X174166666Y-42465238D02*
X174261904Y-42560476D01*
X174261904Y-42560476D02*
X174309523Y-42750952D01*
X174309523Y-42750952D02*
X174309523Y-43084285D01*
X174309523Y-43084285D02*
X174261904Y-43274761D01*
X174261904Y-43274761D02*
X174166666Y-43370000D01*
X174166666Y-43370000D02*
X174071428Y-43417619D01*
X174071428Y-43417619D02*
X173880952Y-43417619D01*
X173880952Y-43417619D02*
X173785714Y-43370000D01*
X173785714Y-43370000D02*
X173690476Y-43274761D01*
X173690476Y-43274761D02*
X173642857Y-43084285D01*
X173642857Y-43084285D02*
X173642857Y-42750952D01*
X173642857Y-42750952D02*
X173690476Y-42560476D01*
X173690476Y-42560476D02*
X173785714Y-42465238D01*
X173785714Y-42465238D02*
X173880952Y-42417619D01*
X171738095Y-53577619D02*
X171738095Y-52577619D01*
X171738095Y-52577619D02*
X171976190Y-52577619D01*
X171976190Y-52577619D02*
X172119047Y-52625238D01*
X172119047Y-52625238D02*
X172214285Y-52720476D01*
X172214285Y-52720476D02*
X172261904Y-52815714D01*
X172261904Y-52815714D02*
X172309523Y-53006190D01*
X172309523Y-53006190D02*
X172309523Y-53149047D01*
X172309523Y-53149047D02*
X172261904Y-53339523D01*
X172261904Y-53339523D02*
X172214285Y-53434761D01*
X172214285Y-53434761D02*
X172119047Y-53530000D01*
X172119047Y-53530000D02*
X171976190Y-53577619D01*
X171976190Y-53577619D02*
X171738095Y-53577619D01*
X173309523Y-53577619D02*
X172976190Y-53101428D01*
X172738095Y-53577619D02*
X172738095Y-52577619D01*
X172738095Y-52577619D02*
X173119047Y-52577619D01*
X173119047Y-52577619D02*
X173214285Y-52625238D01*
X173214285Y-52625238D02*
X173261904Y-52672857D01*
X173261904Y-52672857D02*
X173309523Y-52768095D01*
X173309523Y-52768095D02*
X173309523Y-52910952D01*
X173309523Y-52910952D02*
X173261904Y-53006190D01*
X173261904Y-53006190D02*
X173214285Y-53053809D01*
X173214285Y-53053809D02*
X173119047Y-53101428D01*
X173119047Y-53101428D02*
X172738095Y-53101428D01*
X173738095Y-53577619D02*
X173738095Y-52577619D01*
X173738095Y-52577619D02*
X173976190Y-52577619D01*
X173976190Y-52577619D02*
X174119047Y-52625238D01*
X174119047Y-52625238D02*
X174214285Y-52720476D01*
X174214285Y-52720476D02*
X174261904Y-52815714D01*
X174261904Y-52815714D02*
X174309523Y-53006190D01*
X174309523Y-53006190D02*
X174309523Y-53149047D01*
X174309523Y-53149047D02*
X174261904Y-53339523D01*
X174261904Y-53339523D02*
X174214285Y-53434761D01*
X174214285Y-53434761D02*
X174119047Y-53530000D01*
X174119047Y-53530000D02*
X173976190Y-53577619D01*
X173976190Y-53577619D02*
X173738095Y-53577619D01*
X174928571Y-53101428D02*
X174928571Y-53577619D01*
X174595238Y-52577619D02*
X174928571Y-53101428D01*
X174928571Y-53101428D02*
X175261904Y-52577619D01*
X172071428Y-50528809D02*
X171738095Y-50528809D01*
X171738095Y-51052619D02*
X171738095Y-50052619D01*
X171738095Y-50052619D02*
X172214285Y-50052619D01*
X172547619Y-50766904D02*
X173023809Y-50766904D01*
X172452381Y-51052619D02*
X172785714Y-50052619D01*
X172785714Y-50052619D02*
X173119047Y-51052619D01*
X173452381Y-50052619D02*
X173452381Y-50862142D01*
X173452381Y-50862142D02*
X173500000Y-50957380D01*
X173500000Y-50957380D02*
X173547619Y-51005000D01*
X173547619Y-51005000D02*
X173642857Y-51052619D01*
X173642857Y-51052619D02*
X173833333Y-51052619D01*
X173833333Y-51052619D02*
X173928571Y-51005000D01*
X173928571Y-51005000D02*
X173976190Y-50957380D01*
X173976190Y-50957380D02*
X174023809Y-50862142D01*
X174023809Y-50862142D02*
X174023809Y-50052619D01*
X174976190Y-51052619D02*
X174500000Y-51052619D01*
X174500000Y-51052619D02*
X174500000Y-50052619D01*
X175166667Y-50052619D02*
X175738095Y-50052619D01*
X175452381Y-51052619D02*
X175452381Y-50052619D01*
X171690476Y-41005000D02*
X171833333Y-41052619D01*
X171833333Y-41052619D02*
X172071428Y-41052619D01*
X172071428Y-41052619D02*
X172166666Y-41005000D01*
X172166666Y-41005000D02*
X172214285Y-40957380D01*
X172214285Y-40957380D02*
X172261904Y-40862142D01*
X172261904Y-40862142D02*
X172261904Y-40766904D01*
X172261904Y-40766904D02*
X172214285Y-40671666D01*
X172214285Y-40671666D02*
X172166666Y-40624047D01*
X172166666Y-40624047D02*
X172071428Y-40576428D01*
X172071428Y-40576428D02*
X171880952Y-40528809D01*
X171880952Y-40528809D02*
X171785714Y-40481190D01*
X171785714Y-40481190D02*
X171738095Y-40433571D01*
X171738095Y-40433571D02*
X171690476Y-40338333D01*
X171690476Y-40338333D02*
X171690476Y-40243095D01*
X171690476Y-40243095D02*
X171738095Y-40147857D01*
X171738095Y-40147857D02*
X171785714Y-40100238D01*
X171785714Y-40100238D02*
X171880952Y-40052619D01*
X171880952Y-40052619D02*
X172119047Y-40052619D01*
X172119047Y-40052619D02*
X172261904Y-40100238D01*
X173261904Y-40957380D02*
X173214285Y-41005000D01*
X173214285Y-41005000D02*
X173071428Y-41052619D01*
X173071428Y-41052619D02*
X172976190Y-41052619D01*
X172976190Y-41052619D02*
X172833333Y-41005000D01*
X172833333Y-41005000D02*
X172738095Y-40909761D01*
X172738095Y-40909761D02*
X172690476Y-40814523D01*
X172690476Y-40814523D02*
X172642857Y-40624047D01*
X172642857Y-40624047D02*
X172642857Y-40481190D01*
X172642857Y-40481190D02*
X172690476Y-40290714D01*
X172690476Y-40290714D02*
X172738095Y-40195476D01*
X172738095Y-40195476D02*
X172833333Y-40100238D01*
X172833333Y-40100238D02*
X172976190Y-40052619D01*
X172976190Y-40052619D02*
X173071428Y-40052619D01*
X173071428Y-40052619D02*
X173214285Y-40100238D01*
X173214285Y-40100238D02*
X173261904Y-40147857D01*
X173690476Y-41052619D02*
X173690476Y-40052619D01*
X174261904Y-41052619D02*
X173833333Y-40481190D01*
X174261904Y-40052619D02*
X173690476Y-40624047D01*
X171770238Y-32384619D02*
X172103571Y-33384619D01*
X172103571Y-33384619D02*
X172436904Y-32384619D01*
X172770238Y-33384619D02*
X172770238Y-32717952D01*
X172770238Y-32384619D02*
X172722619Y-32432238D01*
X172722619Y-32432238D02*
X172770238Y-32479857D01*
X172770238Y-32479857D02*
X172817857Y-32432238D01*
X172817857Y-32432238D02*
X172770238Y-32384619D01*
X172770238Y-32384619D02*
X172770238Y-32479857D01*
X173246428Y-32717952D02*
X173246428Y-33384619D01*
X173246428Y-32813190D02*
X173294047Y-32765571D01*
X173294047Y-32765571D02*
X173389285Y-32717952D01*
X173389285Y-32717952D02*
X173532142Y-32717952D01*
X173532142Y-32717952D02*
X173627380Y-32765571D01*
X173627380Y-32765571D02*
X173674999Y-32860809D01*
X173674999Y-32860809D02*
X173674999Y-33384619D01*
X171642857Y-34924619D02*
X172261904Y-34924619D01*
X172261904Y-34924619D02*
X171928571Y-35305571D01*
X171928571Y-35305571D02*
X172071428Y-35305571D01*
X172071428Y-35305571D02*
X172166666Y-35353190D01*
X172166666Y-35353190D02*
X172214285Y-35400809D01*
X172214285Y-35400809D02*
X172261904Y-35496047D01*
X172261904Y-35496047D02*
X172261904Y-35734142D01*
X172261904Y-35734142D02*
X172214285Y-35829380D01*
X172214285Y-35829380D02*
X172166666Y-35877000D01*
X172166666Y-35877000D02*
X172071428Y-35924619D01*
X172071428Y-35924619D02*
X171785714Y-35924619D01*
X171785714Y-35924619D02*
X171690476Y-35877000D01*
X171690476Y-35877000D02*
X171642857Y-35829380D01*
X172595238Y-35257952D02*
X172833333Y-35924619D01*
X172833333Y-35924619D02*
X173071428Y-35257952D01*
X173357143Y-34924619D02*
X173976190Y-34924619D01*
X173976190Y-34924619D02*
X173642857Y-35305571D01*
X173642857Y-35305571D02*
X173785714Y-35305571D01*
X173785714Y-35305571D02*
X173880952Y-35353190D01*
X173880952Y-35353190D02*
X173928571Y-35400809D01*
X173928571Y-35400809D02*
X173976190Y-35496047D01*
X173976190Y-35496047D02*
X173976190Y-35734142D01*
X173976190Y-35734142D02*
X173928571Y-35829380D01*
X173928571Y-35829380D02*
X173880952Y-35877000D01*
X173880952Y-35877000D02*
X173785714Y-35924619D01*
X173785714Y-35924619D02*
X173500000Y-35924619D01*
X173500000Y-35924619D02*
X173404762Y-35877000D01*
X173404762Y-35877000D02*
X173357143Y-35829380D01*
D10*
X180617095Y-36047618D02*
X180617095Y-36523808D01*
X180331380Y-35952380D02*
X181331380Y-36285713D01*
X181331380Y-36285713D02*
X180331380Y-36619046D01*
X180331380Y-37380951D02*
X181331380Y-37380951D01*
X180379000Y-37380951D02*
X180331380Y-37285713D01*
X180331380Y-37285713D02*
X180331380Y-37095237D01*
X180331380Y-37095237D02*
X180379000Y-36999999D01*
X180379000Y-36999999D02*
X180426619Y-36952380D01*
X180426619Y-36952380D02*
X180521857Y-36904761D01*
X180521857Y-36904761D02*
X180807571Y-36904761D01*
X180807571Y-36904761D02*
X180902809Y-36952380D01*
X180902809Y-36952380D02*
X180950428Y-36999999D01*
X180950428Y-36999999D02*
X180998047Y-37095237D01*
X180998047Y-37095237D02*
X180998047Y-37285713D01*
X180998047Y-37285713D02*
X180950428Y-37380951D01*
X180331380Y-38285713D02*
X180855190Y-38285713D01*
X180855190Y-38285713D02*
X180950428Y-38238094D01*
X180950428Y-38238094D02*
X180998047Y-38142856D01*
X180998047Y-38142856D02*
X180998047Y-37952380D01*
X180998047Y-37952380D02*
X180950428Y-37857142D01*
X180379000Y-38285713D02*
X180331380Y-38190475D01*
X180331380Y-38190475D02*
X180331380Y-37952380D01*
X180331380Y-37952380D02*
X180379000Y-37857142D01*
X180379000Y-37857142D02*
X180474238Y-37809523D01*
X180474238Y-37809523D02*
X180569476Y-37809523D01*
X180569476Y-37809523D02*
X180664714Y-37857142D01*
X180664714Y-37857142D02*
X180712333Y-37952380D01*
X180712333Y-37952380D02*
X180712333Y-38190475D01*
X180712333Y-38190475D02*
X180759952Y-38285713D01*
X180998047Y-38619047D02*
X180998047Y-38999999D01*
X180331380Y-38761904D02*
X181188523Y-38761904D01*
X181188523Y-38761904D02*
X181283761Y-38809523D01*
X181283761Y-38809523D02*
X181331380Y-38904761D01*
X181331380Y-38904761D02*
X181331380Y-38999999D01*
X180331380Y-39333333D02*
X180998047Y-39333333D01*
X180807571Y-39333333D02*
X180902809Y-39380952D01*
X180902809Y-39380952D02*
X180950428Y-39428571D01*
X180950428Y-39428571D02*
X180998047Y-39523809D01*
X180998047Y-39523809D02*
X180998047Y-39619047D01*
X180998047Y-40380952D02*
X180331380Y-40380952D01*
X180998047Y-39952381D02*
X180474238Y-39952381D01*
X180474238Y-39952381D02*
X180379000Y-40000000D01*
X180379000Y-40000000D02*
X180331380Y-40095238D01*
X180331380Y-40095238D02*
X180331380Y-40238095D01*
X180331380Y-40238095D02*
X180379000Y-40333333D01*
X180379000Y-40333333D02*
X180426619Y-40380952D01*
X180331380Y-40857143D02*
X180998047Y-40857143D01*
X181331380Y-40857143D02*
X181283761Y-40809524D01*
X181283761Y-40809524D02*
X181236142Y-40857143D01*
X181236142Y-40857143D02*
X181283761Y-40904762D01*
X181283761Y-40904762D02*
X181331380Y-40857143D01*
X181331380Y-40857143D02*
X181236142Y-40857143D01*
X180998047Y-41190476D02*
X180998047Y-41571428D01*
X181331380Y-41333333D02*
X180474238Y-41333333D01*
X180474238Y-41333333D02*
X180379000Y-41380952D01*
X180379000Y-41380952D02*
X180331380Y-41476190D01*
X180331380Y-41476190D02*
X180331380Y-41571428D01*
X180331380Y-42666667D02*
X181331380Y-42666667D01*
X181331380Y-42666667D02*
X180617095Y-43000000D01*
X180617095Y-43000000D02*
X181331380Y-43333333D01*
X181331380Y-43333333D02*
X180331380Y-43333333D01*
X180617095Y-43761905D02*
X180617095Y-44238095D01*
X180331380Y-43666667D02*
X181331380Y-44000000D01*
X181331380Y-44000000D02*
X180331380Y-44333333D01*
X181331380Y-44571429D02*
X180331380Y-45238095D01*
X181331380Y-45238095D02*
X180331380Y-44571429D01*
X181331380Y-45523810D02*
X181331380Y-46142857D01*
X181331380Y-46142857D02*
X180950428Y-45809524D01*
X180950428Y-45809524D02*
X180950428Y-45952381D01*
X180950428Y-45952381D02*
X180902809Y-46047619D01*
X180902809Y-46047619D02*
X180855190Y-46095238D01*
X180855190Y-46095238D02*
X180759952Y-46142857D01*
X180759952Y-46142857D02*
X180521857Y-46142857D01*
X180521857Y-46142857D02*
X180426619Y-46095238D01*
X180426619Y-46095238D02*
X180379000Y-46047619D01*
X180379000Y-46047619D02*
X180331380Y-45952381D01*
X180331380Y-45952381D02*
X180331380Y-45666667D01*
X180331380Y-45666667D02*
X180379000Y-45571429D01*
X180379000Y-45571429D02*
X180426619Y-45523810D01*
X180331380Y-47095238D02*
X180331380Y-46523810D01*
X180331380Y-46809524D02*
X181331380Y-46809524D01*
X181331380Y-46809524D02*
X181188523Y-46714286D01*
X181188523Y-46714286D02*
X181093285Y-46619048D01*
X181093285Y-46619048D02*
X181045666Y-46523810D01*
X180902809Y-47666667D02*
X180950428Y-47571429D01*
X180950428Y-47571429D02*
X180998047Y-47523810D01*
X180998047Y-47523810D02*
X181093285Y-47476191D01*
X181093285Y-47476191D02*
X181140904Y-47476191D01*
X181140904Y-47476191D02*
X181236142Y-47523810D01*
X181236142Y-47523810D02*
X181283761Y-47571429D01*
X181283761Y-47571429D02*
X181331380Y-47666667D01*
X181331380Y-47666667D02*
X181331380Y-47857143D01*
X181331380Y-47857143D02*
X181283761Y-47952381D01*
X181283761Y-47952381D02*
X181236142Y-48000000D01*
X181236142Y-48000000D02*
X181140904Y-48047619D01*
X181140904Y-48047619D02*
X181093285Y-48047619D01*
X181093285Y-48047619D02*
X180998047Y-48000000D01*
X180998047Y-48000000D02*
X180950428Y-47952381D01*
X180950428Y-47952381D02*
X180902809Y-47857143D01*
X180902809Y-47857143D02*
X180902809Y-47666667D01*
X180902809Y-47666667D02*
X180855190Y-47571429D01*
X180855190Y-47571429D02*
X180807571Y-47523810D01*
X180807571Y-47523810D02*
X180712333Y-47476191D01*
X180712333Y-47476191D02*
X180521857Y-47476191D01*
X180521857Y-47476191D02*
X180426619Y-47523810D01*
X180426619Y-47523810D02*
X180379000Y-47571429D01*
X180379000Y-47571429D02*
X180331380Y-47666667D01*
X180331380Y-47666667D02*
X180331380Y-47857143D01*
X180331380Y-47857143D02*
X180379000Y-47952381D01*
X180379000Y-47952381D02*
X180426619Y-48000000D01*
X180426619Y-48000000D02*
X180521857Y-48047619D01*
X180521857Y-48047619D02*
X180712333Y-48047619D01*
X180712333Y-48047619D02*
X180807571Y-48000000D01*
X180807571Y-48000000D02*
X180855190Y-47952381D01*
X180855190Y-47952381D02*
X180902809Y-47857143D01*
X181331380Y-48952381D02*
X181331380Y-48476191D01*
X181331380Y-48476191D02*
X180855190Y-48428572D01*
X180855190Y-48428572D02*
X180902809Y-48476191D01*
X180902809Y-48476191D02*
X180950428Y-48571429D01*
X180950428Y-48571429D02*
X180950428Y-48809524D01*
X180950428Y-48809524D02*
X180902809Y-48904762D01*
X180902809Y-48904762D02*
X180855190Y-48952381D01*
X180855190Y-48952381D02*
X180759952Y-49000000D01*
X180759952Y-49000000D02*
X180521857Y-49000000D01*
X180521857Y-49000000D02*
X180426619Y-48952381D01*
X180426619Y-48952381D02*
X180379000Y-48904762D01*
X180379000Y-48904762D02*
X180331380Y-48809524D01*
X180331380Y-48809524D02*
X180331380Y-48571429D01*
X180331380Y-48571429D02*
X180379000Y-48476191D01*
X180379000Y-48476191D02*
X180426619Y-48428572D01*
X181331380Y-49857143D02*
X181331380Y-49666667D01*
X181331380Y-49666667D02*
X181283761Y-49571429D01*
X181283761Y-49571429D02*
X181236142Y-49523810D01*
X181236142Y-49523810D02*
X181093285Y-49428572D01*
X181093285Y-49428572D02*
X180902809Y-49380953D01*
X180902809Y-49380953D02*
X180521857Y-49380953D01*
X180521857Y-49380953D02*
X180426619Y-49428572D01*
X180426619Y-49428572D02*
X180379000Y-49476191D01*
X180379000Y-49476191D02*
X180331380Y-49571429D01*
X180331380Y-49571429D02*
X180331380Y-49761905D01*
X180331380Y-49761905D02*
X180379000Y-49857143D01*
X180379000Y-49857143D02*
X180426619Y-49904762D01*
X180426619Y-49904762D02*
X180521857Y-49952381D01*
X180521857Y-49952381D02*
X180759952Y-49952381D01*
X180759952Y-49952381D02*
X180855190Y-49904762D01*
X180855190Y-49904762D02*
X180902809Y-49857143D01*
X180902809Y-49857143D02*
X180950428Y-49761905D01*
X180950428Y-49761905D02*
X180950428Y-49571429D01*
X180950428Y-49571429D02*
X180902809Y-49476191D01*
X180902809Y-49476191D02*
X180855190Y-49428572D01*
X180855190Y-49428572D02*
X180759952Y-49380953D01*
D11*
X171690476Y-46005000D02*
X171833333Y-46052619D01*
X171833333Y-46052619D02*
X172071428Y-46052619D01*
X172071428Y-46052619D02*
X172166666Y-46005000D01*
X172166666Y-46005000D02*
X172214285Y-45957380D01*
X172214285Y-45957380D02*
X172261904Y-45862142D01*
X172261904Y-45862142D02*
X172261904Y-45766904D01*
X172261904Y-45766904D02*
X172214285Y-45671666D01*
X172214285Y-45671666D02*
X172166666Y-45624047D01*
X172166666Y-45624047D02*
X172071428Y-45576428D01*
X172071428Y-45576428D02*
X171880952Y-45528809D01*
X171880952Y-45528809D02*
X171785714Y-45481190D01*
X171785714Y-45481190D02*
X171738095Y-45433571D01*
X171738095Y-45433571D02*
X171690476Y-45338333D01*
X171690476Y-45338333D02*
X171690476Y-45243095D01*
X171690476Y-45243095D02*
X171738095Y-45147857D01*
X171738095Y-45147857D02*
X171785714Y-45100238D01*
X171785714Y-45100238D02*
X171880952Y-45052619D01*
X171880952Y-45052619D02*
X172119047Y-45052619D01*
X172119047Y-45052619D02*
X172261904Y-45100238D01*
X172690476Y-46052619D02*
X172690476Y-45052619D01*
X172690476Y-45052619D02*
X172928571Y-45052619D01*
X172928571Y-45052619D02*
X173071428Y-45100238D01*
X173071428Y-45100238D02*
X173166666Y-45195476D01*
X173166666Y-45195476D02*
X173214285Y-45290714D01*
X173214285Y-45290714D02*
X173261904Y-45481190D01*
X173261904Y-45481190D02*
X173261904Y-45624047D01*
X173261904Y-45624047D02*
X173214285Y-45814523D01*
X173214285Y-45814523D02*
X173166666Y-45909761D01*
X173166666Y-45909761D02*
X173071428Y-46005000D01*
X173071428Y-46005000D02*
X172928571Y-46052619D01*
X172928571Y-46052619D02*
X172690476Y-46052619D01*
X173690476Y-46052619D02*
X173690476Y-45052619D01*
X172261904Y-37385238D02*
X172166666Y-37337619D01*
X172166666Y-37337619D02*
X172023809Y-37337619D01*
X172023809Y-37337619D02*
X171880952Y-37385238D01*
X171880952Y-37385238D02*
X171785714Y-37480476D01*
X171785714Y-37480476D02*
X171738095Y-37575714D01*
X171738095Y-37575714D02*
X171690476Y-37766190D01*
X171690476Y-37766190D02*
X171690476Y-37909047D01*
X171690476Y-37909047D02*
X171738095Y-38099523D01*
X171738095Y-38099523D02*
X171785714Y-38194761D01*
X171785714Y-38194761D02*
X171880952Y-38290000D01*
X171880952Y-38290000D02*
X172023809Y-38337619D01*
X172023809Y-38337619D02*
X172119047Y-38337619D01*
X172119047Y-38337619D02*
X172261904Y-38290000D01*
X172261904Y-38290000D02*
X172309523Y-38242380D01*
X172309523Y-38242380D02*
X172309523Y-37909047D01*
X172309523Y-37909047D02*
X172119047Y-37909047D01*
X172738095Y-38337619D02*
X172738095Y-37337619D01*
X172738095Y-37337619D02*
X173309523Y-38337619D01*
X173309523Y-38337619D02*
X173309523Y-37337619D01*
X173785714Y-38337619D02*
X173785714Y-37337619D01*
X173785714Y-37337619D02*
X174023809Y-37337619D01*
X174023809Y-37337619D02*
X174166666Y-37385238D01*
X174166666Y-37385238D02*
X174261904Y-37480476D01*
X174261904Y-37480476D02*
X174309523Y-37575714D01*
X174309523Y-37575714D02*
X174357142Y-37766190D01*
X174357142Y-37766190D02*
X174357142Y-37909047D01*
X174357142Y-37909047D02*
X174309523Y-38099523D01*
X174309523Y-38099523D02*
X174261904Y-38194761D01*
X174261904Y-38194761D02*
X174166666Y-38290000D01*
X174166666Y-38290000D02*
X174023809Y-38337619D01*
X174023809Y-38337619D02*
X173785714Y-38337619D01*
X172309523Y-48402380D02*
X172261904Y-48450000D01*
X172261904Y-48450000D02*
X172119047Y-48497619D01*
X172119047Y-48497619D02*
X172023809Y-48497619D01*
X172023809Y-48497619D02*
X171880952Y-48450000D01*
X171880952Y-48450000D02*
X171785714Y-48354761D01*
X171785714Y-48354761D02*
X171738095Y-48259523D01*
X171738095Y-48259523D02*
X171690476Y-48069047D01*
X171690476Y-48069047D02*
X171690476Y-47926190D01*
X171690476Y-47926190D02*
X171738095Y-47735714D01*
X171738095Y-47735714D02*
X171785714Y-47640476D01*
X171785714Y-47640476D02*
X171880952Y-47545238D01*
X171880952Y-47545238D02*
X172023809Y-47497619D01*
X172023809Y-47497619D02*
X172119047Y-47497619D01*
X172119047Y-47497619D02*
X172261904Y-47545238D01*
X172261904Y-47545238D02*
X172309523Y-47592857D01*
X172690476Y-48450000D02*
X172833333Y-48497619D01*
X172833333Y-48497619D02*
X173071428Y-48497619D01*
X173071428Y-48497619D02*
X173166666Y-48450000D01*
X173166666Y-48450000D02*
X173214285Y-48402380D01*
X173214285Y-48402380D02*
X173261904Y-48307142D01*
X173261904Y-48307142D02*
X173261904Y-48211904D01*
X173261904Y-48211904D02*
X173214285Y-48116666D01*
X173214285Y-48116666D02*
X173166666Y-48069047D01*
X173166666Y-48069047D02*
X173071428Y-48021428D01*
X173071428Y-48021428D02*
X172880952Y-47973809D01*
X172880952Y-47973809D02*
X172785714Y-47926190D01*
X172785714Y-47926190D02*
X172738095Y-47878571D01*
X172738095Y-47878571D02*
X172690476Y-47783333D01*
X172690476Y-47783333D02*
X172690476Y-47688095D01*
X172690476Y-47688095D02*
X172738095Y-47592857D01*
X172738095Y-47592857D02*
X172785714Y-47545238D01*
X172785714Y-47545238D02*
X172880952Y-47497619D01*
X172880952Y-47497619D02*
X173119047Y-47497619D01*
X173119047Y-47497619D02*
X173261904Y-47545238D01*
X131666667Y-64415000D02*
X131809524Y-64462619D01*
X131809524Y-64462619D02*
X132047619Y-64462619D01*
X132047619Y-64462619D02*
X132142857Y-64415000D01*
X132142857Y-64415000D02*
X132190476Y-64367380D01*
X132190476Y-64367380D02*
X132238095Y-64272142D01*
X132238095Y-64272142D02*
X132238095Y-64176904D01*
X132238095Y-64176904D02*
X132190476Y-64081666D01*
X132190476Y-64081666D02*
X132142857Y-64034047D01*
X132142857Y-64034047D02*
X132047619Y-63986428D01*
X132047619Y-63986428D02*
X131857143Y-63938809D01*
X131857143Y-63938809D02*
X131761905Y-63891190D01*
X131761905Y-63891190D02*
X131714286Y-63843571D01*
X131714286Y-63843571D02*
X131666667Y-63748333D01*
X131666667Y-63748333D02*
X131666667Y-63653095D01*
X131666667Y-63653095D02*
X131714286Y-63557857D01*
X131714286Y-63557857D02*
X131761905Y-63510238D01*
X131761905Y-63510238D02*
X131857143Y-63462619D01*
X131857143Y-63462619D02*
X132095238Y-63462619D01*
X132095238Y-63462619D02*
X132238095Y-63510238D01*
X132571429Y-63462619D02*
X132809524Y-64462619D01*
X132809524Y-64462619D02*
X133000000Y-63748333D01*
X133000000Y-63748333D02*
X133190476Y-64462619D01*
X133190476Y-64462619D02*
X133428572Y-63462619D01*
X134333333Y-64462619D02*
X133761905Y-64462619D01*
X134047619Y-64462619D02*
X134047619Y-63462619D01*
X134047619Y-63462619D02*
X133952381Y-63605476D01*
X133952381Y-63605476D02*
X133857143Y-63700714D01*
X133857143Y-63700714D02*
X133761905Y-63748333D01*
D10*
X192493000Y-55730000D02*
X158330000Y-55730000D01*
X158330000Y-55730000D02*
X158330000Y-56873000D01*
X158330000Y-56873000D02*
X157060000Y-58143000D01*
X157060000Y-58143000D02*
X157060000Y-67350500D01*
X194380000Y-60820000D02*
X193480000Y-60820000D01*
X157060000Y-67350500D02*
X158330000Y-68620500D01*
D12*
X194380000Y-68420000D02*
X194380000Y-60820000D01*
D10*
X193480000Y-68420000D02*
X194380000Y-68420000D01*
X158330000Y-68620500D02*
X158330000Y-73129000D01*
X194398000Y-71605000D02*
X194398000Y-57635000D01*
X158330000Y-73129000D02*
X158774500Y-73510000D01*
X158774500Y-73510000D02*
X192493000Y-73510000D01*
X191679500Y-55800000D02*
X160679500Y-55800000D01*
X160679500Y-55800000D02*
X160679500Y-58200000D01*
X160679500Y-58200000D02*
X191679500Y-58200000D01*
X191679500Y-58200000D02*
X191679500Y-55800000D01*
X191679500Y-71040000D02*
X160679500Y-71040000D01*
X160679500Y-71040000D02*
X160679500Y-73440000D01*
X160679500Y-73440000D02*
X191679500Y-73440000D01*
X191679500Y-73440000D02*
X191679500Y-71040000D01*
X194398000Y-57635000D02*
G75*
G03*
X192493000Y-55730000I-1904998J2D01*
G01*
X192493000Y-73510000D02*
G75*
G03*
X194398000Y-71605000I0J1905000D01*
G01*
D13*
X132507724Y-58522500D02*
X131998276Y-58522500D01*
X132507724Y-57477500D02*
X131998276Y-57477500D01*
X147370000Y-67100000D02*
X147370000Y-69300000D01*
X146900000Y-65130000D02*
X141700000Y-65130000D01*
X146300000Y-71370000D02*
X141900000Y-71370000D01*
X141130000Y-69300000D02*
X141130000Y-67100000D01*
X145664214Y-68250000D02*
G75*
G03*
X145664214Y-68250000I-1414214J0D01*
G01*
D11*
X155736000Y-64062000D02*
G75*
G03*
X155736000Y-64062000I-2887000J0D01*
G01*
X126736000Y-64062000D02*
G75*
G03*
X126736000Y-64062000I-2887000J0D01*
G01*
D14*
X151849000Y-67062000D02*
G75*
G03*
X155849000Y-63062000I70J3999930D01*
G01*
X149849000Y-65062000D02*
G75*
G03*
X151849000Y-67062000I2000030J30D01*
G01*
X155849000Y-35562000D02*
G75*
G03*
X151849000Y-31562000I-3999970J30D01*
G01*
X124849000Y-67062000D02*
G75*
G03*
X126849000Y-65062000I66J1999934D01*
G01*
X120849000Y-63062000D02*
G75*
G03*
X124849000Y-67062000I4000024J24D01*
G01*
X124849000Y-31562000D02*
G75*
G03*
X120849000Y-35062000I-249943J-3750065D01*
G01*
D13*
X127935000Y-33432000D02*
X148763000Y-33432000D01*
X148763000Y-33432000D02*
X148763000Y-35832000D01*
X148763000Y-35832000D02*
X127935000Y-35832000D01*
X127935000Y-35832000D02*
X127935000Y-33432000D01*
D14*
X155849000Y-35562000D02*
X155849000Y-63062000D01*
X149849000Y-61062000D02*
X149849000Y-65062000D01*
X149849000Y-61062000D02*
X126849000Y-61062000D01*
X126849000Y-65062000D02*
X126849000Y-61062000D01*
X124849000Y-31562000D02*
X151849000Y-31562000D01*
X120849000Y-63062000D02*
X120849000Y-35062000D01*
D13*
X196970000Y-54860000D02*
X197610000Y-54860000D01*
X197610000Y-54860000D02*
X197610000Y-54460000D01*
X190630000Y-54620000D02*
X197370000Y-54620000D01*
X190630000Y-54620000D02*
X190630000Y-48840000D01*
X191750000Y-54620000D02*
X191750000Y-48840000D01*
X196850000Y-54620000D02*
X196850000Y-48840000D01*
X197370000Y-54620000D02*
X197370000Y-48840000D01*
X190630000Y-48840000D02*
X197370000Y-48840000D01*
X143832776Y-57477500D02*
X144342224Y-57477500D01*
X143832776Y-58522500D02*
X144342224Y-58522500D01*
D15*
X164235238Y-38170239D02*
X164205000Y-38200477D01*
X164174762Y-38170239D01*
X164205000Y-38140000D01*
X164235238Y-38170239D01*
G36*
X164235238Y-38170239D02*
G01*
X164205000Y-38200477D01*
X164174762Y-38170239D01*
X164205000Y-38140000D01*
X164235238Y-38170239D01*
G37*
X162416204Y-36481700D02*
X162420952Y-36503574D01*
X162377052Y-36565158D01*
X162360476Y-36567619D01*
X162301572Y-36546986D01*
X162300000Y-36540950D01*
X162342378Y-36489318D01*
X162360476Y-36476905D01*
X162416204Y-36481700D01*
G36*
X162416204Y-36481700D02*
G01*
X162420952Y-36503574D01*
X162377052Y-36565158D01*
X162360476Y-36567619D01*
X162301572Y-36546986D01*
X162300000Y-36540950D01*
X162342378Y-36489318D01*
X162360476Y-36476905D01*
X162416204Y-36481700D01*
G37*
X164440171Y-37873642D02*
X164524797Y-37952929D01*
X164524683Y-38057220D01*
X164477143Y-38109762D01*
X164421292Y-38107788D01*
X164416667Y-38088040D01*
X164396577Y-37983150D01*
X164379695Y-37932594D01*
X164375343Y-37864554D01*
X164440171Y-37873642D01*
G36*
X164440171Y-37873642D02*
G01*
X164524797Y-37952929D01*
X164524683Y-38057220D01*
X164477143Y-38109762D01*
X164421292Y-38107788D01*
X164416667Y-38088040D01*
X164396577Y-37983150D01*
X164379695Y-37932594D01*
X164375343Y-37864554D01*
X164440171Y-37873642D01*
G37*
X163604104Y-38143209D02*
X163691542Y-38256766D01*
X163668260Y-38340544D01*
X163544207Y-38373002D01*
X163499062Y-38370618D01*
X163341418Y-38329415D01*
X163284852Y-38257754D01*
X163337513Y-38172681D01*
X163388762Y-38139898D01*
X163516490Y-38102098D01*
X163604104Y-38143209D01*
G36*
X163604104Y-38143209D02*
G01*
X163691542Y-38256766D01*
X163668260Y-38340544D01*
X163544207Y-38373002D01*
X163499062Y-38370618D01*
X163341418Y-38329415D01*
X163284852Y-38257754D01*
X163337513Y-38172681D01*
X163388762Y-38139898D01*
X163516490Y-38102098D01*
X163604104Y-38143209D01*
G37*
X162652478Y-36058236D02*
X162662857Y-36109102D01*
X162632276Y-36272277D01*
X162554830Y-36371948D01*
X162505196Y-36386191D01*
X162433956Y-36360439D01*
X162429188Y-36340834D01*
X162446219Y-36250338D01*
X162463632Y-36159405D01*
X162515016Y-36060875D01*
X162592247Y-36023545D01*
X162652478Y-36058236D01*
G36*
X162652478Y-36058236D02*
G01*
X162662857Y-36109102D01*
X162632276Y-36272277D01*
X162554830Y-36371948D01*
X162505196Y-36386191D01*
X162433956Y-36360439D01*
X162429188Y-36340834D01*
X162446219Y-36250338D01*
X162463632Y-36159405D01*
X162515016Y-36060875D01*
X162592247Y-36023545D01*
X162652478Y-36058236D01*
G37*
X161846429Y-36637886D02*
X161604524Y-36753736D01*
X161392637Y-36829800D01*
X161208060Y-36851137D01*
X161081589Y-36816761D01*
X161047227Y-36771618D01*
X161074968Y-36695713D01*
X161123105Y-36665785D01*
X161238416Y-36644838D01*
X161422460Y-36633564D01*
X161533875Y-36632991D01*
X161846429Y-36637886D01*
G36*
X161846429Y-36637886D02*
G01*
X161604524Y-36753736D01*
X161392637Y-36829800D01*
X161208060Y-36851137D01*
X161081589Y-36816761D01*
X161047227Y-36771618D01*
X161074968Y-36695713D01*
X161123105Y-36665785D01*
X161238416Y-36644838D01*
X161422460Y-36633564D01*
X161533875Y-36632991D01*
X161846429Y-36637886D01*
G37*
X163831161Y-37939482D02*
X163929972Y-38018392D01*
X164009350Y-38126917D01*
X164032986Y-38225548D01*
X164030145Y-38235391D01*
X163952684Y-38312991D01*
X163845176Y-38299667D01*
X163753556Y-38204452D01*
X163694741Y-38043597D01*
X163728890Y-37944817D01*
X163749223Y-37929697D01*
X163831161Y-37939482D01*
G36*
X163831161Y-37939482D02*
G01*
X163929972Y-38018392D01*
X164009350Y-38126917D01*
X164032986Y-38225548D01*
X164030145Y-38235391D01*
X163952684Y-38312991D01*
X163845176Y-38299667D01*
X163753556Y-38204452D01*
X163694741Y-38043597D01*
X163728890Y-37944817D01*
X163749223Y-37929697D01*
X163831161Y-37939482D01*
G37*
X165243144Y-37140968D02*
X165269216Y-37174133D01*
X165307350Y-37304953D01*
X165316138Y-37506822D01*
X165299515Y-37735455D01*
X165261419Y-37946570D01*
X165205786Y-38095882D01*
X165184824Y-38123476D01*
X165106662Y-38180743D01*
X165087380Y-38152396D01*
X165128618Y-38059374D01*
X165174542Y-37992370D01*
X165238830Y-37832913D01*
X165261019Y-37616804D01*
X165239210Y-37401467D01*
X165197957Y-37284178D01*
X165162898Y-37172717D01*
X165184013Y-37115633D01*
X165243144Y-37140968D01*
G36*
X165243144Y-37140968D02*
G01*
X165269216Y-37174133D01*
X165307350Y-37304953D01*
X165316138Y-37506822D01*
X165299515Y-37735455D01*
X165261419Y-37946570D01*
X165205786Y-38095882D01*
X165184824Y-38123476D01*
X165106662Y-38180743D01*
X165087380Y-38152396D01*
X165128618Y-38059374D01*
X165174542Y-37992370D01*
X165238830Y-37832913D01*
X165261019Y-37616804D01*
X165239210Y-37401467D01*
X165197957Y-37284178D01*
X165162898Y-37172717D01*
X165184013Y-37115633D01*
X165243144Y-37140968D01*
G37*
X164671191Y-36717753D02*
X164801183Y-36826116D01*
X164876577Y-36902806D01*
X165077748Y-37187110D01*
X165172276Y-37490942D01*
X165154860Y-37794589D01*
X165134468Y-37862315D01*
X165009211Y-38085324D01*
X164817170Y-38280231D01*
X164596273Y-38414295D01*
X164449054Y-38453988D01*
X164300062Y-38439297D01*
X164246697Y-38374122D01*
X164293612Y-38287686D01*
X164411920Y-38220780D01*
X164618759Y-38082950D01*
X164759463Y-37866748D01*
X164828229Y-37598632D01*
X164819255Y-37305062D01*
X164726738Y-37012496D01*
X164691587Y-36945596D01*
X164610622Y-36778827D01*
X164605747Y-36702434D01*
X164671191Y-36717753D01*
G36*
X164671191Y-36717753D02*
G01*
X164801183Y-36826116D01*
X164876577Y-36902806D01*
X165077748Y-37187110D01*
X165172276Y-37490942D01*
X165154860Y-37794589D01*
X165134468Y-37862315D01*
X165009211Y-38085324D01*
X164817170Y-38280231D01*
X164596273Y-38414295D01*
X164449054Y-38453988D01*
X164300062Y-38439297D01*
X164246697Y-38374122D01*
X164293612Y-38287686D01*
X164411920Y-38220780D01*
X164618759Y-38082950D01*
X164759463Y-37866748D01*
X164828229Y-37598632D01*
X164819255Y-37305062D01*
X164726738Y-37012496D01*
X164691587Y-36945596D01*
X164610622Y-36778827D01*
X164605747Y-36702434D01*
X164671191Y-36717753D01*
G37*
X159393000Y-34149905D02*
X159684571Y-34160595D01*
X159893160Y-34169480D01*
X160217035Y-34187130D01*
X160499094Y-34209344D01*
X160716726Y-34233812D01*
X160847323Y-34258221D01*
X160872874Y-34269636D01*
X160914361Y-34336121D01*
X160879633Y-34383395D01*
X160759502Y-34412789D01*
X160544779Y-34425630D01*
X160226279Y-34423247D01*
X159892945Y-34411375D01*
X159541399Y-34395244D01*
X159292949Y-34380186D01*
X159129811Y-34363090D01*
X159034199Y-34340846D01*
X158988330Y-34310344D01*
X158974419Y-34268474D01*
X158973810Y-34250640D01*
X158978674Y-34204681D01*
X159005171Y-34173204D01*
X159071154Y-34154633D01*
X159194479Y-34147392D01*
X159393000Y-34149905D01*
G36*
X159393000Y-34149905D02*
G01*
X159684571Y-34160595D01*
X159893160Y-34169480D01*
X160217035Y-34187130D01*
X160499094Y-34209344D01*
X160716726Y-34233812D01*
X160847323Y-34258221D01*
X160872874Y-34269636D01*
X160914361Y-34336121D01*
X160879633Y-34383395D01*
X160759502Y-34412789D01*
X160544779Y-34425630D01*
X160226279Y-34423247D01*
X159892945Y-34411375D01*
X159541399Y-34395244D01*
X159292949Y-34380186D01*
X159129811Y-34363090D01*
X159034199Y-34340846D01*
X158988330Y-34310344D01*
X158974419Y-34268474D01*
X158973810Y-34250640D01*
X158978674Y-34204681D01*
X159005171Y-34173204D01*
X159071154Y-34154633D01*
X159194479Y-34147392D01*
X159393000Y-34149905D01*
G37*
X162210732Y-36643795D02*
X162223689Y-36671307D01*
X162179290Y-36715470D01*
X162045658Y-36792631D01*
X161845687Y-36890431D01*
X161687563Y-36960680D01*
X161398713Y-37078191D01*
X161167186Y-37152262D01*
X160942712Y-37194712D01*
X160675021Y-37217356D01*
X160574932Y-37222222D01*
X160278674Y-37227140D01*
X160050138Y-37214723D01*
X159913749Y-37186467D01*
X159903046Y-37181129D01*
X159869639Y-37147541D01*
X159919375Y-37126858D01*
X160065900Y-37116434D01*
X160250674Y-37113744D01*
X160772423Y-37086004D01*
X161224870Y-37001696D01*
X161649690Y-36852352D01*
X161741553Y-36810879D01*
X161965167Y-36707469D01*
X162102603Y-36649581D01*
X162176809Y-36630570D01*
X162210732Y-36643795D01*
G36*
X162210732Y-36643795D02*
G01*
X162223689Y-36671307D01*
X162179290Y-36715470D01*
X162045658Y-36792631D01*
X161845687Y-36890431D01*
X161687563Y-36960680D01*
X161398713Y-37078191D01*
X161167186Y-37152262D01*
X160942712Y-37194712D01*
X160675021Y-37217356D01*
X160574932Y-37222222D01*
X160278674Y-37227140D01*
X160050138Y-37214723D01*
X159913749Y-37186467D01*
X159903046Y-37181129D01*
X159869639Y-37147541D01*
X159919375Y-37126858D01*
X160065900Y-37116434D01*
X160250674Y-37113744D01*
X160772423Y-37086004D01*
X161224870Y-37001696D01*
X161649690Y-36852352D01*
X161741553Y-36810879D01*
X161965167Y-36707469D01*
X162102603Y-36649581D01*
X162176809Y-36630570D01*
X162210732Y-36643795D01*
G37*
X163041105Y-36104432D02*
X163267545Y-36158579D01*
X163530250Y-36234672D01*
X163791237Y-36321128D01*
X164012524Y-36406370D01*
X164127780Y-36461518D01*
X164375524Y-36654282D01*
X164576011Y-36912124D01*
X164711434Y-37201921D01*
X164763989Y-37490548D01*
X164753389Y-37625350D01*
X164701620Y-37803869D01*
X164625005Y-37872809D01*
X164508209Y-37843167D01*
X164475664Y-37824549D01*
X164374721Y-37782231D01*
X164293471Y-37820524D01*
X164230958Y-37890098D01*
X164136016Y-37983588D01*
X164061024Y-37984606D01*
X164023230Y-37958288D01*
X163945127Y-37858800D01*
X163959866Y-37749062D01*
X164072687Y-37606471D01*
X164114286Y-37565477D01*
X164229966Y-37423977D01*
X164292250Y-37288073D01*
X164295714Y-37258957D01*
X164238792Y-37087410D01*
X164081118Y-36915887D01*
X163842333Y-36756041D01*
X163542076Y-36619529D01*
X163199990Y-36518004D01*
X162980357Y-36478395D01*
X162789491Y-36448947D01*
X162696877Y-36413032D01*
X162680817Y-36348663D01*
X162719611Y-36233854D01*
X162725218Y-36219881D01*
X162807938Y-36114411D01*
X162888910Y-36083810D01*
X163041105Y-36104432D01*
G36*
X163041105Y-36104432D02*
G01*
X163267545Y-36158579D01*
X163530250Y-36234672D01*
X163791237Y-36321128D01*
X164012524Y-36406370D01*
X164127780Y-36461518D01*
X164375524Y-36654282D01*
X164576011Y-36912124D01*
X164711434Y-37201921D01*
X164763989Y-37490548D01*
X164753389Y-37625350D01*
X164701620Y-37803869D01*
X164625005Y-37872809D01*
X164508209Y-37843167D01*
X164475664Y-37824549D01*
X164374721Y-37782231D01*
X164293471Y-37820524D01*
X164230958Y-37890098D01*
X164136016Y-37983588D01*
X164061024Y-37984606D01*
X164023230Y-37958288D01*
X163945127Y-37858800D01*
X163959866Y-37749062D01*
X164072687Y-37606471D01*
X164114286Y-37565477D01*
X164229966Y-37423977D01*
X164292250Y-37288073D01*
X164295714Y-37258957D01*
X164238792Y-37087410D01*
X164081118Y-36915887D01*
X163842333Y-36756041D01*
X163542076Y-36619529D01*
X163199990Y-36518004D01*
X162980357Y-36478395D01*
X162789491Y-36448947D01*
X162696877Y-36413032D01*
X162680817Y-36348663D01*
X162719611Y-36233854D01*
X162725218Y-36219881D01*
X162807938Y-36114411D01*
X162888910Y-36083810D01*
X163041105Y-36104432D01*
G37*
X160779379Y-32070351D02*
X160999196Y-32174807D01*
X161257387Y-32328947D01*
X161528838Y-32516447D01*
X161788432Y-32720982D01*
X162011056Y-32926227D01*
X162031522Y-32947425D01*
X162329363Y-33292510D01*
X162530666Y-33609600D01*
X162647479Y-33923975D01*
X162691852Y-34260912D01*
X162693095Y-34335340D01*
X162683750Y-34580140D01*
X162645260Y-34762708D01*
X162561944Y-34941013D01*
X162502269Y-35040751D01*
X162359627Y-35283616D01*
X162282810Y-35459785D01*
X162264803Y-35599121D01*
X162298593Y-35731490D01*
X162326025Y-35791154D01*
X162407591Y-36005142D01*
X162403375Y-36171174D01*
X162338726Y-36294096D01*
X162279473Y-36362038D01*
X162216500Y-36369584D01*
X162108266Y-36314585D01*
X162050433Y-36279191D01*
X161820477Y-36109740D01*
X161647938Y-35908270D01*
X161503875Y-35637625D01*
X161450723Y-35509286D01*
X161354686Y-35280437D01*
X161254786Y-35066295D01*
X161192675Y-34948797D01*
X161060287Y-34648068D01*
X161011888Y-34324886D01*
X161042240Y-33943053D01*
X161044829Y-33927186D01*
X161070344Y-33615736D01*
X161034929Y-33310016D01*
X160931607Y-32981581D01*
X160753400Y-32601983D01*
X160691674Y-32487273D01*
X160589762Y-32296547D01*
X160516118Y-32148580D01*
X160485824Y-32073761D01*
X160485714Y-32072240D01*
X160537136Y-32040831D01*
X160623050Y-32031905D01*
X160779379Y-32070351D01*
G36*
X160779379Y-32070351D02*
G01*
X160999196Y-32174807D01*
X161257387Y-32328947D01*
X161528838Y-32516447D01*
X161788432Y-32720982D01*
X162011056Y-32926227D01*
X162031522Y-32947425D01*
X162329363Y-33292510D01*
X162530666Y-33609600D01*
X162647479Y-33923975D01*
X162691852Y-34260912D01*
X162693095Y-34335340D01*
X162683750Y-34580140D01*
X162645260Y-34762708D01*
X162561944Y-34941013D01*
X162502269Y-35040751D01*
X162359627Y-35283616D01*
X162282810Y-35459785D01*
X162264803Y-35599121D01*
X162298593Y-35731490D01*
X162326025Y-35791154D01*
X162407591Y-36005142D01*
X162403375Y-36171174D01*
X162338726Y-36294096D01*
X162279473Y-36362038D01*
X162216500Y-36369584D01*
X162108266Y-36314585D01*
X162050433Y-36279191D01*
X161820477Y-36109740D01*
X161647938Y-35908270D01*
X161503875Y-35637625D01*
X161450723Y-35509286D01*
X161354686Y-35280437D01*
X161254786Y-35066295D01*
X161192675Y-34948797D01*
X161060287Y-34648068D01*
X161011888Y-34324886D01*
X161042240Y-33943053D01*
X161044829Y-33927186D01*
X161070344Y-33615736D01*
X161034929Y-33310016D01*
X160931607Y-32981581D01*
X160753400Y-32601983D01*
X160691674Y-32487273D01*
X160589762Y-32296547D01*
X160516118Y-32148580D01*
X160485824Y-32073761D01*
X160485714Y-32072240D01*
X160537136Y-32040831D01*
X160623050Y-32031905D01*
X160779379Y-32070351D01*
G37*
D14*
X169872000Y-30935000D02*
X186382000Y-30935000D01*
X188922000Y-33475000D02*
X188922000Y-52525000D01*
X167332000Y-52525000D02*
X167332000Y-33475000D01*
X186382000Y-55065000D02*
X169872000Y-55065000D01*
D11*
X168672000Y-31570000D02*
X171072000Y-31570000D01*
X171072000Y-31570000D02*
X171072000Y-54430000D01*
X171072000Y-54430000D02*
X168672000Y-54430000D01*
X168672000Y-54430000D02*
X168672000Y-31570000D01*
X189000000Y-39435000D02*
X182000000Y-39435000D01*
X182000000Y-39435000D02*
X182000000Y-46435000D01*
X182000000Y-46435000D02*
X189000000Y-46435000D01*
X189000000Y-46435000D02*
X189000000Y-39435000D01*
D14*
X188922000Y-33475000D02*
G75*
G03*
X186382000Y-30935000I-2540001J-1D01*
G01*
X169872000Y-30935000D02*
G75*
G03*
X167332000Y-33475000I1J-2540001D01*
G01*
X186382000Y-55065000D02*
G75*
G03*
X188922000Y-52525000I0J2540000D01*
G01*
X167332000Y-52525000D02*
G75*
G03*
X169872000Y-55065000I2540000J0D01*
G01*
D11*
X189396000Y-33475000D02*
G75*
G03*
X189396000Y-33475000I-2887000J0D01*
G01*
X189396000Y-52525000D02*
G75*
G03*
X189396000Y-52525000I-2887000J0D01*
G01*
D13*
X135870000Y-67100000D02*
X135870000Y-69300000D01*
X135400000Y-65130000D02*
X130200000Y-65130000D01*
X134800000Y-71370000D02*
X130400000Y-71370000D01*
X129630000Y-69300000D02*
X129630000Y-67100000D01*
X134164214Y-68250000D02*
G75*
G03*
X134164214Y-68250000I-1414214J0D01*
G01*
%LPC*%
D16*
X190080000Y-57000000D03*
X187540000Y-57000000D03*
X185000000Y-57000000D03*
X182460000Y-57000000D03*
X179920000Y-57000000D03*
X177380000Y-57000000D03*
X174840000Y-57000000D03*
X172300000Y-57000000D03*
X169760000Y-57000000D03*
X167220000Y-57000000D03*
X164680000Y-57000000D03*
X162140000Y-57000000D03*
X190080000Y-72240000D03*
X187540000Y-72240000D03*
X185000000Y-72240000D03*
X182460000Y-72240000D03*
X179920000Y-72240000D03*
X177380000Y-72240000D03*
X174840000Y-72240000D03*
X172300000Y-72240000D03*
X169760000Y-72240000D03*
X167220000Y-72240000D03*
X164680000Y-72240000D03*
X162140000Y-72240000D03*
D17*
X133165500Y-58000000D03*
X131340500Y-58000000D03*
D18*
X147500000Y-70500000D03*
D19*
X141000000Y-70500000D03*
X147500000Y-66000000D03*
X141000000Y-66000000D03*
D20*
X147239000Y-34632000D03*
X144699000Y-34632000D03*
X142159000Y-34632000D03*
X139619000Y-34632000D03*
X137079000Y-34632000D03*
X134539000Y-34632000D03*
X131999000Y-34632000D03*
X129459000Y-34632000D03*
D21*
X152849000Y-64062000D03*
X123849000Y-64062000D03*
D22*
X194000000Y-53000000D03*
D23*
X194000000Y-50460000D03*
D24*
X143175000Y-58000000D03*
X145000000Y-58000000D03*
D21*
X123000000Y-33000000D03*
X123000000Y-71000000D03*
X195000000Y-33000000D03*
X186509000Y-33475000D03*
X186509000Y-52525000D03*
D16*
X169872000Y-53160000D03*
X169872000Y-50620000D03*
X169872000Y-48080000D03*
X169872000Y-45540000D03*
X169872000Y-43000000D03*
X169872000Y-40460000D03*
X169872000Y-37920000D03*
X169872000Y-35380000D03*
X169872000Y-32840000D03*
D18*
X136000000Y-70500000D03*
D19*
X129500000Y-70500000D03*
X136000000Y-66000000D03*
X129500000Y-66000000D03*
D21*
X195000000Y-71000000D03*
%LPD*%
M02*
