%TF.GenerationSoftware,KiCad,Pcbnew,7.0.2*%
%TF.CreationDate,2023-06-01T00:46:06-07:00*%
%TF.ProjectId,Reflow Skillet Rev 1,5265666c-6f77-4205-936b-696c6c657420,rev?*%
%TF.SameCoordinates,Original*%
%TF.FileFunction,Drillmap*%
%TF.FilePolarity,Positive*%
%FSLAX45Y45*%
G04 Gerber Fmt 4.5, Leading zero omitted, Abs format (unit mm)*
G04 Created by KiCad (PCBNEW 7.0.2) date 2023-06-01 00:46:06*
%MOMM*%
%LPD*%
G01*
G04 APERTURE LIST*
%ADD10C,0.100000*%
%ADD11C,0.200000*%
%ADD12C,0.250000*%
G04 APERTURE END LIST*
D10*
X12000000Y-7100000D02*
G75*
G03*
X12300000Y-7400000I300000J0D01*
G01*
X19500000Y-7400000D02*
G75*
G03*
X19800000Y-7100000I0J300000D01*
G01*
X12000000Y-3300000D02*
X12000000Y-7100000D01*
X19800000Y-7100000D02*
X19800000Y-3300000D01*
X19800000Y-3300000D02*
G75*
G03*
X19500000Y-3000000I-300000J0D01*
G01*
X12300000Y-3000000D02*
G75*
G03*
X12000000Y-3300000I0J-300000D01*
G01*
X12300000Y-7400000D02*
X19500000Y-7400000D01*
X19500000Y-3000000D02*
X12300000Y-3000000D01*
D11*
D12*
X12175000Y-3175000D02*
X12425000Y-3425000D01*
X12425000Y-3175000D02*
X12175000Y-3425000D01*
X12175000Y-6975000D02*
X12425000Y-7225000D01*
X12425000Y-6975000D02*
X12175000Y-7225000D01*
X12259900Y-6281200D02*
X12509900Y-6531200D01*
X12509900Y-6281200D02*
X12259900Y-6531200D01*
X15159900Y-6281200D02*
X15409900Y-6531200D01*
X15409900Y-6281200D02*
X15159900Y-6531200D01*
X18525900Y-3222500D02*
X18775900Y-3472500D01*
X18775900Y-3222500D02*
X18525900Y-3472500D01*
X18525900Y-5127500D02*
X18775900Y-5377500D01*
X18775900Y-5127500D02*
X18525900Y-5377500D01*
X19375000Y-3175000D02*
X19625000Y-3425000D01*
X19625000Y-3175000D02*
X19375000Y-3425000D01*
X19375000Y-6975000D02*
X19625000Y-7225000D01*
X19625000Y-6975000D02*
X19375000Y-7225000D01*
D11*
X12242619Y-7717524D02*
X12242619Y-7517524D01*
X12242619Y-7517524D02*
X12290238Y-7517524D01*
X12290238Y-7517524D02*
X12318809Y-7527048D01*
X12318809Y-7527048D02*
X12337857Y-7546095D01*
X12337857Y-7546095D02*
X12347381Y-7565143D01*
X12347381Y-7565143D02*
X12356905Y-7603238D01*
X12356905Y-7603238D02*
X12356905Y-7631809D01*
X12356905Y-7631809D02*
X12347381Y-7669905D01*
X12347381Y-7669905D02*
X12337857Y-7688952D01*
X12337857Y-7688952D02*
X12318809Y-7708000D01*
X12318809Y-7708000D02*
X12290238Y-7717524D01*
X12290238Y-7717524D02*
X12242619Y-7717524D01*
X12442619Y-7717524D02*
X12442619Y-7584190D01*
X12442619Y-7622286D02*
X12452143Y-7603238D01*
X12452143Y-7603238D02*
X12461667Y-7593714D01*
X12461667Y-7593714D02*
X12480714Y-7584190D01*
X12480714Y-7584190D02*
X12499762Y-7584190D01*
X12566428Y-7717524D02*
X12566428Y-7584190D01*
X12566428Y-7517524D02*
X12556905Y-7527048D01*
X12556905Y-7527048D02*
X12566428Y-7536571D01*
X12566428Y-7536571D02*
X12575952Y-7527048D01*
X12575952Y-7527048D02*
X12566428Y-7517524D01*
X12566428Y-7517524D02*
X12566428Y-7536571D01*
X12690238Y-7717524D02*
X12671190Y-7708000D01*
X12671190Y-7708000D02*
X12661667Y-7688952D01*
X12661667Y-7688952D02*
X12661667Y-7517524D01*
X12795000Y-7717524D02*
X12775952Y-7708000D01*
X12775952Y-7708000D02*
X12766428Y-7688952D01*
X12766428Y-7688952D02*
X12766428Y-7517524D01*
X13023571Y-7717524D02*
X13023571Y-7517524D01*
X13023571Y-7517524D02*
X13090238Y-7660381D01*
X13090238Y-7660381D02*
X13156905Y-7517524D01*
X13156905Y-7517524D02*
X13156905Y-7717524D01*
X13337857Y-7717524D02*
X13337857Y-7612762D01*
X13337857Y-7612762D02*
X13328333Y-7593714D01*
X13328333Y-7593714D02*
X13309286Y-7584190D01*
X13309286Y-7584190D02*
X13271190Y-7584190D01*
X13271190Y-7584190D02*
X13252143Y-7593714D01*
X13337857Y-7708000D02*
X13318809Y-7717524D01*
X13318809Y-7717524D02*
X13271190Y-7717524D01*
X13271190Y-7717524D02*
X13252143Y-7708000D01*
X13252143Y-7708000D02*
X13242619Y-7688952D01*
X13242619Y-7688952D02*
X13242619Y-7669905D01*
X13242619Y-7669905D02*
X13252143Y-7650857D01*
X13252143Y-7650857D02*
X13271190Y-7641333D01*
X13271190Y-7641333D02*
X13318809Y-7641333D01*
X13318809Y-7641333D02*
X13337857Y-7631809D01*
X13433095Y-7584190D02*
X13433095Y-7784190D01*
X13433095Y-7593714D02*
X13452143Y-7584190D01*
X13452143Y-7584190D02*
X13490238Y-7584190D01*
X13490238Y-7584190D02*
X13509286Y-7593714D01*
X13509286Y-7593714D02*
X13518809Y-7603238D01*
X13518809Y-7603238D02*
X13528333Y-7622286D01*
X13528333Y-7622286D02*
X13528333Y-7679428D01*
X13528333Y-7679428D02*
X13518809Y-7698476D01*
X13518809Y-7698476D02*
X13509286Y-7708000D01*
X13509286Y-7708000D02*
X13490238Y-7717524D01*
X13490238Y-7717524D02*
X13452143Y-7717524D01*
X13452143Y-7717524D02*
X13433095Y-7708000D01*
X13614048Y-7698476D02*
X13623571Y-7708000D01*
X13623571Y-7708000D02*
X13614048Y-7717524D01*
X13614048Y-7717524D02*
X13604524Y-7708000D01*
X13604524Y-7708000D02*
X13614048Y-7698476D01*
X13614048Y-7698476D02*
X13614048Y-7717524D01*
X13614048Y-7593714D02*
X13623571Y-7603238D01*
X13623571Y-7603238D02*
X13614048Y-7612762D01*
X13614048Y-7612762D02*
X13604524Y-7603238D01*
X13604524Y-7603238D02*
X13614048Y-7593714D01*
X13614048Y-7593714D02*
X13614048Y-7612762D01*
X11795000Y-7945000D02*
X11995000Y-8145000D01*
X11995000Y-7945000D02*
X11795000Y-8145000D01*
X12233095Y-7956571D02*
X12242619Y-7947048D01*
X12242619Y-7947048D02*
X12261667Y-7937524D01*
X12261667Y-7937524D02*
X12309286Y-7937524D01*
X12309286Y-7937524D02*
X12328333Y-7947048D01*
X12328333Y-7947048D02*
X12337857Y-7956571D01*
X12337857Y-7956571D02*
X12347381Y-7975619D01*
X12347381Y-7975619D02*
X12347381Y-7994667D01*
X12347381Y-7994667D02*
X12337857Y-8023238D01*
X12337857Y-8023238D02*
X12223571Y-8137524D01*
X12223571Y-8137524D02*
X12347381Y-8137524D01*
X12433095Y-8118476D02*
X12442619Y-8128000D01*
X12442619Y-8128000D02*
X12433095Y-8137524D01*
X12433095Y-8137524D02*
X12423571Y-8128000D01*
X12423571Y-8128000D02*
X12433095Y-8118476D01*
X12433095Y-8118476D02*
X12433095Y-8137524D01*
X12623571Y-7937524D02*
X12528333Y-7937524D01*
X12528333Y-7937524D02*
X12518809Y-8032762D01*
X12518809Y-8032762D02*
X12528333Y-8023238D01*
X12528333Y-8023238D02*
X12547381Y-8013714D01*
X12547381Y-8013714D02*
X12595000Y-8013714D01*
X12595000Y-8013714D02*
X12614048Y-8023238D01*
X12614048Y-8023238D02*
X12623571Y-8032762D01*
X12623571Y-8032762D02*
X12633095Y-8051809D01*
X12633095Y-8051809D02*
X12633095Y-8099428D01*
X12633095Y-8099428D02*
X12623571Y-8118476D01*
X12623571Y-8118476D02*
X12614048Y-8128000D01*
X12614048Y-8128000D02*
X12595000Y-8137524D01*
X12595000Y-8137524D02*
X12547381Y-8137524D01*
X12547381Y-8137524D02*
X12528333Y-8128000D01*
X12528333Y-8128000D02*
X12518809Y-8118476D01*
X12756905Y-7937524D02*
X12775952Y-7937524D01*
X12775952Y-7937524D02*
X12795000Y-7947048D01*
X12795000Y-7947048D02*
X12804524Y-7956571D01*
X12804524Y-7956571D02*
X12814048Y-7975619D01*
X12814048Y-7975619D02*
X12823571Y-8013714D01*
X12823571Y-8013714D02*
X12823571Y-8061333D01*
X12823571Y-8061333D02*
X12814048Y-8099428D01*
X12814048Y-8099428D02*
X12804524Y-8118476D01*
X12804524Y-8118476D02*
X12795000Y-8128000D01*
X12795000Y-8128000D02*
X12775952Y-8137524D01*
X12775952Y-8137524D02*
X12756905Y-8137524D01*
X12756905Y-8137524D02*
X12737857Y-8128000D01*
X12737857Y-8128000D02*
X12728333Y-8118476D01*
X12728333Y-8118476D02*
X12718809Y-8099428D01*
X12718809Y-8099428D02*
X12709286Y-8061333D01*
X12709286Y-8061333D02*
X12709286Y-8013714D01*
X12709286Y-8013714D02*
X12718809Y-7975619D01*
X12718809Y-7975619D02*
X12728333Y-7956571D01*
X12728333Y-7956571D02*
X12737857Y-7947048D01*
X12737857Y-7947048D02*
X12756905Y-7937524D01*
X12947381Y-7937524D02*
X12966429Y-7937524D01*
X12966429Y-7937524D02*
X12985476Y-7947048D01*
X12985476Y-7947048D02*
X12995000Y-7956571D01*
X12995000Y-7956571D02*
X13004524Y-7975619D01*
X13004524Y-7975619D02*
X13014048Y-8013714D01*
X13014048Y-8013714D02*
X13014048Y-8061333D01*
X13014048Y-8061333D02*
X13004524Y-8099428D01*
X13004524Y-8099428D02*
X12995000Y-8118476D01*
X12995000Y-8118476D02*
X12985476Y-8128000D01*
X12985476Y-8128000D02*
X12966429Y-8137524D01*
X12966429Y-8137524D02*
X12947381Y-8137524D01*
X12947381Y-8137524D02*
X12928333Y-8128000D01*
X12928333Y-8128000D02*
X12918809Y-8118476D01*
X12918809Y-8118476D02*
X12909286Y-8099428D01*
X12909286Y-8099428D02*
X12899762Y-8061333D01*
X12899762Y-8061333D02*
X12899762Y-8013714D01*
X12899762Y-8013714D02*
X12909286Y-7975619D01*
X12909286Y-7975619D02*
X12918809Y-7956571D01*
X12918809Y-7956571D02*
X12928333Y-7947048D01*
X12928333Y-7947048D02*
X12947381Y-7937524D01*
X13099762Y-8137524D02*
X13099762Y-8004190D01*
X13099762Y-8023238D02*
X13109286Y-8013714D01*
X13109286Y-8013714D02*
X13128333Y-8004190D01*
X13128333Y-8004190D02*
X13156905Y-8004190D01*
X13156905Y-8004190D02*
X13175952Y-8013714D01*
X13175952Y-8013714D02*
X13185476Y-8032762D01*
X13185476Y-8032762D02*
X13185476Y-8137524D01*
X13185476Y-8032762D02*
X13195000Y-8013714D01*
X13195000Y-8013714D02*
X13214048Y-8004190D01*
X13214048Y-8004190D02*
X13242619Y-8004190D01*
X13242619Y-8004190D02*
X13261667Y-8013714D01*
X13261667Y-8013714D02*
X13271190Y-8032762D01*
X13271190Y-8032762D02*
X13271190Y-8137524D01*
X13366429Y-8137524D02*
X13366429Y-8004190D01*
X13366429Y-8023238D02*
X13375952Y-8013714D01*
X13375952Y-8013714D02*
X13395000Y-8004190D01*
X13395000Y-8004190D02*
X13423571Y-8004190D01*
X13423571Y-8004190D02*
X13442619Y-8013714D01*
X13442619Y-8013714D02*
X13452143Y-8032762D01*
X13452143Y-8032762D02*
X13452143Y-8137524D01*
X13452143Y-8032762D02*
X13461667Y-8013714D01*
X13461667Y-8013714D02*
X13480714Y-8004190D01*
X13480714Y-8004190D02*
X13509286Y-8004190D01*
X13509286Y-8004190D02*
X13528333Y-8013714D01*
X13528333Y-8013714D02*
X13537857Y-8032762D01*
X13537857Y-8032762D02*
X13537857Y-8137524D01*
X13928333Y-7928000D02*
X13756905Y-8185143D01*
X14185476Y-7937524D02*
X14204524Y-7937524D01*
X14204524Y-7937524D02*
X14223572Y-7947048D01*
X14223572Y-7947048D02*
X14233095Y-7956571D01*
X14233095Y-7956571D02*
X14242619Y-7975619D01*
X14242619Y-7975619D02*
X14252143Y-8013714D01*
X14252143Y-8013714D02*
X14252143Y-8061333D01*
X14252143Y-8061333D02*
X14242619Y-8099428D01*
X14242619Y-8099428D02*
X14233095Y-8118476D01*
X14233095Y-8118476D02*
X14223572Y-8128000D01*
X14223572Y-8128000D02*
X14204524Y-8137524D01*
X14204524Y-8137524D02*
X14185476Y-8137524D01*
X14185476Y-8137524D02*
X14166429Y-8128000D01*
X14166429Y-8128000D02*
X14156905Y-8118476D01*
X14156905Y-8118476D02*
X14147381Y-8099428D01*
X14147381Y-8099428D02*
X14137857Y-8061333D01*
X14137857Y-8061333D02*
X14137857Y-8013714D01*
X14137857Y-8013714D02*
X14147381Y-7975619D01*
X14147381Y-7975619D02*
X14156905Y-7956571D01*
X14156905Y-7956571D02*
X14166429Y-7947048D01*
X14166429Y-7947048D02*
X14185476Y-7937524D01*
X14337857Y-8118476D02*
X14347381Y-8128000D01*
X14347381Y-8128000D02*
X14337857Y-8137524D01*
X14337857Y-8137524D02*
X14328333Y-8128000D01*
X14328333Y-8128000D02*
X14337857Y-8118476D01*
X14337857Y-8118476D02*
X14337857Y-8137524D01*
X14471191Y-7937524D02*
X14490238Y-7937524D01*
X14490238Y-7937524D02*
X14509286Y-7947048D01*
X14509286Y-7947048D02*
X14518810Y-7956571D01*
X14518810Y-7956571D02*
X14528333Y-7975619D01*
X14528333Y-7975619D02*
X14537857Y-8013714D01*
X14537857Y-8013714D02*
X14537857Y-8061333D01*
X14537857Y-8061333D02*
X14528333Y-8099428D01*
X14528333Y-8099428D02*
X14518810Y-8118476D01*
X14518810Y-8118476D02*
X14509286Y-8128000D01*
X14509286Y-8128000D02*
X14490238Y-8137524D01*
X14490238Y-8137524D02*
X14471191Y-8137524D01*
X14471191Y-8137524D02*
X14452143Y-8128000D01*
X14452143Y-8128000D02*
X14442619Y-8118476D01*
X14442619Y-8118476D02*
X14433095Y-8099428D01*
X14433095Y-8099428D02*
X14423572Y-8061333D01*
X14423572Y-8061333D02*
X14423572Y-8013714D01*
X14423572Y-8013714D02*
X14433095Y-7975619D01*
X14433095Y-7975619D02*
X14442619Y-7956571D01*
X14442619Y-7956571D02*
X14452143Y-7947048D01*
X14452143Y-7947048D02*
X14471191Y-7937524D01*
X14633095Y-8137524D02*
X14671191Y-8137524D01*
X14671191Y-8137524D02*
X14690238Y-8128000D01*
X14690238Y-8128000D02*
X14699762Y-8118476D01*
X14699762Y-8118476D02*
X14718810Y-8089905D01*
X14718810Y-8089905D02*
X14728333Y-8051809D01*
X14728333Y-8051809D02*
X14728333Y-7975619D01*
X14728333Y-7975619D02*
X14718810Y-7956571D01*
X14718810Y-7956571D02*
X14709286Y-7947048D01*
X14709286Y-7947048D02*
X14690238Y-7937524D01*
X14690238Y-7937524D02*
X14652143Y-7937524D01*
X14652143Y-7937524D02*
X14633095Y-7947048D01*
X14633095Y-7947048D02*
X14623572Y-7956571D01*
X14623572Y-7956571D02*
X14614048Y-7975619D01*
X14614048Y-7975619D02*
X14614048Y-8023238D01*
X14614048Y-8023238D02*
X14623572Y-8042286D01*
X14623572Y-8042286D02*
X14633095Y-8051809D01*
X14633095Y-8051809D02*
X14652143Y-8061333D01*
X14652143Y-8061333D02*
X14690238Y-8061333D01*
X14690238Y-8061333D02*
X14709286Y-8051809D01*
X14709286Y-8051809D02*
X14718810Y-8042286D01*
X14718810Y-8042286D02*
X14728333Y-8023238D01*
X14842619Y-8023238D02*
X14823572Y-8013714D01*
X14823572Y-8013714D02*
X14814048Y-8004190D01*
X14814048Y-8004190D02*
X14804524Y-7985143D01*
X14804524Y-7985143D02*
X14804524Y-7975619D01*
X14804524Y-7975619D02*
X14814048Y-7956571D01*
X14814048Y-7956571D02*
X14823572Y-7947048D01*
X14823572Y-7947048D02*
X14842619Y-7937524D01*
X14842619Y-7937524D02*
X14880714Y-7937524D01*
X14880714Y-7937524D02*
X14899762Y-7947048D01*
X14899762Y-7947048D02*
X14909286Y-7956571D01*
X14909286Y-7956571D02*
X14918810Y-7975619D01*
X14918810Y-7975619D02*
X14918810Y-7985143D01*
X14918810Y-7985143D02*
X14909286Y-8004190D01*
X14909286Y-8004190D02*
X14899762Y-8013714D01*
X14899762Y-8013714D02*
X14880714Y-8023238D01*
X14880714Y-8023238D02*
X14842619Y-8023238D01*
X14842619Y-8023238D02*
X14823572Y-8032762D01*
X14823572Y-8032762D02*
X14814048Y-8042286D01*
X14814048Y-8042286D02*
X14804524Y-8061333D01*
X14804524Y-8061333D02*
X14804524Y-8099428D01*
X14804524Y-8099428D02*
X14814048Y-8118476D01*
X14814048Y-8118476D02*
X14823572Y-8128000D01*
X14823572Y-8128000D02*
X14842619Y-8137524D01*
X14842619Y-8137524D02*
X14880714Y-8137524D01*
X14880714Y-8137524D02*
X14899762Y-8128000D01*
X14899762Y-8128000D02*
X14909286Y-8118476D01*
X14909286Y-8118476D02*
X14918810Y-8099428D01*
X14918810Y-8099428D02*
X14918810Y-8061333D01*
X14918810Y-8061333D02*
X14909286Y-8042286D01*
X14909286Y-8042286D02*
X14899762Y-8032762D01*
X14899762Y-8032762D02*
X14880714Y-8023238D01*
X15090238Y-8004190D02*
X15090238Y-8137524D01*
X15042619Y-7928000D02*
X14995000Y-8070857D01*
X14995000Y-8070857D02*
X15118810Y-8070857D01*
X15185476Y-7937524D02*
X15185476Y-7975619D01*
X15261667Y-7937524D02*
X15261667Y-7975619D01*
X15556905Y-8213714D02*
X15547381Y-8204190D01*
X15547381Y-8204190D02*
X15528334Y-8175619D01*
X15528334Y-8175619D02*
X15518810Y-8156571D01*
X15518810Y-8156571D02*
X15509286Y-8128000D01*
X15509286Y-8128000D02*
X15499762Y-8080381D01*
X15499762Y-8080381D02*
X15499762Y-8042286D01*
X15499762Y-8042286D02*
X15509286Y-7994667D01*
X15509286Y-7994667D02*
X15518810Y-7966095D01*
X15518810Y-7966095D02*
X15528334Y-7947048D01*
X15528334Y-7947048D02*
X15547381Y-7918476D01*
X15547381Y-7918476D02*
X15556905Y-7908952D01*
X15661667Y-8023238D02*
X15642619Y-8013714D01*
X15642619Y-8013714D02*
X15633095Y-8004190D01*
X15633095Y-8004190D02*
X15623572Y-7985143D01*
X15623572Y-7985143D02*
X15623572Y-7975619D01*
X15623572Y-7975619D02*
X15633095Y-7956571D01*
X15633095Y-7956571D02*
X15642619Y-7947048D01*
X15642619Y-7947048D02*
X15661667Y-7937524D01*
X15661667Y-7937524D02*
X15699762Y-7937524D01*
X15699762Y-7937524D02*
X15718810Y-7947048D01*
X15718810Y-7947048D02*
X15728334Y-7956571D01*
X15728334Y-7956571D02*
X15737857Y-7975619D01*
X15737857Y-7975619D02*
X15737857Y-7985143D01*
X15737857Y-7985143D02*
X15728334Y-8004190D01*
X15728334Y-8004190D02*
X15718810Y-8013714D01*
X15718810Y-8013714D02*
X15699762Y-8023238D01*
X15699762Y-8023238D02*
X15661667Y-8023238D01*
X15661667Y-8023238D02*
X15642619Y-8032762D01*
X15642619Y-8032762D02*
X15633095Y-8042286D01*
X15633095Y-8042286D02*
X15623572Y-8061333D01*
X15623572Y-8061333D02*
X15623572Y-8099428D01*
X15623572Y-8099428D02*
X15633095Y-8118476D01*
X15633095Y-8118476D02*
X15642619Y-8128000D01*
X15642619Y-8128000D02*
X15661667Y-8137524D01*
X15661667Y-8137524D02*
X15699762Y-8137524D01*
X15699762Y-8137524D02*
X15718810Y-8128000D01*
X15718810Y-8128000D02*
X15728334Y-8118476D01*
X15728334Y-8118476D02*
X15737857Y-8099428D01*
X15737857Y-8099428D02*
X15737857Y-8061333D01*
X15737857Y-8061333D02*
X15728334Y-8042286D01*
X15728334Y-8042286D02*
X15718810Y-8032762D01*
X15718810Y-8032762D02*
X15699762Y-8023238D01*
X15975953Y-8137524D02*
X15975953Y-7937524D01*
X16061667Y-8137524D02*
X16061667Y-8032762D01*
X16061667Y-8032762D02*
X16052143Y-8013714D01*
X16052143Y-8013714D02*
X16033096Y-8004190D01*
X16033096Y-8004190D02*
X16004524Y-8004190D01*
X16004524Y-8004190D02*
X15985476Y-8013714D01*
X15985476Y-8013714D02*
X15975953Y-8023238D01*
X16185476Y-8137524D02*
X16166429Y-8128000D01*
X16166429Y-8128000D02*
X16156905Y-8118476D01*
X16156905Y-8118476D02*
X16147381Y-8099428D01*
X16147381Y-8099428D02*
X16147381Y-8042286D01*
X16147381Y-8042286D02*
X16156905Y-8023238D01*
X16156905Y-8023238D02*
X16166429Y-8013714D01*
X16166429Y-8013714D02*
X16185476Y-8004190D01*
X16185476Y-8004190D02*
X16214048Y-8004190D01*
X16214048Y-8004190D02*
X16233096Y-8013714D01*
X16233096Y-8013714D02*
X16242619Y-8023238D01*
X16242619Y-8023238D02*
X16252143Y-8042286D01*
X16252143Y-8042286D02*
X16252143Y-8099428D01*
X16252143Y-8099428D02*
X16242619Y-8118476D01*
X16242619Y-8118476D02*
X16233096Y-8128000D01*
X16233096Y-8128000D02*
X16214048Y-8137524D01*
X16214048Y-8137524D02*
X16185476Y-8137524D01*
X16366429Y-8137524D02*
X16347381Y-8128000D01*
X16347381Y-8128000D02*
X16337857Y-8108952D01*
X16337857Y-8108952D02*
X16337857Y-7937524D01*
X16518810Y-8128000D02*
X16499762Y-8137524D01*
X16499762Y-8137524D02*
X16461667Y-8137524D01*
X16461667Y-8137524D02*
X16442619Y-8128000D01*
X16442619Y-8128000D02*
X16433096Y-8108952D01*
X16433096Y-8108952D02*
X16433096Y-8032762D01*
X16433096Y-8032762D02*
X16442619Y-8013714D01*
X16442619Y-8013714D02*
X16461667Y-8004190D01*
X16461667Y-8004190D02*
X16499762Y-8004190D01*
X16499762Y-8004190D02*
X16518810Y-8013714D01*
X16518810Y-8013714D02*
X16528334Y-8032762D01*
X16528334Y-8032762D02*
X16528334Y-8051809D01*
X16528334Y-8051809D02*
X16433096Y-8070857D01*
X16604524Y-8128000D02*
X16623572Y-8137524D01*
X16623572Y-8137524D02*
X16661667Y-8137524D01*
X16661667Y-8137524D02*
X16680715Y-8128000D01*
X16680715Y-8128000D02*
X16690238Y-8108952D01*
X16690238Y-8108952D02*
X16690238Y-8099428D01*
X16690238Y-8099428D02*
X16680715Y-8080381D01*
X16680715Y-8080381D02*
X16661667Y-8070857D01*
X16661667Y-8070857D02*
X16633096Y-8070857D01*
X16633096Y-8070857D02*
X16614048Y-8061333D01*
X16614048Y-8061333D02*
X16604524Y-8042286D01*
X16604524Y-8042286D02*
X16604524Y-8032762D01*
X16604524Y-8032762D02*
X16614048Y-8013714D01*
X16614048Y-8013714D02*
X16633096Y-8004190D01*
X16633096Y-8004190D02*
X16661667Y-8004190D01*
X16661667Y-8004190D02*
X16680715Y-8013714D01*
X16756905Y-8213714D02*
X16766429Y-8204190D01*
X16766429Y-8204190D02*
X16785477Y-8175619D01*
X16785477Y-8175619D02*
X16795000Y-8156571D01*
X16795000Y-8156571D02*
X16804524Y-8128000D01*
X16804524Y-8128000D02*
X16814048Y-8080381D01*
X16814048Y-8080381D02*
X16814048Y-8042286D01*
X16814048Y-8042286D02*
X16804524Y-7994667D01*
X16804524Y-7994667D02*
X16795000Y-7966095D01*
X16795000Y-7966095D02*
X16785477Y-7947048D01*
X16785477Y-7947048D02*
X16766429Y-7918476D01*
X16766429Y-7918476D02*
X16756905Y-7908952D01*
X17118810Y-8213714D02*
X17109286Y-8204190D01*
X17109286Y-8204190D02*
X17090239Y-8175619D01*
X17090239Y-8175619D02*
X17080715Y-8156571D01*
X17080715Y-8156571D02*
X17071191Y-8128000D01*
X17071191Y-8128000D02*
X17061667Y-8080381D01*
X17061667Y-8080381D02*
X17061667Y-8042286D01*
X17061667Y-8042286D02*
X17071191Y-7994667D01*
X17071191Y-7994667D02*
X17080715Y-7966095D01*
X17080715Y-7966095D02*
X17090239Y-7947048D01*
X17090239Y-7947048D02*
X17109286Y-7918476D01*
X17109286Y-7918476D02*
X17118810Y-7908952D01*
X17195000Y-8004190D02*
X17195000Y-8137524D01*
X17195000Y-8023238D02*
X17204524Y-8013714D01*
X17204524Y-8013714D02*
X17223572Y-8004190D01*
X17223572Y-8004190D02*
X17252143Y-8004190D01*
X17252143Y-8004190D02*
X17271191Y-8013714D01*
X17271191Y-8013714D02*
X17280715Y-8032762D01*
X17280715Y-8032762D02*
X17280715Y-8137524D01*
X17404524Y-8137524D02*
X17385477Y-8128000D01*
X17385477Y-8128000D02*
X17375953Y-8118476D01*
X17375953Y-8118476D02*
X17366429Y-8099428D01*
X17366429Y-8099428D02*
X17366429Y-8042286D01*
X17366429Y-8042286D02*
X17375953Y-8023238D01*
X17375953Y-8023238D02*
X17385477Y-8013714D01*
X17385477Y-8013714D02*
X17404524Y-8004190D01*
X17404524Y-8004190D02*
X17433096Y-8004190D01*
X17433096Y-8004190D02*
X17452143Y-8013714D01*
X17452143Y-8013714D02*
X17461667Y-8023238D01*
X17461667Y-8023238D02*
X17471191Y-8042286D01*
X17471191Y-8042286D02*
X17471191Y-8099428D01*
X17471191Y-8099428D02*
X17461667Y-8118476D01*
X17461667Y-8118476D02*
X17452143Y-8128000D01*
X17452143Y-8128000D02*
X17433096Y-8137524D01*
X17433096Y-8137524D02*
X17404524Y-8137524D01*
X17528334Y-8004190D02*
X17604524Y-8004190D01*
X17556905Y-7937524D02*
X17556905Y-8108952D01*
X17556905Y-8108952D02*
X17566429Y-8128000D01*
X17566429Y-8128000D02*
X17585477Y-8137524D01*
X17585477Y-8137524D02*
X17604524Y-8137524D01*
X17823572Y-8004190D02*
X17823572Y-8204190D01*
X17823572Y-8013714D02*
X17842620Y-8004190D01*
X17842620Y-8004190D02*
X17880715Y-8004190D01*
X17880715Y-8004190D02*
X17899762Y-8013714D01*
X17899762Y-8013714D02*
X17909286Y-8023238D01*
X17909286Y-8023238D02*
X17918810Y-8042286D01*
X17918810Y-8042286D02*
X17918810Y-8099428D01*
X17918810Y-8099428D02*
X17909286Y-8118476D01*
X17909286Y-8118476D02*
X17899762Y-8128000D01*
X17899762Y-8128000D02*
X17880715Y-8137524D01*
X17880715Y-8137524D02*
X17842620Y-8137524D01*
X17842620Y-8137524D02*
X17823572Y-8128000D01*
X18033096Y-8137524D02*
X18014048Y-8128000D01*
X18014048Y-8128000D02*
X18004524Y-8108952D01*
X18004524Y-8108952D02*
X18004524Y-7937524D01*
X18195001Y-8137524D02*
X18195001Y-8032762D01*
X18195001Y-8032762D02*
X18185477Y-8013714D01*
X18185477Y-8013714D02*
X18166429Y-8004190D01*
X18166429Y-8004190D02*
X18128334Y-8004190D01*
X18128334Y-8004190D02*
X18109286Y-8013714D01*
X18195001Y-8128000D02*
X18175953Y-8137524D01*
X18175953Y-8137524D02*
X18128334Y-8137524D01*
X18128334Y-8137524D02*
X18109286Y-8128000D01*
X18109286Y-8128000D02*
X18099762Y-8108952D01*
X18099762Y-8108952D02*
X18099762Y-8089905D01*
X18099762Y-8089905D02*
X18109286Y-8070857D01*
X18109286Y-8070857D02*
X18128334Y-8061333D01*
X18128334Y-8061333D02*
X18175953Y-8061333D01*
X18175953Y-8061333D02*
X18195001Y-8051809D01*
X18261667Y-8004190D02*
X18337858Y-8004190D01*
X18290239Y-7937524D02*
X18290239Y-8108952D01*
X18290239Y-8108952D02*
X18299762Y-8128000D01*
X18299762Y-8128000D02*
X18318810Y-8137524D01*
X18318810Y-8137524D02*
X18337858Y-8137524D01*
X18480715Y-8128000D02*
X18461667Y-8137524D01*
X18461667Y-8137524D02*
X18423572Y-8137524D01*
X18423572Y-8137524D02*
X18404524Y-8128000D01*
X18404524Y-8128000D02*
X18395001Y-8108952D01*
X18395001Y-8108952D02*
X18395001Y-8032762D01*
X18395001Y-8032762D02*
X18404524Y-8013714D01*
X18404524Y-8013714D02*
X18423572Y-8004190D01*
X18423572Y-8004190D02*
X18461667Y-8004190D01*
X18461667Y-8004190D02*
X18480715Y-8013714D01*
X18480715Y-8013714D02*
X18490239Y-8032762D01*
X18490239Y-8032762D02*
X18490239Y-8051809D01*
X18490239Y-8051809D02*
X18395001Y-8070857D01*
X18661667Y-8137524D02*
X18661667Y-7937524D01*
X18661667Y-8128000D02*
X18642620Y-8137524D01*
X18642620Y-8137524D02*
X18604524Y-8137524D01*
X18604524Y-8137524D02*
X18585477Y-8128000D01*
X18585477Y-8128000D02*
X18575953Y-8118476D01*
X18575953Y-8118476D02*
X18566429Y-8099428D01*
X18566429Y-8099428D02*
X18566429Y-8042286D01*
X18566429Y-8042286D02*
X18575953Y-8023238D01*
X18575953Y-8023238D02*
X18585477Y-8013714D01*
X18585477Y-8013714D02*
X18604524Y-8004190D01*
X18604524Y-8004190D02*
X18642620Y-8004190D01*
X18642620Y-8004190D02*
X18661667Y-8013714D01*
X18737858Y-8213714D02*
X18747382Y-8204190D01*
X18747382Y-8204190D02*
X18766429Y-8175619D01*
X18766429Y-8175619D02*
X18775953Y-8156571D01*
X18775953Y-8156571D02*
X18785477Y-8128000D01*
X18785477Y-8128000D02*
X18795001Y-8080381D01*
X18795001Y-8080381D02*
X18795001Y-8042286D01*
X18795001Y-8042286D02*
X18785477Y-7994667D01*
X18785477Y-7994667D02*
X18775953Y-7966095D01*
X18775953Y-7966095D02*
X18766429Y-7947048D01*
X18766429Y-7947048D02*
X18747382Y-7918476D01*
X18747382Y-7918476D02*
X18737858Y-7908952D01*
M02*
