G04 #@! TF.GenerationSoftware,KiCad,Pcbnew,7.0.2*
G04 #@! TF.CreationDate,2023-06-01T00:45:36-07:00*
G04 #@! TF.ProjectId,Reflow Skillet Rev 1,5265666c-6f77-4205-936b-696c6c657420,rev?*
G04 #@! TF.SameCoordinates,Original*
G04 #@! TF.FileFunction,Copper,L2,Bot*
G04 #@! TF.FilePolarity,Positive*
%FSLAX46Y46*%
G04 Gerber Fmt 4.6, Leading zero omitted, Abs format (unit mm)*
G04 Created by KiCad (PCBNEW 7.0.2) date 2023-06-01 00:45:36*
%MOMM*%
%LPD*%
G01*
G04 APERTURE LIST*
G04 #@! TA.AperFunction,ComponentPad*
%ADD10C,1.778000*%
G04 #@! TD*
G04 #@! TA.AperFunction,ComponentPad*
%ADD11R,1.700000X1.700000*%
G04 #@! TD*
G04 #@! TA.AperFunction,ComponentPad*
%ADD12C,1.700000*%
G04 #@! TD*
G04 #@! TA.AperFunction,ComponentPad*
%ADD13R,2.100000X2.100000*%
G04 #@! TD*
G04 #@! TA.AperFunction,ComponentPad*
%ADD14C,2.100000*%
G04 #@! TD*
G04 #@! TA.AperFunction,ViaPad*
%ADD15C,0.800000*%
G04 #@! TD*
G04 #@! TA.AperFunction,Conductor*
%ADD16C,0.250000*%
G04 #@! TD*
G04 APERTURE END LIST*
D10*
X190080000Y-57000000D03*
X187540000Y-57000000D03*
X185000000Y-57000000D03*
X182460000Y-57000000D03*
X179920000Y-57000000D03*
X177380000Y-57000000D03*
X174840000Y-57000000D03*
X172300000Y-57000000D03*
X169760000Y-57000000D03*
X167220000Y-57000000D03*
X164680000Y-57000000D03*
X162140000Y-57000000D03*
X190080000Y-72240000D03*
X187540000Y-72240000D03*
X185000000Y-72240000D03*
X182460000Y-72240000D03*
X179920000Y-72240000D03*
X177380000Y-72240000D03*
X174840000Y-72240000D03*
X172300000Y-72240000D03*
X169760000Y-72240000D03*
X167220000Y-72240000D03*
X164680000Y-72240000D03*
X162140000Y-72240000D03*
D11*
X147500000Y-70500000D03*
D12*
X141000000Y-70500000D03*
X147500000Y-66000000D03*
X141000000Y-66000000D03*
D10*
X147239000Y-34632000D03*
X144699000Y-34632000D03*
X142159000Y-34632000D03*
X139619000Y-34632000D03*
X137079000Y-34632000D03*
X134539000Y-34632000D03*
X131999000Y-34632000D03*
X129459000Y-34632000D03*
D13*
X194000000Y-53000000D03*
D14*
X194000000Y-50460000D03*
D10*
X169872000Y-53160000D03*
X169872000Y-50620000D03*
X169872000Y-48080000D03*
X169872000Y-45540000D03*
X169872000Y-43000000D03*
X169872000Y-40460000D03*
X169872000Y-37920000D03*
X169872000Y-35380000D03*
X169872000Y-32840000D03*
D11*
X136000000Y-70500000D03*
D12*
X129500000Y-70500000D03*
X136000000Y-66000000D03*
X129500000Y-66000000D03*
D15*
X163500000Y-54750000D03*
X166000000Y-54750000D03*
X135750000Y-38500000D03*
X138500000Y-38500000D03*
X167000000Y-63500000D03*
X174750000Y-41750000D03*
X174750000Y-44250000D03*
X179500000Y-46000000D03*
X177000000Y-48500000D03*
X176500000Y-52000000D03*
X133000000Y-39000000D03*
X155000000Y-47500000D03*
X144500000Y-42000000D03*
X157500000Y-45500000D03*
X181500000Y-64000000D03*
X149500000Y-59500000D03*
X161000000Y-45500000D03*
X141000000Y-41000000D03*
X147000000Y-50000000D03*
X149500000Y-52500000D03*
X136000000Y-41000000D03*
X146000000Y-50500000D03*
X148750000Y-53250000D03*
X145502531Y-51497469D03*
X147760813Y-53739187D03*
X177000000Y-44500000D03*
X177000000Y-46500000D03*
X166000000Y-51000000D03*
X168000000Y-51000000D03*
X168000000Y-53000000D03*
X166000000Y-53000000D03*
X160000000Y-35000000D03*
X164000000Y-39000000D03*
X138000000Y-60000000D03*
D16*
X177000000Y-48500000D02*
X179500000Y-46000000D01*
X177000000Y-46500000D02*
X177000000Y-44500000D01*
X141000000Y-41000000D02*
X136000000Y-41000000D01*
X157500000Y-45500000D02*
X161000000Y-45500000D01*
X149500000Y-52500000D02*
X147000000Y-50000000D01*
X148750000Y-53250000D02*
X146000000Y-50500000D01*
X147760813Y-53739187D02*
X145502531Y-51497469D01*
X166000000Y-51000000D02*
X168000000Y-51000000D01*
X166000000Y-53000000D02*
X168000000Y-53000000D01*
X164000000Y-39000000D02*
X160000000Y-35000000D01*
G04 #@! TA.AperFunction,Conductor*
G36*
X195003472Y-30200695D02*
G01*
X195306503Y-30217713D01*
X195320301Y-30219267D01*
X195616080Y-30269522D01*
X195629636Y-30272616D01*
X195917927Y-30355672D01*
X195931051Y-30360265D01*
X196208222Y-30475072D01*
X196220744Y-30481101D01*
X196423184Y-30592986D01*
X196483328Y-30626227D01*
X196495102Y-30633625D01*
X196739789Y-30807239D01*
X196750657Y-30815907D01*
X196974352Y-31015815D01*
X196984184Y-31025647D01*
X197184092Y-31249342D01*
X197192763Y-31260214D01*
X197366374Y-31504897D01*
X197373772Y-31516671D01*
X197518894Y-31779248D01*
X197524927Y-31791777D01*
X197639734Y-32068948D01*
X197644327Y-32082072D01*
X197727383Y-32370363D01*
X197730477Y-32383920D01*
X197780730Y-32679688D01*
X197782287Y-32693506D01*
X197799305Y-32996527D01*
X197799500Y-33003480D01*
X197799500Y-70996519D01*
X197799305Y-71003472D01*
X197782287Y-71306493D01*
X197780730Y-71320311D01*
X197730477Y-71616079D01*
X197727383Y-71629636D01*
X197644327Y-71917927D01*
X197639734Y-71931051D01*
X197524927Y-72208222D01*
X197518894Y-72220751D01*
X197373772Y-72483328D01*
X197366374Y-72495102D01*
X197192763Y-72739785D01*
X197184092Y-72750657D01*
X196984184Y-72974352D01*
X196974352Y-72984184D01*
X196750657Y-73184092D01*
X196739785Y-73192763D01*
X196495102Y-73366374D01*
X196483328Y-73373772D01*
X196220751Y-73518894D01*
X196208222Y-73524927D01*
X195931051Y-73639734D01*
X195917927Y-73644327D01*
X195629636Y-73727383D01*
X195616079Y-73730477D01*
X195320311Y-73780730D01*
X195306493Y-73782287D01*
X195003472Y-73799305D01*
X194996519Y-73799500D01*
X190559765Y-73799500D01*
X190492726Y-73779815D01*
X190446971Y-73727011D01*
X190437027Y-73657853D01*
X190466052Y-73594297D01*
X190519502Y-73558219D01*
X190561172Y-73543912D01*
X190640069Y-73516828D01*
X190842589Y-73407229D01*
X191024308Y-73265792D01*
X191180269Y-73096373D01*
X191306217Y-72903595D01*
X191398717Y-72692716D01*
X191455246Y-72469488D01*
X191474262Y-72240000D01*
X191455246Y-72010512D01*
X191398717Y-71787284D01*
X191306217Y-71576405D01*
X191180269Y-71383627D01*
X191024308Y-71214208D01*
X190842589Y-71072771D01*
X190826092Y-71063843D01*
X193415643Y-71063843D01*
X193446403Y-71317171D01*
X193510879Y-71539766D01*
X193517399Y-71562276D01*
X193542381Y-71614925D01*
X193626794Y-71792822D01*
X193669821Y-71855157D01*
X193771754Y-72002832D01*
X193948525Y-72186870D01*
X194152529Y-72340169D01*
X194274179Y-72404016D01*
X194378478Y-72458757D01*
X194378481Y-72458758D01*
X194620531Y-72539566D01*
X194777692Y-72565107D01*
X194872408Y-72580500D01*
X194872409Y-72580500D01*
X195061209Y-72580500D01*
X195063694Y-72580500D01*
X195254355Y-72565108D01*
X195502122Y-72504039D01*
X195736885Y-72404016D01*
X195952562Y-72267630D01*
X196143569Y-72098413D01*
X196304958Y-71900747D01*
X196432549Y-71679753D01*
X196523038Y-71441153D01*
X196574081Y-71191128D01*
X196581923Y-70996519D01*
X196584356Y-70936156D01*
X196574326Y-70853553D01*
X196553597Y-70682831D01*
X196482601Y-70437724D01*
X196373206Y-70207179D01*
X196346992Y-70169202D01*
X196298709Y-70099252D01*
X196228246Y-69997168D01*
X196051475Y-69813130D01*
X195847471Y-69659831D01*
X195743916Y-69605481D01*
X195621521Y-69541242D01*
X195379466Y-69460433D01*
X195127592Y-69419500D01*
X195127591Y-69419500D01*
X194936306Y-69419500D01*
X194933851Y-69419698D01*
X194933830Y-69419699D01*
X194745645Y-69434892D01*
X194497879Y-69495960D01*
X194263110Y-69595986D01*
X194047441Y-69732367D01*
X193856428Y-69901589D01*
X193695041Y-70099252D01*
X193567451Y-70320246D01*
X193476961Y-70558847D01*
X193425918Y-70808874D01*
X193415643Y-71063843D01*
X190826092Y-71063843D01*
X190640069Y-70963172D01*
X190640065Y-70963170D01*
X190640064Y-70963170D01*
X190422273Y-70888402D01*
X190270848Y-70863134D01*
X190195137Y-70850500D01*
X189964863Y-70850500D01*
X189908079Y-70859975D01*
X189737726Y-70888402D01*
X189519935Y-70963170D01*
X189317409Y-71072772D01*
X189135691Y-71214208D01*
X188979728Y-71383630D01*
X188913509Y-71484986D01*
X188860363Y-71530343D01*
X188791132Y-71539766D01*
X188727796Y-71510264D01*
X188705893Y-71484986D01*
X188683239Y-71450312D01*
X188029521Y-72104029D01*
X188006845Y-72026799D01*
X187927869Y-71903910D01*
X187817470Y-71808248D01*
X187684592Y-71747565D01*
X187679600Y-71746847D01*
X188330959Y-71095487D01*
X188330959Y-71095485D01*
X188302317Y-71073193D01*
X188099862Y-70963630D01*
X187882151Y-70888889D01*
X187655095Y-70851000D01*
X187424905Y-70851000D01*
X187197848Y-70888889D01*
X186980134Y-70963631D01*
X186777682Y-71073192D01*
X186749039Y-71095484D01*
X186749039Y-71095486D01*
X187400400Y-71746847D01*
X187395408Y-71747565D01*
X187262530Y-71808248D01*
X187152131Y-71903910D01*
X187073155Y-72026799D01*
X187050477Y-72104030D01*
X186396759Y-71450312D01*
X186374106Y-71484986D01*
X186320960Y-71530342D01*
X186251729Y-71539766D01*
X186188393Y-71510264D01*
X186166489Y-71484985D01*
X186143836Y-71450312D01*
X186100269Y-71383627D01*
X185944308Y-71214208D01*
X185762589Y-71072771D01*
X185560069Y-70963172D01*
X185560065Y-70963170D01*
X185560064Y-70963170D01*
X185342273Y-70888402D01*
X185190848Y-70863134D01*
X185115137Y-70850500D01*
X184884863Y-70850500D01*
X184828079Y-70859975D01*
X184657726Y-70888402D01*
X184439935Y-70963170D01*
X184237409Y-71072772D01*
X184055691Y-71214208D01*
X183960908Y-71317171D01*
X183899731Y-71383627D01*
X183862148Y-71441153D01*
X183833809Y-71484529D01*
X183780662Y-71529885D01*
X183711431Y-71539309D01*
X183648095Y-71509807D01*
X183626191Y-71484529D01*
X183603836Y-71450312D01*
X183560269Y-71383627D01*
X183404308Y-71214208D01*
X183222589Y-71072771D01*
X183020069Y-70963172D01*
X183020065Y-70963170D01*
X183020064Y-70963170D01*
X182802273Y-70888402D01*
X182650848Y-70863134D01*
X182575137Y-70850500D01*
X182344863Y-70850500D01*
X182288079Y-70859975D01*
X182117726Y-70888402D01*
X181899935Y-70963170D01*
X181697409Y-71072772D01*
X181515691Y-71214208D01*
X181420908Y-71317171D01*
X181359731Y-71383627D01*
X181322148Y-71441153D01*
X181293809Y-71484529D01*
X181240662Y-71529885D01*
X181171431Y-71539309D01*
X181108095Y-71509807D01*
X181086191Y-71484529D01*
X181063836Y-71450312D01*
X181020269Y-71383627D01*
X180864308Y-71214208D01*
X180682589Y-71072771D01*
X180480069Y-70963172D01*
X180480065Y-70963170D01*
X180480064Y-70963170D01*
X180262273Y-70888402D01*
X180110848Y-70863134D01*
X180035137Y-70850500D01*
X179804863Y-70850500D01*
X179748079Y-70859975D01*
X179577726Y-70888402D01*
X179359935Y-70963170D01*
X179157409Y-71072772D01*
X178975691Y-71214208D01*
X178880908Y-71317171D01*
X178819731Y-71383627D01*
X178782148Y-71441153D01*
X178753809Y-71484529D01*
X178700662Y-71529885D01*
X178631431Y-71539309D01*
X178568095Y-71509807D01*
X178546191Y-71484529D01*
X178523836Y-71450312D01*
X178480269Y-71383627D01*
X178324308Y-71214208D01*
X178142589Y-71072771D01*
X177940069Y-70963172D01*
X177940065Y-70963170D01*
X177940064Y-70963170D01*
X177722273Y-70888402D01*
X177570848Y-70863134D01*
X177495137Y-70850500D01*
X177264863Y-70850500D01*
X177208079Y-70859975D01*
X177037726Y-70888402D01*
X176819935Y-70963170D01*
X176617409Y-71072772D01*
X176435691Y-71214208D01*
X176340908Y-71317171D01*
X176279731Y-71383627D01*
X176242148Y-71441153D01*
X176213809Y-71484529D01*
X176160662Y-71529885D01*
X176091431Y-71539309D01*
X176028095Y-71509807D01*
X176006191Y-71484529D01*
X175983836Y-71450312D01*
X175940269Y-71383627D01*
X175784308Y-71214208D01*
X175602589Y-71072771D01*
X175400069Y-70963172D01*
X175400065Y-70963170D01*
X175400064Y-70963170D01*
X175182273Y-70888402D01*
X175030848Y-70863134D01*
X174955137Y-70850500D01*
X174724863Y-70850500D01*
X174668079Y-70859975D01*
X174497726Y-70888402D01*
X174279935Y-70963170D01*
X174077409Y-71072772D01*
X173895691Y-71214208D01*
X173800908Y-71317171D01*
X173739731Y-71383627D01*
X173702148Y-71441153D01*
X173673809Y-71484529D01*
X173620662Y-71529885D01*
X173551431Y-71539309D01*
X173488095Y-71509807D01*
X173466191Y-71484529D01*
X173443836Y-71450312D01*
X173400269Y-71383627D01*
X173244308Y-71214208D01*
X173062589Y-71072771D01*
X172860069Y-70963172D01*
X172860065Y-70963170D01*
X172860064Y-70963170D01*
X172642273Y-70888402D01*
X172490848Y-70863134D01*
X172415137Y-70850500D01*
X172184863Y-70850500D01*
X172128079Y-70859975D01*
X171957726Y-70888402D01*
X171739935Y-70963170D01*
X171537409Y-71072772D01*
X171355691Y-71214208D01*
X171260908Y-71317171D01*
X171199731Y-71383627D01*
X171162148Y-71441153D01*
X171133809Y-71484529D01*
X171080662Y-71529885D01*
X171011431Y-71539309D01*
X170948095Y-71509807D01*
X170926191Y-71484529D01*
X170903836Y-71450312D01*
X170860269Y-71383627D01*
X170704308Y-71214208D01*
X170522589Y-71072771D01*
X170320069Y-70963172D01*
X170320065Y-70963170D01*
X170320064Y-70963170D01*
X170102273Y-70888402D01*
X169950848Y-70863134D01*
X169875137Y-70850500D01*
X169644863Y-70850500D01*
X169588079Y-70859975D01*
X169417726Y-70888402D01*
X169199935Y-70963170D01*
X168997409Y-71072772D01*
X168815691Y-71214208D01*
X168720908Y-71317171D01*
X168659731Y-71383627D01*
X168622148Y-71441153D01*
X168593809Y-71484529D01*
X168540662Y-71529885D01*
X168471431Y-71539309D01*
X168408095Y-71509807D01*
X168386191Y-71484529D01*
X168363836Y-71450312D01*
X168320269Y-71383627D01*
X168164308Y-71214208D01*
X167982589Y-71072771D01*
X167780069Y-70963172D01*
X167780065Y-70963170D01*
X167780064Y-70963170D01*
X167562273Y-70888402D01*
X167410848Y-70863134D01*
X167335137Y-70850500D01*
X167104863Y-70850500D01*
X167048079Y-70859975D01*
X166877726Y-70888402D01*
X166659935Y-70963170D01*
X166457409Y-71072772D01*
X166275691Y-71214208D01*
X166180908Y-71317171D01*
X166119731Y-71383627D01*
X166082148Y-71441153D01*
X166053809Y-71484529D01*
X166000662Y-71529885D01*
X165931431Y-71539309D01*
X165868095Y-71509807D01*
X165846191Y-71484529D01*
X165823836Y-71450312D01*
X165780269Y-71383627D01*
X165624308Y-71214208D01*
X165442589Y-71072771D01*
X165240069Y-70963172D01*
X165240065Y-70963170D01*
X165240064Y-70963170D01*
X165022273Y-70888402D01*
X164870848Y-70863134D01*
X164795137Y-70850500D01*
X164564863Y-70850500D01*
X164508079Y-70859975D01*
X164337726Y-70888402D01*
X164119935Y-70963170D01*
X163917409Y-71072772D01*
X163735691Y-71214208D01*
X163640908Y-71317171D01*
X163579731Y-71383627D01*
X163542148Y-71441153D01*
X163513809Y-71484529D01*
X163460662Y-71529885D01*
X163391431Y-71539309D01*
X163328095Y-71509807D01*
X163306191Y-71484529D01*
X163283836Y-71450312D01*
X163240269Y-71383627D01*
X163084308Y-71214208D01*
X162902589Y-71072771D01*
X162700069Y-70963172D01*
X162700065Y-70963170D01*
X162700064Y-70963170D01*
X162482273Y-70888402D01*
X162330848Y-70863134D01*
X162255137Y-70850500D01*
X162024863Y-70850500D01*
X161968079Y-70859975D01*
X161797726Y-70888402D01*
X161579935Y-70963170D01*
X161377409Y-71072772D01*
X161195691Y-71214208D01*
X161100908Y-71317171D01*
X161039731Y-71383627D01*
X161002148Y-71441152D01*
X160913781Y-71576407D01*
X160838705Y-71747565D01*
X160821283Y-71787284D01*
X160815974Y-71808248D01*
X160764753Y-72010516D01*
X160745737Y-72240000D01*
X160764753Y-72469483D01*
X160764753Y-72469486D01*
X160764754Y-72469488D01*
X160815974Y-72671752D01*
X160821284Y-72692718D01*
X160913781Y-72903592D01*
X160913783Y-72903595D01*
X161039731Y-73096373D01*
X161195692Y-73265792D01*
X161377411Y-73407229D01*
X161579931Y-73516828D01*
X161603523Y-73524927D01*
X161700498Y-73558219D01*
X161757513Y-73598604D01*
X161783644Y-73663404D01*
X161770593Y-73732044D01*
X161722504Y-73782732D01*
X161660235Y-73799500D01*
X123003481Y-73799500D01*
X122996528Y-73799305D01*
X122693506Y-73782287D01*
X122679688Y-73780730D01*
X122383920Y-73730477D01*
X122370363Y-73727383D01*
X122082072Y-73644327D01*
X122068948Y-73639734D01*
X121791777Y-73524927D01*
X121779248Y-73518894D01*
X121516671Y-73373772D01*
X121504897Y-73366374D01*
X121260214Y-73192763D01*
X121249342Y-73184092D01*
X121025647Y-72984184D01*
X121015815Y-72974352D01*
X120815907Y-72750657D01*
X120807236Y-72739785D01*
X120773840Y-72692718D01*
X120633625Y-72495102D01*
X120626227Y-72483328D01*
X120582391Y-72404013D01*
X120481101Y-72220744D01*
X120475072Y-72208222D01*
X120360265Y-71931051D01*
X120355672Y-71917927D01*
X120272616Y-71629636D01*
X120269522Y-71616079D01*
X120265446Y-71592089D01*
X120219267Y-71320301D01*
X120217713Y-71306503D01*
X120204085Y-71063843D01*
X121415643Y-71063843D01*
X121446403Y-71317171D01*
X121510879Y-71539766D01*
X121517399Y-71562276D01*
X121542381Y-71614925D01*
X121626794Y-71792822D01*
X121669821Y-71855157D01*
X121771754Y-72002832D01*
X121948525Y-72186870D01*
X122152529Y-72340169D01*
X122274179Y-72404016D01*
X122378478Y-72458757D01*
X122378481Y-72458758D01*
X122620531Y-72539566D01*
X122777692Y-72565107D01*
X122872408Y-72580500D01*
X122872409Y-72580500D01*
X123061209Y-72580500D01*
X123063694Y-72580500D01*
X123254355Y-72565108D01*
X123502122Y-72504039D01*
X123736885Y-72404016D01*
X123952562Y-72267630D01*
X124143569Y-72098413D01*
X124304958Y-71900747D01*
X124432549Y-71679753D01*
X124523038Y-71441153D01*
X124574081Y-71191128D01*
X124581923Y-70996519D01*
X124584356Y-70936156D01*
X124574326Y-70853553D01*
X124553597Y-70682831D01*
X124500639Y-70499999D01*
X128144842Y-70499999D01*
X128165430Y-70735318D01*
X128226569Y-70963492D01*
X128326400Y-71177580D01*
X128385073Y-71261373D01*
X129016922Y-70629523D01*
X129040507Y-70709844D01*
X129118239Y-70830798D01*
X129226900Y-70924952D01*
X129357685Y-70984680D01*
X129367466Y-70986086D01*
X128738625Y-71614925D01*
X128822420Y-71673599D01*
X129036507Y-71773430D01*
X129264681Y-71834569D01*
X129500000Y-71855157D01*
X129735318Y-71834569D01*
X129963492Y-71773430D01*
X130177576Y-71673600D01*
X130261373Y-71614925D01*
X130040966Y-71394518D01*
X134650000Y-71394518D01*
X134650354Y-71401132D01*
X134656400Y-71457371D01*
X134706647Y-71592089D01*
X134792811Y-71707188D01*
X134907910Y-71793352D01*
X135042628Y-71843599D01*
X135098867Y-71849645D01*
X135105482Y-71850000D01*
X135750000Y-71850000D01*
X135750000Y-70935501D01*
X135857685Y-70984680D01*
X135964237Y-71000000D01*
X136035763Y-71000000D01*
X136142315Y-70984680D01*
X136250000Y-70935501D01*
X136250000Y-71850000D01*
X136894518Y-71850000D01*
X136901132Y-71849645D01*
X136957371Y-71843599D01*
X137092089Y-71793352D01*
X137207188Y-71707188D01*
X137293352Y-71592089D01*
X137343599Y-71457371D01*
X137349645Y-71401132D01*
X137350000Y-71394518D01*
X137350000Y-70750000D01*
X136433686Y-70750000D01*
X136459493Y-70709844D01*
X136500000Y-70571889D01*
X136500000Y-70500000D01*
X139644842Y-70500000D01*
X139665430Y-70735318D01*
X139726569Y-70963492D01*
X139826400Y-71177580D01*
X139885073Y-71261373D01*
X140516923Y-70629523D01*
X140540507Y-70709844D01*
X140618239Y-70830798D01*
X140726900Y-70924952D01*
X140857685Y-70984680D01*
X140867466Y-70986086D01*
X140238625Y-71614925D01*
X140322420Y-71673599D01*
X140536507Y-71773430D01*
X140764681Y-71834569D01*
X141000000Y-71855157D01*
X141235318Y-71834569D01*
X141463492Y-71773430D01*
X141677576Y-71673600D01*
X141761373Y-71614925D01*
X141540966Y-71394518D01*
X146150000Y-71394518D01*
X146150354Y-71401132D01*
X146156400Y-71457371D01*
X146206647Y-71592089D01*
X146292811Y-71707188D01*
X146407910Y-71793352D01*
X146542628Y-71843599D01*
X146598867Y-71849645D01*
X146605482Y-71850000D01*
X147250000Y-71850000D01*
X147250000Y-70935501D01*
X147357685Y-70984680D01*
X147464237Y-71000000D01*
X147535763Y-71000000D01*
X147642315Y-70984680D01*
X147750000Y-70935501D01*
X147750000Y-71850000D01*
X148394518Y-71850000D01*
X148401132Y-71849645D01*
X148457371Y-71843599D01*
X148592089Y-71793352D01*
X148707188Y-71707188D01*
X148793352Y-71592089D01*
X148843599Y-71457371D01*
X148849645Y-71401132D01*
X148850000Y-71394518D01*
X148850000Y-70750000D01*
X147933686Y-70750000D01*
X147959493Y-70709844D01*
X148000000Y-70571889D01*
X148000000Y-70428111D01*
X147959493Y-70290156D01*
X147933686Y-70250000D01*
X148850000Y-70250000D01*
X148850000Y-69605481D01*
X148849645Y-69598867D01*
X148843599Y-69542628D01*
X148793352Y-69407910D01*
X148707188Y-69292811D01*
X148592089Y-69206647D01*
X148457371Y-69156400D01*
X148401132Y-69150354D01*
X148394518Y-69150000D01*
X147750000Y-69150000D01*
X147750000Y-70064498D01*
X147642315Y-70015320D01*
X147535763Y-70000000D01*
X147464237Y-70000000D01*
X147357685Y-70015320D01*
X147250000Y-70064498D01*
X147250000Y-69150000D01*
X146605482Y-69150000D01*
X146598867Y-69150354D01*
X146542628Y-69156400D01*
X146407910Y-69206647D01*
X146292811Y-69292811D01*
X146206647Y-69407910D01*
X146156400Y-69542628D01*
X146150354Y-69598867D01*
X146150000Y-69605481D01*
X146150000Y-70250000D01*
X147066314Y-70250000D01*
X147040507Y-70290156D01*
X147000000Y-70428111D01*
X147000000Y-70571889D01*
X147040507Y-70709844D01*
X147066314Y-70750000D01*
X146150000Y-70750000D01*
X146150000Y-71394518D01*
X141540966Y-71394518D01*
X141132533Y-70986086D01*
X141142315Y-70984680D01*
X141273100Y-70924952D01*
X141381761Y-70830798D01*
X141459493Y-70709844D01*
X141483076Y-70629524D01*
X142114925Y-71261373D01*
X142173600Y-71177576D01*
X142273430Y-70963492D01*
X142334569Y-70735318D01*
X142355157Y-70499999D01*
X142334569Y-70264681D01*
X142273430Y-70036507D01*
X142173599Y-69822421D01*
X142114926Y-69738626D01*
X142114925Y-69738625D01*
X141483076Y-70370475D01*
X141459493Y-70290156D01*
X141381761Y-70169202D01*
X141273100Y-70075048D01*
X141142315Y-70015320D01*
X141132533Y-70013913D01*
X141761373Y-69385073D01*
X141761373Y-69385072D01*
X141677580Y-69326400D01*
X141463492Y-69226569D01*
X141235318Y-69165430D01*
X141000000Y-69144842D01*
X140764681Y-69165430D01*
X140536507Y-69226569D01*
X140322422Y-69326399D01*
X140238625Y-69385072D01*
X140867466Y-70013913D01*
X140857685Y-70015320D01*
X140726900Y-70075048D01*
X140618239Y-70169202D01*
X140540507Y-70290156D01*
X140516923Y-70370475D01*
X139885073Y-69738625D01*
X139885072Y-69738625D01*
X139826399Y-69822422D01*
X139726569Y-70036507D01*
X139665430Y-70264681D01*
X139644842Y-70500000D01*
X136500000Y-70500000D01*
X136500000Y-70428111D01*
X136459493Y-70290156D01*
X136433686Y-70250000D01*
X137350000Y-70250000D01*
X137350000Y-69605481D01*
X137349645Y-69598867D01*
X137343599Y-69542628D01*
X137293352Y-69407910D01*
X137207188Y-69292811D01*
X137092089Y-69206647D01*
X136957371Y-69156400D01*
X136901132Y-69150354D01*
X136894518Y-69150000D01*
X136250000Y-69150000D01*
X136250000Y-70064498D01*
X136142315Y-70015320D01*
X136035763Y-70000000D01*
X135964237Y-70000000D01*
X135857685Y-70015320D01*
X135750000Y-70064498D01*
X135750000Y-69150000D01*
X135105482Y-69150000D01*
X135098867Y-69150354D01*
X135042628Y-69156400D01*
X134907910Y-69206647D01*
X134792811Y-69292811D01*
X134706647Y-69407910D01*
X134656400Y-69542628D01*
X134650354Y-69598867D01*
X134650000Y-69605481D01*
X134650000Y-70250000D01*
X135566314Y-70250000D01*
X135540507Y-70290156D01*
X135500000Y-70428111D01*
X135500000Y-70571889D01*
X135540507Y-70709844D01*
X135566314Y-70750000D01*
X134650000Y-70750000D01*
X134650000Y-71394518D01*
X130040966Y-71394518D01*
X129632533Y-70986086D01*
X129642315Y-70984680D01*
X129773100Y-70924952D01*
X129881761Y-70830798D01*
X129959493Y-70709844D01*
X129983076Y-70629524D01*
X130614925Y-71261373D01*
X130673600Y-71177576D01*
X130773430Y-70963492D01*
X130834569Y-70735318D01*
X130855157Y-70499999D01*
X130834569Y-70264681D01*
X130773430Y-70036507D01*
X130673599Y-69822421D01*
X130614926Y-69738626D01*
X130614925Y-69738625D01*
X129983076Y-70370475D01*
X129959493Y-70290156D01*
X129881761Y-70169202D01*
X129773100Y-70075048D01*
X129642315Y-70015320D01*
X129632533Y-70013913D01*
X130261373Y-69385073D01*
X130261373Y-69385072D01*
X130177580Y-69326400D01*
X129963492Y-69226569D01*
X129735318Y-69165430D01*
X129500000Y-69144842D01*
X129264681Y-69165430D01*
X129036507Y-69226569D01*
X128822422Y-69326399D01*
X128738625Y-69385072D01*
X129367466Y-70013913D01*
X129357685Y-70015320D01*
X129226900Y-70075048D01*
X129118239Y-70169202D01*
X129040507Y-70290156D01*
X129016923Y-70370476D01*
X128385072Y-69738625D01*
X128326399Y-69822422D01*
X128226569Y-70036507D01*
X128165430Y-70264681D01*
X128144842Y-70499999D01*
X124500639Y-70499999D01*
X124482601Y-70437724D01*
X124373206Y-70207179D01*
X124346992Y-70169202D01*
X124298709Y-70099252D01*
X124228246Y-69997168D01*
X124051475Y-69813130D01*
X123847471Y-69659831D01*
X123743916Y-69605481D01*
X123621521Y-69541242D01*
X123379466Y-69460433D01*
X123127592Y-69419500D01*
X123127591Y-69419500D01*
X122936306Y-69419500D01*
X122933851Y-69419698D01*
X122933830Y-69419699D01*
X122745645Y-69434892D01*
X122497879Y-69495960D01*
X122263110Y-69595986D01*
X122047441Y-69732367D01*
X121856428Y-69901589D01*
X121695041Y-70099252D01*
X121567451Y-70320246D01*
X121476961Y-70558847D01*
X121425918Y-70808874D01*
X121415643Y-71063843D01*
X120204085Y-71063843D01*
X120200695Y-71003472D01*
X120200500Y-70996519D01*
X120200500Y-65999999D01*
X128144340Y-65999999D01*
X128164936Y-66235407D01*
X128209709Y-66402501D01*
X128226097Y-66463663D01*
X128325965Y-66677830D01*
X128461505Y-66871401D01*
X128628599Y-67038495D01*
X128822170Y-67174035D01*
X129036337Y-67273903D01*
X129264592Y-67335063D01*
X129500000Y-67355659D01*
X129735408Y-67335063D01*
X129963663Y-67273903D01*
X130177830Y-67174035D01*
X130371401Y-67038495D01*
X130538495Y-66871401D01*
X130674035Y-66677830D01*
X130773903Y-66463663D01*
X130835063Y-66235408D01*
X130855659Y-66000000D01*
X130855659Y-65999999D01*
X134644340Y-65999999D01*
X134664936Y-66235407D01*
X134709709Y-66402501D01*
X134726097Y-66463663D01*
X134825965Y-66677830D01*
X134961505Y-66871401D01*
X135128599Y-67038495D01*
X135322170Y-67174035D01*
X135536337Y-67273903D01*
X135764592Y-67335063D01*
X136000000Y-67355659D01*
X136235408Y-67335063D01*
X136463663Y-67273903D01*
X136677830Y-67174035D01*
X136871401Y-67038495D01*
X137038495Y-66871401D01*
X137174035Y-66677830D01*
X137273903Y-66463663D01*
X137335063Y-66235408D01*
X137355659Y-66000000D01*
X139644340Y-66000000D01*
X139664936Y-66235407D01*
X139709709Y-66402501D01*
X139726097Y-66463663D01*
X139825965Y-66677830D01*
X139961505Y-66871401D01*
X140128599Y-67038495D01*
X140322170Y-67174035D01*
X140536337Y-67273903D01*
X140764592Y-67335063D01*
X141000000Y-67355659D01*
X141235408Y-67335063D01*
X141463663Y-67273903D01*
X141677830Y-67174035D01*
X141871401Y-67038495D01*
X142038495Y-66871401D01*
X142174035Y-66677830D01*
X142273903Y-66463663D01*
X142335063Y-66235408D01*
X142355659Y-66000000D01*
X146144340Y-66000000D01*
X146164936Y-66235407D01*
X146209709Y-66402502D01*
X146226097Y-66463663D01*
X146325965Y-66677830D01*
X146461505Y-66871401D01*
X146628599Y-67038495D01*
X146822170Y-67174035D01*
X147036337Y-67273903D01*
X147264592Y-67335063D01*
X147500000Y-67355659D01*
X147735408Y-67335063D01*
X147963663Y-67273903D01*
X148177830Y-67174035D01*
X148371401Y-67038495D01*
X148538495Y-66871401D01*
X148674035Y-66677830D01*
X148773903Y-66463663D01*
X148835063Y-66235408D01*
X148855659Y-66000000D01*
X148835063Y-65764592D01*
X148773903Y-65536337D01*
X148674035Y-65322171D01*
X148538495Y-65128599D01*
X148371401Y-64961505D01*
X148177830Y-64825965D01*
X147963663Y-64726097D01*
X147902502Y-64709709D01*
X147735407Y-64664936D01*
X147500000Y-64644340D01*
X147264592Y-64664936D01*
X147036336Y-64726097D01*
X146822170Y-64825965D01*
X146628598Y-64961505D01*
X146461505Y-65128598D01*
X146325965Y-65322170D01*
X146226097Y-65536336D01*
X146164936Y-65764592D01*
X146144340Y-66000000D01*
X142355659Y-66000000D01*
X142335063Y-65764592D01*
X142273903Y-65536337D01*
X142174035Y-65322171D01*
X142038495Y-65128599D01*
X141871401Y-64961505D01*
X141677830Y-64825965D01*
X141463663Y-64726097D01*
X141402502Y-64709709D01*
X141235407Y-64664936D01*
X141000000Y-64644340D01*
X140764592Y-64664936D01*
X140536336Y-64726097D01*
X140322170Y-64825965D01*
X140128598Y-64961505D01*
X139961505Y-65128598D01*
X139825965Y-65322170D01*
X139726097Y-65536336D01*
X139664936Y-65764592D01*
X139644340Y-66000000D01*
X137355659Y-66000000D01*
X137335063Y-65764592D01*
X137273903Y-65536337D01*
X137174035Y-65322171D01*
X137038495Y-65128599D01*
X136871401Y-64961505D01*
X136677830Y-64825965D01*
X136463663Y-64726097D01*
X136402502Y-64709709D01*
X136235407Y-64664936D01*
X136000000Y-64644340D01*
X135764592Y-64664936D01*
X135536336Y-64726097D01*
X135322170Y-64825965D01*
X135128598Y-64961505D01*
X134961505Y-65128598D01*
X134825965Y-65322170D01*
X134726097Y-65536336D01*
X134664936Y-65764592D01*
X134644340Y-65999999D01*
X130855659Y-65999999D01*
X130835063Y-65764592D01*
X130773903Y-65536337D01*
X130674035Y-65322171D01*
X130538495Y-65128599D01*
X130371401Y-64961505D01*
X130177830Y-64825965D01*
X129963663Y-64726097D01*
X129902501Y-64709709D01*
X129735407Y-64664936D01*
X129500000Y-64644340D01*
X129264592Y-64664936D01*
X129036336Y-64726097D01*
X128822170Y-64825965D01*
X128628598Y-64961505D01*
X128461505Y-65128598D01*
X128325965Y-65322170D01*
X128226097Y-65536336D01*
X128164936Y-65764592D01*
X128144340Y-65999999D01*
X120200500Y-65999999D01*
X120200500Y-64125843D01*
X122264643Y-64125843D01*
X122295403Y-64379171D01*
X122331315Y-64503152D01*
X122366399Y-64624276D01*
X122385693Y-64664937D01*
X122475794Y-64854822D01*
X122548274Y-64959826D01*
X122620754Y-65064832D01*
X122797525Y-65248870D01*
X123001529Y-65402169D01*
X123123179Y-65466016D01*
X123227478Y-65520757D01*
X123227481Y-65520758D01*
X123469531Y-65601566D01*
X123626692Y-65627107D01*
X123721408Y-65642500D01*
X123721409Y-65642500D01*
X123910209Y-65642500D01*
X123912694Y-65642500D01*
X124103355Y-65627108D01*
X124351122Y-65566039D01*
X124585885Y-65466016D01*
X124801562Y-65329630D01*
X124992569Y-65160413D01*
X125153958Y-64962747D01*
X125281549Y-64741753D01*
X125372038Y-64503153D01*
X125423081Y-64253128D01*
X125428210Y-64125843D01*
X151264643Y-64125843D01*
X151295403Y-64379171D01*
X151331315Y-64503152D01*
X151366399Y-64624276D01*
X151385693Y-64664937D01*
X151475794Y-64854822D01*
X151548274Y-64959826D01*
X151620754Y-65064832D01*
X151797525Y-65248870D01*
X152001529Y-65402169D01*
X152123179Y-65466016D01*
X152227478Y-65520757D01*
X152227481Y-65520758D01*
X152469531Y-65601566D01*
X152626692Y-65627107D01*
X152721408Y-65642500D01*
X152721409Y-65642500D01*
X152910209Y-65642500D01*
X152912694Y-65642500D01*
X153103355Y-65627108D01*
X153351122Y-65566039D01*
X153585885Y-65466016D01*
X153801562Y-65329630D01*
X153992569Y-65160413D01*
X154153958Y-64962747D01*
X154281549Y-64741753D01*
X154372038Y-64503153D01*
X154423081Y-64253128D01*
X154433356Y-63998153D01*
X154402597Y-63744831D01*
X154331601Y-63499724D01*
X154222206Y-63269179D01*
X154077246Y-63059168D01*
X153900475Y-62875130D01*
X153696471Y-62721831D01*
X153574825Y-62657986D01*
X153470521Y-62603242D01*
X153228466Y-62522433D01*
X152976592Y-62481500D01*
X152976591Y-62481500D01*
X152785306Y-62481500D01*
X152782851Y-62481698D01*
X152782830Y-62481699D01*
X152594645Y-62496892D01*
X152346879Y-62557960D01*
X152112110Y-62657986D01*
X151896441Y-62794367D01*
X151705428Y-62963589D01*
X151544041Y-63161252D01*
X151416451Y-63382246D01*
X151325961Y-63620847D01*
X151274918Y-63870874D01*
X151264643Y-64125843D01*
X125428210Y-64125843D01*
X125433356Y-63998153D01*
X125402597Y-63744831D01*
X125331601Y-63499724D01*
X125222206Y-63269179D01*
X125077246Y-63059168D01*
X124900475Y-62875130D01*
X124696471Y-62721831D01*
X124574825Y-62657986D01*
X124470521Y-62603242D01*
X124228466Y-62522433D01*
X123976592Y-62481500D01*
X123976591Y-62481500D01*
X123785306Y-62481500D01*
X123782851Y-62481698D01*
X123782830Y-62481699D01*
X123594645Y-62496892D01*
X123346879Y-62557960D01*
X123112110Y-62657986D01*
X122896441Y-62794367D01*
X122705428Y-62963589D01*
X122544041Y-63161252D01*
X122416451Y-63382246D01*
X122325961Y-63620847D01*
X122274918Y-63870874D01*
X122264643Y-64125843D01*
X120200500Y-64125843D01*
X120200500Y-57000000D01*
X160745737Y-57000000D01*
X160764753Y-57229483D01*
X160821284Y-57452718D01*
X160913781Y-57663592D01*
X160913783Y-57663595D01*
X161039731Y-57856373D01*
X161195692Y-58025792D01*
X161377411Y-58167229D01*
X161579931Y-58276828D01*
X161797729Y-58351598D01*
X162024863Y-58389500D01*
X162024864Y-58389500D01*
X162255136Y-58389500D01*
X162255137Y-58389500D01*
X162482271Y-58351598D01*
X162700069Y-58276828D01*
X162902589Y-58167229D01*
X163084308Y-58025792D01*
X163240269Y-57856373D01*
X163306191Y-57755470D01*
X163359336Y-57710115D01*
X163428567Y-57700691D01*
X163491903Y-57730193D01*
X163513807Y-57755471D01*
X163579728Y-57856369D01*
X163579731Y-57856373D01*
X163735692Y-58025792D01*
X163917411Y-58167229D01*
X164119931Y-58276828D01*
X164337729Y-58351598D01*
X164564863Y-58389500D01*
X164564864Y-58389500D01*
X164795136Y-58389500D01*
X164795137Y-58389500D01*
X165022271Y-58351598D01*
X165240069Y-58276828D01*
X165442589Y-58167229D01*
X165624308Y-58025792D01*
X165780269Y-57856373D01*
X165846192Y-57755470D01*
X165899338Y-57710115D01*
X165968569Y-57700691D01*
X166031905Y-57730193D01*
X166053807Y-57755468D01*
X166119731Y-57856373D01*
X166275692Y-58025792D01*
X166457411Y-58167229D01*
X166659931Y-58276828D01*
X166877729Y-58351598D01*
X167104863Y-58389500D01*
X167104864Y-58389500D01*
X167335136Y-58389500D01*
X167335137Y-58389500D01*
X167562271Y-58351598D01*
X167780069Y-58276828D01*
X167982589Y-58167229D01*
X168164308Y-58025792D01*
X168320269Y-57856373D01*
X168386192Y-57755470D01*
X168439338Y-57710115D01*
X168508569Y-57700691D01*
X168571905Y-57730193D01*
X168593807Y-57755468D01*
X168659731Y-57856373D01*
X168815692Y-58025792D01*
X168997411Y-58167229D01*
X169199931Y-58276828D01*
X169417729Y-58351598D01*
X169644863Y-58389500D01*
X169644864Y-58389500D01*
X169875136Y-58389500D01*
X169875137Y-58389500D01*
X170102271Y-58351598D01*
X170320069Y-58276828D01*
X170522589Y-58167229D01*
X170704308Y-58025792D01*
X170860269Y-57856373D01*
X170926192Y-57755470D01*
X170979337Y-57710114D01*
X171048569Y-57700690D01*
X171111904Y-57730192D01*
X171133807Y-57755468D01*
X171199731Y-57856373D01*
X171355692Y-58025792D01*
X171537411Y-58167229D01*
X171739931Y-58276828D01*
X171957729Y-58351598D01*
X172184863Y-58389500D01*
X172184864Y-58389500D01*
X172415136Y-58389500D01*
X172415137Y-58389500D01*
X172642271Y-58351598D01*
X172860069Y-58276828D01*
X173062589Y-58167229D01*
X173244308Y-58025792D01*
X173400269Y-57856373D01*
X173466192Y-57755470D01*
X173519338Y-57710115D01*
X173588569Y-57700691D01*
X173651905Y-57730193D01*
X173673807Y-57755468D01*
X173739731Y-57856373D01*
X173895692Y-58025792D01*
X174077411Y-58167229D01*
X174279931Y-58276828D01*
X174497729Y-58351598D01*
X174724863Y-58389500D01*
X174724864Y-58389500D01*
X174955136Y-58389500D01*
X174955137Y-58389500D01*
X175182271Y-58351598D01*
X175400069Y-58276828D01*
X175602589Y-58167229D01*
X175784308Y-58025792D01*
X175940269Y-57856373D01*
X176006191Y-57755470D01*
X176059336Y-57710115D01*
X176128567Y-57700691D01*
X176191903Y-57730193D01*
X176213807Y-57755471D01*
X176279728Y-57856369D01*
X176279731Y-57856373D01*
X176435692Y-58025792D01*
X176617411Y-58167229D01*
X176819931Y-58276828D01*
X177037729Y-58351598D01*
X177264863Y-58389500D01*
X177264864Y-58389500D01*
X177495136Y-58389500D01*
X177495137Y-58389500D01*
X177722271Y-58351598D01*
X177940069Y-58276828D01*
X178142589Y-58167229D01*
X178324308Y-58025792D01*
X178480269Y-57856373D01*
X178546192Y-57755470D01*
X178599338Y-57710115D01*
X178668569Y-57700691D01*
X178731905Y-57730193D01*
X178753807Y-57755468D01*
X178819731Y-57856373D01*
X178975692Y-58025792D01*
X179157411Y-58167229D01*
X179359931Y-58276828D01*
X179577729Y-58351598D01*
X179804863Y-58389500D01*
X179804864Y-58389500D01*
X180035136Y-58389500D01*
X180035137Y-58389500D01*
X180262271Y-58351598D01*
X180480069Y-58276828D01*
X180682589Y-58167229D01*
X180864308Y-58025792D01*
X181020269Y-57856373D01*
X181086192Y-57755470D01*
X181139338Y-57710115D01*
X181208569Y-57700691D01*
X181271905Y-57730193D01*
X181293807Y-57755468D01*
X181359731Y-57856373D01*
X181515692Y-58025792D01*
X181697411Y-58167229D01*
X181899931Y-58276828D01*
X182117729Y-58351598D01*
X182344863Y-58389500D01*
X182344864Y-58389500D01*
X182575136Y-58389500D01*
X182575137Y-58389500D01*
X182802271Y-58351598D01*
X183020069Y-58276828D01*
X183222589Y-58167229D01*
X183404308Y-58025792D01*
X183560269Y-57856373D01*
X183626192Y-57755470D01*
X183679338Y-57710115D01*
X183748569Y-57700691D01*
X183811905Y-57730193D01*
X183833807Y-57755468D01*
X183899731Y-57856373D01*
X184055692Y-58025792D01*
X184237411Y-58167229D01*
X184439931Y-58276828D01*
X184657729Y-58351598D01*
X184884863Y-58389500D01*
X184884864Y-58389500D01*
X185115136Y-58389500D01*
X185115137Y-58389500D01*
X185342271Y-58351598D01*
X185560069Y-58276828D01*
X185762589Y-58167229D01*
X185944308Y-58025792D01*
X186100269Y-57856373D01*
X186166192Y-57755470D01*
X186219338Y-57710115D01*
X186288569Y-57700691D01*
X186351905Y-57730193D01*
X186373807Y-57755468D01*
X186439731Y-57856373D01*
X186595692Y-58025792D01*
X186777411Y-58167229D01*
X186979931Y-58276828D01*
X187197729Y-58351598D01*
X187424863Y-58389500D01*
X187424864Y-58389500D01*
X187655136Y-58389500D01*
X187655137Y-58389500D01*
X187882271Y-58351598D01*
X188100069Y-58276828D01*
X188302589Y-58167229D01*
X188484308Y-58025792D01*
X188640269Y-57856373D01*
X188706192Y-57755470D01*
X188759338Y-57710115D01*
X188828569Y-57700691D01*
X188891905Y-57730193D01*
X188913807Y-57755468D01*
X188979731Y-57856373D01*
X189135692Y-58025792D01*
X189317411Y-58167229D01*
X189519931Y-58276828D01*
X189737729Y-58351598D01*
X189964863Y-58389500D01*
X189964864Y-58389500D01*
X190195136Y-58389500D01*
X190195137Y-58389500D01*
X190422271Y-58351598D01*
X190640069Y-58276828D01*
X190842589Y-58167229D01*
X191024308Y-58025792D01*
X191180269Y-57856373D01*
X191306217Y-57663595D01*
X191398717Y-57452716D01*
X191455246Y-57229488D01*
X191474262Y-57000000D01*
X191455246Y-56770512D01*
X191398717Y-56547284D01*
X191306217Y-56336405D01*
X191180269Y-56143627D01*
X191024308Y-55974208D01*
X190842589Y-55832771D01*
X190640069Y-55723172D01*
X190640065Y-55723170D01*
X190640064Y-55723170D01*
X190422273Y-55648402D01*
X190270848Y-55623134D01*
X190195137Y-55610500D01*
X189964863Y-55610500D01*
X189908079Y-55619975D01*
X189737726Y-55648402D01*
X189519935Y-55723170D01*
X189317409Y-55832772D01*
X189135691Y-55974208D01*
X188991209Y-56131158D01*
X188979731Y-56143627D01*
X188913810Y-56244528D01*
X188913809Y-56244529D01*
X188860662Y-56289885D01*
X188791431Y-56299309D01*
X188728095Y-56269807D01*
X188706191Y-56244529D01*
X188640269Y-56143627D01*
X188484308Y-55974208D01*
X188302589Y-55832771D01*
X188100069Y-55723172D01*
X188100065Y-55723170D01*
X188100064Y-55723170D01*
X187882273Y-55648402D01*
X187730848Y-55623134D01*
X187655137Y-55610500D01*
X187424863Y-55610500D01*
X187368079Y-55619975D01*
X187197726Y-55648402D01*
X186979935Y-55723170D01*
X186777409Y-55832772D01*
X186595691Y-55974208D01*
X186451209Y-56131158D01*
X186439731Y-56143627D01*
X186373810Y-56244528D01*
X186373809Y-56244529D01*
X186320662Y-56289885D01*
X186251431Y-56299309D01*
X186188095Y-56269807D01*
X186166191Y-56244529D01*
X186100269Y-56143627D01*
X185944308Y-55974208D01*
X185762589Y-55832771D01*
X185560069Y-55723172D01*
X185560065Y-55723170D01*
X185560064Y-55723170D01*
X185342273Y-55648402D01*
X185190848Y-55623134D01*
X185115137Y-55610500D01*
X184884863Y-55610500D01*
X184828079Y-55619975D01*
X184657726Y-55648402D01*
X184439935Y-55723170D01*
X184237409Y-55832772D01*
X184055691Y-55974208D01*
X183911209Y-56131158D01*
X183899731Y-56143627D01*
X183833810Y-56244528D01*
X183833809Y-56244529D01*
X183780662Y-56289885D01*
X183711431Y-56299309D01*
X183648095Y-56269807D01*
X183626191Y-56244529D01*
X183560269Y-56143627D01*
X183404308Y-55974208D01*
X183222589Y-55832771D01*
X183020069Y-55723172D01*
X183020065Y-55723170D01*
X183020064Y-55723170D01*
X182802273Y-55648402D01*
X182650848Y-55623134D01*
X182575137Y-55610500D01*
X182344863Y-55610500D01*
X182288079Y-55619975D01*
X182117726Y-55648402D01*
X181899935Y-55723170D01*
X181697409Y-55832772D01*
X181515691Y-55974208D01*
X181371209Y-56131158D01*
X181359731Y-56143627D01*
X181293810Y-56244528D01*
X181293809Y-56244529D01*
X181240662Y-56289885D01*
X181171431Y-56299309D01*
X181108095Y-56269807D01*
X181086191Y-56244529D01*
X181020269Y-56143627D01*
X180864308Y-55974208D01*
X180682589Y-55832771D01*
X180480069Y-55723172D01*
X180480065Y-55723170D01*
X180480064Y-55723170D01*
X180262273Y-55648402D01*
X180110848Y-55623134D01*
X180035137Y-55610500D01*
X179804863Y-55610500D01*
X179748079Y-55619975D01*
X179577726Y-55648402D01*
X179359935Y-55723170D01*
X179157409Y-55832772D01*
X178975691Y-55974208D01*
X178819728Y-56143630D01*
X178753807Y-56244529D01*
X178700660Y-56289886D01*
X178631429Y-56299309D01*
X178568094Y-56269806D01*
X178546191Y-56244529D01*
X178480269Y-56143627D01*
X178324308Y-55974208D01*
X178142589Y-55832771D01*
X177940069Y-55723172D01*
X177940065Y-55723170D01*
X177940064Y-55723170D01*
X177722273Y-55648402D01*
X177570848Y-55623134D01*
X177495137Y-55610500D01*
X177264863Y-55610500D01*
X177208079Y-55619975D01*
X177037726Y-55648402D01*
X176819935Y-55723170D01*
X176617409Y-55832772D01*
X176435691Y-55974208D01*
X176291209Y-56131158D01*
X176279731Y-56143627D01*
X176213810Y-56244528D01*
X176213809Y-56244529D01*
X176160662Y-56289885D01*
X176091431Y-56299309D01*
X176028095Y-56269807D01*
X176006191Y-56244529D01*
X175940269Y-56143627D01*
X175784308Y-55974208D01*
X175602589Y-55832771D01*
X175400069Y-55723172D01*
X175400065Y-55723170D01*
X175400064Y-55723170D01*
X175182273Y-55648402D01*
X175030848Y-55623134D01*
X174955137Y-55610500D01*
X174724863Y-55610500D01*
X174668079Y-55619975D01*
X174497726Y-55648402D01*
X174279935Y-55723170D01*
X174077409Y-55832772D01*
X173895691Y-55974208D01*
X173751209Y-56131158D01*
X173739731Y-56143627D01*
X173673810Y-56244528D01*
X173673809Y-56244529D01*
X173620662Y-56289885D01*
X173551431Y-56299309D01*
X173488095Y-56269807D01*
X173466191Y-56244529D01*
X173400269Y-56143627D01*
X173244308Y-55974208D01*
X173062589Y-55832771D01*
X172860069Y-55723172D01*
X172860065Y-55723170D01*
X172860064Y-55723170D01*
X172642273Y-55648402D01*
X172490848Y-55623134D01*
X172415137Y-55610500D01*
X172184863Y-55610500D01*
X172128079Y-55619975D01*
X171957726Y-55648402D01*
X171739935Y-55723170D01*
X171537409Y-55832772D01*
X171355691Y-55974208D01*
X171211209Y-56131158D01*
X171199731Y-56143627D01*
X171133810Y-56244528D01*
X171133809Y-56244529D01*
X171080662Y-56289885D01*
X171011431Y-56299309D01*
X170948095Y-56269807D01*
X170926191Y-56244529D01*
X170860269Y-56143627D01*
X170704308Y-55974208D01*
X170522589Y-55832771D01*
X170320069Y-55723172D01*
X170320065Y-55723170D01*
X170320064Y-55723170D01*
X170102273Y-55648402D01*
X169950848Y-55623134D01*
X169875137Y-55610500D01*
X169644863Y-55610500D01*
X169588079Y-55619975D01*
X169417726Y-55648402D01*
X169199935Y-55723170D01*
X168997409Y-55832772D01*
X168815691Y-55974208D01*
X168671209Y-56131158D01*
X168659731Y-56143627D01*
X168593810Y-56244528D01*
X168593809Y-56244529D01*
X168540662Y-56289885D01*
X168471431Y-56299309D01*
X168408095Y-56269807D01*
X168386191Y-56244529D01*
X168320269Y-56143627D01*
X168164308Y-55974208D01*
X167982589Y-55832771D01*
X167780069Y-55723172D01*
X167780065Y-55723170D01*
X167780064Y-55723170D01*
X167562273Y-55648402D01*
X167410848Y-55623134D01*
X167335137Y-55610500D01*
X167104863Y-55610500D01*
X167048079Y-55619975D01*
X166877726Y-55648402D01*
X166659935Y-55723170D01*
X166457409Y-55832772D01*
X166275691Y-55974208D01*
X166119728Y-56143630D01*
X166053807Y-56244529D01*
X166000660Y-56289886D01*
X165931429Y-56299309D01*
X165868094Y-56269806D01*
X165846191Y-56244529D01*
X165780269Y-56143627D01*
X165624308Y-55974208D01*
X165442589Y-55832771D01*
X165240069Y-55723172D01*
X165240065Y-55723170D01*
X165240064Y-55723170D01*
X165022273Y-55648402D01*
X164870848Y-55623134D01*
X164795137Y-55610500D01*
X164564863Y-55610500D01*
X164508079Y-55619975D01*
X164337726Y-55648402D01*
X164119935Y-55723170D01*
X163917409Y-55832772D01*
X163735691Y-55974208D01*
X163591209Y-56131158D01*
X163579731Y-56143627D01*
X163513810Y-56244528D01*
X163513809Y-56244529D01*
X163460662Y-56289885D01*
X163391431Y-56299309D01*
X163328095Y-56269807D01*
X163306191Y-56244529D01*
X163240269Y-56143627D01*
X163084308Y-55974208D01*
X162902589Y-55832771D01*
X162700069Y-55723172D01*
X162700065Y-55723170D01*
X162700064Y-55723170D01*
X162482273Y-55648402D01*
X162330848Y-55623134D01*
X162255137Y-55610500D01*
X162024863Y-55610500D01*
X161968079Y-55619975D01*
X161797726Y-55648402D01*
X161579935Y-55723170D01*
X161377409Y-55832772D01*
X161195691Y-55974208D01*
X161051209Y-56131158D01*
X161039731Y-56143627D01*
X161039729Y-56143630D01*
X160913781Y-56336407D01*
X160821284Y-56547281D01*
X160764753Y-56770516D01*
X160745737Y-57000000D01*
X120200500Y-57000000D01*
X120200500Y-51497469D01*
X144597071Y-51497469D01*
X144599667Y-51522168D01*
X144616857Y-51685726D01*
X144675351Y-51865753D01*
X144769997Y-52029685D01*
X144896660Y-52170358D01*
X145049800Y-52281620D01*
X145222728Y-52358613D01*
X145407883Y-52397969D01*
X145407885Y-52397969D01*
X145470726Y-52397969D01*
X145537765Y-52417654D01*
X145558083Y-52433965D01*
X146756319Y-53623413D01*
X146821957Y-53688569D01*
X146855667Y-53749768D01*
X146857920Y-53763610D01*
X146875139Y-53927444D01*
X146933633Y-54107471D01*
X147028279Y-54271403D01*
X147154942Y-54412076D01*
X147308082Y-54523338D01*
X147481010Y-54600331D01*
X147666165Y-54639687D01*
X147666167Y-54639687D01*
X147855461Y-54639687D01*
X147978896Y-54613449D01*
X148040616Y-54600331D01*
X148213543Y-54523338D01*
X148332613Y-54436829D01*
X148366683Y-54412076D01*
X148371084Y-54407188D01*
X148493346Y-54271403D01*
X148528182Y-54211063D01*
X148578747Y-54162849D01*
X148642321Y-54150595D01*
X148642321Y-54150500D01*
X148642814Y-54150500D01*
X148647354Y-54149625D01*
X148653050Y-54150500D01*
X148655354Y-54150500D01*
X148844648Y-54150500D01*
X148968083Y-54124262D01*
X149029803Y-54111144D01*
X149202730Y-54034151D01*
X149272092Y-53983757D01*
X149355870Y-53922889D01*
X149482533Y-53782216D01*
X149577179Y-53618284D01*
X149577179Y-53618283D01*
X149629773Y-53456415D01*
X149669209Y-53398743D01*
X149721920Y-53373446D01*
X149779803Y-53361144D01*
X149952730Y-53284151D01*
X149999735Y-53250000D01*
X150105870Y-53172889D01*
X150232533Y-53032216D01*
X150251133Y-52999999D01*
X165094540Y-52999999D01*
X165114326Y-53188257D01*
X165172820Y-53368284D01*
X165267466Y-53532216D01*
X165394129Y-53672889D01*
X165547269Y-53784151D01*
X165720197Y-53861144D01*
X165905352Y-53900500D01*
X165905354Y-53900500D01*
X166094648Y-53900500D01*
X166218083Y-53874262D01*
X166279803Y-53861144D01*
X166452730Y-53784151D01*
X166605871Y-53672888D01*
X166611598Y-53666527D01*
X166671084Y-53629879D01*
X166703747Y-53625500D01*
X167296253Y-53625500D01*
X167363292Y-53645185D01*
X167388400Y-53666526D01*
X167394129Y-53672888D01*
X167547270Y-53784151D01*
X167547271Y-53784151D01*
X167547272Y-53784152D01*
X167720197Y-53861144D01*
X167905352Y-53900500D01*
X167905354Y-53900500D01*
X168094648Y-53900500D01*
X168218083Y-53874262D01*
X168279803Y-53861144D01*
X168452730Y-53784151D01*
X168461422Y-53777835D01*
X168527224Y-53754355D01*
X168595278Y-53770177D01*
X168639351Y-53815523D01*
X168640163Y-53814993D01*
X168642885Y-53819159D01*
X168643975Y-53820281D01*
X168644983Y-53822371D01*
X168645783Y-53823595D01*
X168771731Y-54016373D01*
X168927692Y-54185792D01*
X169109411Y-54327229D01*
X169311931Y-54436828D01*
X169529729Y-54511598D01*
X169756863Y-54549500D01*
X169756864Y-54549500D01*
X169987136Y-54549500D01*
X169987137Y-54549500D01*
X170214271Y-54511598D01*
X170432069Y-54436828D01*
X170634589Y-54327229D01*
X170816308Y-54185792D01*
X170972269Y-54016373D01*
X171098217Y-53823595D01*
X171190717Y-53612716D01*
X171247246Y-53389488D01*
X171266262Y-53160000D01*
X171247246Y-52930512D01*
X171190717Y-52707284D01*
X171138764Y-52588843D01*
X184924643Y-52588843D01*
X184955403Y-52842171D01*
X185012093Y-53037886D01*
X185026399Y-53087276D01*
X185067023Y-53172889D01*
X185135794Y-53317822D01*
X185185262Y-53389488D01*
X185280754Y-53527832D01*
X185457525Y-53711870D01*
X185661529Y-53865169D01*
X185783179Y-53929016D01*
X185887478Y-53983757D01*
X185887481Y-53983758D01*
X186129531Y-54064566D01*
X186286692Y-54090107D01*
X186381408Y-54105500D01*
X186381409Y-54105500D01*
X186570209Y-54105500D01*
X186572694Y-54105500D01*
X186763355Y-54090108D01*
X187011122Y-54029039D01*
X187245885Y-53929016D01*
X187461562Y-53792630D01*
X187652569Y-53623413D01*
X187813958Y-53425747D01*
X187941549Y-53204753D01*
X188032038Y-52966153D01*
X188083081Y-52716128D01*
X188093356Y-52461153D01*
X188062597Y-52207831D01*
X187991601Y-51962724D01*
X187882206Y-51732179D01*
X187865454Y-51707910D01*
X187790624Y-51599500D01*
X187737246Y-51522168D01*
X187560475Y-51338130D01*
X187356471Y-51184831D01*
X187234825Y-51120986D01*
X187130521Y-51066242D01*
X186888466Y-50985433D01*
X186636592Y-50944500D01*
X186636591Y-50944500D01*
X186445306Y-50944500D01*
X186442851Y-50944698D01*
X186442830Y-50944699D01*
X186254645Y-50959892D01*
X186006879Y-51020960D01*
X185772110Y-51120986D01*
X185556441Y-51257367D01*
X185365428Y-51426589D01*
X185204041Y-51624252D01*
X185076451Y-51845246D01*
X184985961Y-52083847D01*
X184934918Y-52333874D01*
X184924643Y-52588843D01*
X171138764Y-52588843D01*
X171098217Y-52496405D01*
X170972269Y-52303627D01*
X170816308Y-52134208D01*
X170634589Y-51992771D01*
X170634583Y-51992768D01*
X170628270Y-51987854D01*
X170587457Y-51931144D01*
X170583782Y-51861371D01*
X170618413Y-51800687D01*
X170628270Y-51792146D01*
X170634583Y-51787231D01*
X170634589Y-51787229D01*
X170816308Y-51645792D01*
X170972269Y-51476373D01*
X171098217Y-51283595D01*
X171190717Y-51072716D01*
X171247246Y-50849488D01*
X171266262Y-50620000D01*
X171253004Y-50459999D01*
X192444706Y-50459999D01*
X192463854Y-50703303D01*
X192520828Y-50940615D01*
X192614221Y-51166088D01*
X192727711Y-51351285D01*
X192745956Y-51418731D01*
X192724840Y-51485333D01*
X192696295Y-51515341D01*
X192592813Y-51592808D01*
X192506647Y-51707910D01*
X192456400Y-51842628D01*
X192450354Y-51898867D01*
X192450000Y-51905481D01*
X192450000Y-52750000D01*
X193505148Y-52750000D01*
X193456441Y-52887047D01*
X193446123Y-53037886D01*
X193476884Y-53185915D01*
X193510090Y-53250000D01*
X192450000Y-53250000D01*
X192450000Y-54094518D01*
X192450354Y-54101132D01*
X192456400Y-54157371D01*
X192506647Y-54292089D01*
X192592811Y-54407188D01*
X192707910Y-54493352D01*
X192842628Y-54543599D01*
X192898867Y-54549645D01*
X192905482Y-54550000D01*
X193750000Y-54550000D01*
X193750000Y-53491683D01*
X193778819Y-53509209D01*
X193924404Y-53550000D01*
X194037622Y-53550000D01*
X194149783Y-53534584D01*
X194250000Y-53491053D01*
X194250000Y-54550000D01*
X195094518Y-54550000D01*
X195101132Y-54549645D01*
X195157371Y-54543599D01*
X195292089Y-54493352D01*
X195407188Y-54407188D01*
X195493352Y-54292089D01*
X195543599Y-54157371D01*
X195549645Y-54101132D01*
X195550000Y-54094518D01*
X195550000Y-53250000D01*
X194494852Y-53250000D01*
X194543559Y-53112953D01*
X194553877Y-52962114D01*
X194523116Y-52814085D01*
X194489910Y-52750000D01*
X195550000Y-52750000D01*
X195550000Y-51905481D01*
X195549645Y-51898867D01*
X195543599Y-51842628D01*
X195493352Y-51707910D01*
X195407188Y-51592810D01*
X195303704Y-51515342D01*
X195261833Y-51459408D01*
X195256849Y-51389716D01*
X195272288Y-51351285D01*
X195280350Y-51338130D01*
X195335824Y-51247603D01*
X195385778Y-51166088D01*
X195479171Y-50940615D01*
X195507029Y-50824581D01*
X195536146Y-50703302D01*
X195555294Y-50460000D01*
X195536146Y-50216698D01*
X195479172Y-49979388D01*
X195479171Y-49979387D01*
X195479171Y-49979384D01*
X195385778Y-49753911D01*
X195302381Y-49617821D01*
X195258259Y-49545821D01*
X195099759Y-49360241D01*
X194914179Y-49201741D01*
X194867097Y-49172889D01*
X194706088Y-49074221D01*
X194480615Y-48980828D01*
X194243303Y-48923854D01*
X194000000Y-48904706D01*
X193756696Y-48923854D01*
X193519384Y-48980828D01*
X193293911Y-49074221D01*
X193085822Y-49201740D01*
X192900241Y-49360241D01*
X192741740Y-49545822D01*
X192614221Y-49753911D01*
X192520828Y-49979384D01*
X192463854Y-50216696D01*
X192444706Y-50459999D01*
X171253004Y-50459999D01*
X171247246Y-50390512D01*
X171190717Y-50167284D01*
X171098217Y-49956405D01*
X170972269Y-49763627D01*
X170816308Y-49594208D01*
X170634589Y-49452771D01*
X170634587Y-49452769D01*
X170628271Y-49447854D01*
X170587458Y-49391143D01*
X170583783Y-49321370D01*
X170618414Y-49260687D01*
X170628271Y-49252146D01*
X170634586Y-49247230D01*
X170634589Y-49247229D01*
X170816308Y-49105792D01*
X170972269Y-48936373D01*
X171098217Y-48743595D01*
X171190717Y-48532716D01*
X171199002Y-48500000D01*
X176094540Y-48500000D01*
X176114326Y-48688257D01*
X176172820Y-48868284D01*
X176267466Y-49032216D01*
X176394129Y-49172889D01*
X176547269Y-49284151D01*
X176720197Y-49361144D01*
X176905352Y-49400500D01*
X176905354Y-49400500D01*
X177094648Y-49400500D01*
X177218083Y-49374262D01*
X177279803Y-49361144D01*
X177452730Y-49284151D01*
X177546740Y-49215849D01*
X177605870Y-49172889D01*
X177636515Y-49138855D01*
X177732533Y-49032216D01*
X177827179Y-48868284D01*
X177885674Y-48688256D01*
X177903321Y-48520344D01*
X177929904Y-48455734D01*
X177938951Y-48445638D01*
X179447771Y-46936819D01*
X179509095Y-46903334D01*
X179535453Y-46900500D01*
X179594648Y-46900500D01*
X179718084Y-46874262D01*
X179779803Y-46861144D01*
X179952730Y-46784151D01*
X179956556Y-46781371D01*
X180105870Y-46672889D01*
X180232533Y-46532216D01*
X180327179Y-46368284D01*
X180354515Y-46284152D01*
X180385674Y-46188256D01*
X180405460Y-46000000D01*
X180385674Y-45811744D01*
X180355332Y-45718363D01*
X180327179Y-45631715D01*
X180232533Y-45467783D01*
X180105870Y-45327110D01*
X179952730Y-45215848D01*
X179779802Y-45138855D01*
X179594648Y-45099500D01*
X179594646Y-45099500D01*
X179405354Y-45099500D01*
X179405352Y-45099500D01*
X179220197Y-45138855D01*
X179047269Y-45215848D01*
X178894129Y-45327110D01*
X178767466Y-45467783D01*
X178672820Y-45631715D01*
X178614326Y-45811742D01*
X178596679Y-45979650D01*
X178570094Y-46044264D01*
X178561039Y-46054369D01*
X178109255Y-46506153D01*
X178047932Y-46539638D01*
X177978240Y-46534654D01*
X177922307Y-46492782D01*
X177898253Y-46431434D01*
X177885674Y-46311744D01*
X177850533Y-46203592D01*
X177827179Y-46131715D01*
X177732533Y-45967783D01*
X177657350Y-45884284D01*
X177627120Y-45821293D01*
X177625500Y-45801312D01*
X177625500Y-45198687D01*
X177645185Y-45131648D01*
X177657350Y-45115714D01*
X177732533Y-45032216D01*
X177769734Y-44967783D01*
X177827179Y-44868284D01*
X177844067Y-44816307D01*
X177885674Y-44688256D01*
X177905460Y-44500000D01*
X177905315Y-44498618D01*
X192649500Y-44498618D01*
X192686025Y-44682248D01*
X192741555Y-44816307D01*
X192757678Y-44855231D01*
X192861698Y-45010908D01*
X192994092Y-45143302D01*
X193149769Y-45247322D01*
X193283563Y-45302741D01*
X193322751Y-45318974D01*
X193506382Y-45355500D01*
X193506384Y-45355500D01*
X196093618Y-45355500D01*
X196277248Y-45318974D01*
X196277249Y-45318973D01*
X196277251Y-45318973D01*
X196450231Y-45247322D01*
X196605908Y-45143302D01*
X196738302Y-45010908D01*
X196842322Y-44855231D01*
X196913973Y-44682251D01*
X196930363Y-44599855D01*
X196950500Y-44498618D01*
X196950500Y-44311381D01*
X196913974Y-44127751D01*
X196858445Y-43993693D01*
X196842322Y-43954769D01*
X196738302Y-43799092D01*
X196605908Y-43666698D01*
X196450231Y-43562678D01*
X196450230Y-43562677D01*
X196277248Y-43491025D01*
X196093618Y-43454500D01*
X196093616Y-43454500D01*
X196022590Y-43454500D01*
X193639882Y-43454500D01*
X193600000Y-43454500D01*
X193506384Y-43454500D01*
X193506382Y-43454500D01*
X193322751Y-43491025D01*
X193149768Y-43562678D01*
X192994091Y-43666698D01*
X192861698Y-43799091D01*
X192757678Y-43954768D01*
X192686025Y-44127751D01*
X192649500Y-44311381D01*
X192649500Y-44498618D01*
X177905315Y-44498618D01*
X177885674Y-44311744D01*
X177827179Y-44131716D01*
X177827179Y-44131715D01*
X177732533Y-43967783D01*
X177605870Y-43827110D01*
X177452730Y-43715848D01*
X177279802Y-43638855D01*
X177094648Y-43599500D01*
X177094646Y-43599500D01*
X176905354Y-43599500D01*
X176905352Y-43599500D01*
X176720197Y-43638855D01*
X176547269Y-43715848D01*
X176394129Y-43827110D01*
X176267466Y-43967783D01*
X176172820Y-44131715D01*
X176114326Y-44311742D01*
X176094540Y-44500000D01*
X176114326Y-44688257D01*
X176172820Y-44868284D01*
X176267464Y-45032213D01*
X176267467Y-45032216D01*
X176328050Y-45099500D01*
X176342650Y-45115714D01*
X176372880Y-45178706D01*
X176374500Y-45198687D01*
X176374500Y-45801312D01*
X176354815Y-45868351D01*
X176342650Y-45884284D01*
X176267466Y-45967783D01*
X176172820Y-46131715D01*
X176114326Y-46311742D01*
X176094540Y-46499999D01*
X176114326Y-46688257D01*
X176172820Y-46868284D01*
X176267466Y-47032216D01*
X176394129Y-47172889D01*
X176547269Y-47284151D01*
X176720197Y-47361144D01*
X176802836Y-47378710D01*
X176864318Y-47411902D01*
X176898094Y-47473065D01*
X176893442Y-47542780D01*
X176851837Y-47598912D01*
X176802836Y-47621290D01*
X176720197Y-47638855D01*
X176547269Y-47715848D01*
X176394129Y-47827110D01*
X176267466Y-47967783D01*
X176172820Y-48131715D01*
X176114326Y-48311742D01*
X176094540Y-48500000D01*
X171199002Y-48500000D01*
X171247246Y-48309488D01*
X171266262Y-48080000D01*
X171247246Y-47850512D01*
X171190717Y-47627284D01*
X171098217Y-47416405D01*
X170972269Y-47223627D01*
X170816308Y-47054208D01*
X170634589Y-46912771D01*
X170634583Y-46912768D01*
X170628270Y-46907854D01*
X170587457Y-46851144D01*
X170583782Y-46781371D01*
X170618413Y-46720687D01*
X170628270Y-46712146D01*
X170634583Y-46707231D01*
X170634589Y-46707229D01*
X170816308Y-46565792D01*
X170972269Y-46396373D01*
X171098217Y-46203595D01*
X171190717Y-45992716D01*
X171247246Y-45769488D01*
X171266262Y-45540000D01*
X171247246Y-45310512D01*
X171190717Y-45087284D01*
X171098217Y-44876405D01*
X170972269Y-44683627D01*
X170816308Y-44514208D01*
X170634589Y-44372771D01*
X170634587Y-44372769D01*
X170628271Y-44367854D01*
X170587458Y-44311143D01*
X170583783Y-44241370D01*
X170618414Y-44180687D01*
X170628271Y-44172146D01*
X170634586Y-44167230D01*
X170634589Y-44167229D01*
X170816308Y-44025792D01*
X170972269Y-43856373D01*
X171098217Y-43663595D01*
X171190717Y-43452716D01*
X171247246Y-43229488D01*
X171266262Y-43000000D01*
X171247246Y-42770512D01*
X171190717Y-42547284D01*
X171098217Y-42336405D01*
X170972269Y-42143627D01*
X170816308Y-41974208D01*
X170634589Y-41832771D01*
X170634583Y-41832768D01*
X170628270Y-41827854D01*
X170587457Y-41771144D01*
X170583782Y-41701371D01*
X170618413Y-41640687D01*
X170628270Y-41632146D01*
X170634583Y-41627231D01*
X170634589Y-41627229D01*
X170799829Y-41498618D01*
X192649500Y-41498618D01*
X192686025Y-41682248D01*
X192746338Y-41827854D01*
X192757678Y-41855231D01*
X192861698Y-42010908D01*
X192994092Y-42143302D01*
X193149769Y-42247322D01*
X193283563Y-42302741D01*
X193322751Y-42318974D01*
X193506382Y-42355500D01*
X193506384Y-42355500D01*
X196093618Y-42355500D01*
X196277248Y-42318974D01*
X196277249Y-42318973D01*
X196277251Y-42318973D01*
X196450231Y-42247322D01*
X196605908Y-42143302D01*
X196738302Y-42010908D01*
X196842322Y-41855231D01*
X196913973Y-41682251D01*
X196915836Y-41672889D01*
X196950500Y-41498618D01*
X196950500Y-41311381D01*
X196913974Y-41127751D01*
X196858445Y-40993693D01*
X196842322Y-40954769D01*
X196738302Y-40799092D01*
X196605908Y-40666698D01*
X196450231Y-40562678D01*
X196450231Y-40562677D01*
X196277248Y-40491025D01*
X196093618Y-40454500D01*
X196093616Y-40454500D01*
X196022590Y-40454500D01*
X193639882Y-40454500D01*
X193600000Y-40454500D01*
X193506384Y-40454500D01*
X193506382Y-40454500D01*
X193322751Y-40491025D01*
X193149768Y-40562678D01*
X192994091Y-40666698D01*
X192861698Y-40799091D01*
X192757678Y-40954768D01*
X192686025Y-41127751D01*
X192649500Y-41311381D01*
X192649500Y-41498618D01*
X170799829Y-41498618D01*
X170816308Y-41485792D01*
X170972269Y-41316373D01*
X171098217Y-41123595D01*
X171190717Y-40912716D01*
X171247246Y-40689488D01*
X171266262Y-40460000D01*
X171247246Y-40230512D01*
X171190717Y-40007284D01*
X171098217Y-39796405D01*
X170972269Y-39603627D01*
X170816308Y-39434208D01*
X170634589Y-39292771D01*
X170634587Y-39292770D01*
X170627864Y-39287537D01*
X170587051Y-39230826D01*
X170583376Y-39161053D01*
X170618008Y-39100370D01*
X170627864Y-39091829D01*
X170662959Y-39064513D01*
X170662959Y-39064512D01*
X170004533Y-38406086D01*
X170014315Y-38404680D01*
X170145100Y-38344952D01*
X170253761Y-38250798D01*
X170331493Y-38129844D01*
X170355076Y-38049524D01*
X171015238Y-38709686D01*
X171097773Y-38583357D01*
X171190241Y-38372554D01*
X171246751Y-38149400D01*
X171265760Y-37920000D01*
X171246751Y-37690599D01*
X171190241Y-37467445D01*
X171097774Y-37256643D01*
X171015238Y-37130312D01*
X170355076Y-37790475D01*
X170331493Y-37710156D01*
X170253761Y-37589202D01*
X170145100Y-37495048D01*
X170014315Y-37435320D01*
X170004532Y-37433913D01*
X170662959Y-36775487D01*
X170662959Y-36775486D01*
X170627865Y-36748172D01*
X170587051Y-36691462D01*
X170583376Y-36621689D01*
X170618006Y-36561005D01*
X170627864Y-36552463D01*
X170634589Y-36547229D01*
X170816308Y-36405792D01*
X170972269Y-36236373D01*
X171098217Y-36043595D01*
X171190717Y-35832716D01*
X171247246Y-35609488D01*
X171266262Y-35380000D01*
X171247246Y-35150512D01*
X171190717Y-34927284D01*
X171098217Y-34716405D01*
X170972269Y-34523627D01*
X170816308Y-34354208D01*
X170634589Y-34212771D01*
X170634587Y-34212770D01*
X170628270Y-34207853D01*
X170587457Y-34151142D01*
X170583782Y-34081369D01*
X170618414Y-34020686D01*
X170628270Y-34012145D01*
X170634579Y-34007234D01*
X170634589Y-34007229D01*
X170816308Y-33865792D01*
X170972269Y-33696373D01*
X171075188Y-33538843D01*
X184924643Y-33538843D01*
X184955403Y-33792171D01*
X185026398Y-34037273D01*
X185026399Y-34037276D01*
X185055409Y-34098413D01*
X185135794Y-34267822D01*
X185208273Y-34372826D01*
X185280754Y-34477832D01*
X185457525Y-34661870D01*
X185661529Y-34815169D01*
X185783179Y-34879016D01*
X185887478Y-34933757D01*
X185887481Y-34933758D01*
X186129531Y-35014566D01*
X186286692Y-35040107D01*
X186381408Y-35055500D01*
X186381409Y-35055500D01*
X186570209Y-35055500D01*
X186572694Y-35055500D01*
X186763355Y-35040108D01*
X187011122Y-34979039D01*
X187245885Y-34879016D01*
X187461562Y-34742630D01*
X187652569Y-34573413D01*
X187813958Y-34375747D01*
X187941549Y-34154753D01*
X188032038Y-33916153D01*
X188083081Y-33666128D01*
X188093356Y-33411153D01*
X188062597Y-33157831D01*
X188035373Y-33063843D01*
X193415643Y-33063843D01*
X193446403Y-33317171D01*
X193517398Y-33562273D01*
X193626794Y-33792822D01*
X193677162Y-33865792D01*
X193771754Y-34002832D01*
X193948525Y-34186870D01*
X194152529Y-34340169D01*
X194274179Y-34404016D01*
X194378478Y-34458757D01*
X194378481Y-34458758D01*
X194620531Y-34539566D01*
X194746950Y-34560111D01*
X194872408Y-34580500D01*
X194872409Y-34580500D01*
X195061209Y-34580500D01*
X195063694Y-34580500D01*
X195254355Y-34565108D01*
X195502122Y-34504039D01*
X195736885Y-34404016D01*
X195952562Y-34267630D01*
X196143569Y-34098413D01*
X196304958Y-33900747D01*
X196432549Y-33679753D01*
X196523038Y-33441153D01*
X196574081Y-33191128D01*
X196581923Y-32996526D01*
X196584356Y-32936156D01*
X196581511Y-32912724D01*
X196553597Y-32682831D01*
X196482601Y-32437724D01*
X196373206Y-32207179D01*
X196228246Y-31997168D01*
X196051475Y-31813130D01*
X195847471Y-31659831D01*
X195725825Y-31595986D01*
X195621521Y-31541242D01*
X195379466Y-31460433D01*
X195127592Y-31419500D01*
X195127591Y-31419500D01*
X194936306Y-31419500D01*
X194933851Y-31419698D01*
X194933830Y-31419699D01*
X194745645Y-31434892D01*
X194497879Y-31495960D01*
X194263110Y-31595986D01*
X194047441Y-31732367D01*
X193856428Y-31901589D01*
X193695041Y-32099252D01*
X193567451Y-32320246D01*
X193476961Y-32558847D01*
X193425918Y-32808874D01*
X193415643Y-33063843D01*
X188035373Y-33063843D01*
X187991601Y-32912724D01*
X187882206Y-32682179D01*
X187737246Y-32472168D01*
X187560475Y-32288130D01*
X187356471Y-32134831D01*
X187276544Y-32092882D01*
X187130521Y-32016242D01*
X186888466Y-31935433D01*
X186636592Y-31894500D01*
X186636591Y-31894500D01*
X186445306Y-31894500D01*
X186442851Y-31894698D01*
X186442830Y-31894699D01*
X186254645Y-31909892D01*
X186006879Y-31970960D01*
X185772110Y-32070986D01*
X185556441Y-32207367D01*
X185365428Y-32376589D01*
X185204041Y-32574252D01*
X185076451Y-32795246D01*
X184985961Y-33033847D01*
X184934918Y-33283874D01*
X184924643Y-33538843D01*
X171075188Y-33538843D01*
X171098217Y-33503595D01*
X171190717Y-33292716D01*
X171247246Y-33069488D01*
X171266262Y-32840000D01*
X171247246Y-32610512D01*
X171190717Y-32387284D01*
X171098217Y-32176405D01*
X170972269Y-31983627D01*
X170816308Y-31814208D01*
X170634589Y-31672771D01*
X170432069Y-31563172D01*
X170432065Y-31563170D01*
X170432064Y-31563170D01*
X170214273Y-31488402D01*
X170046662Y-31460433D01*
X169987137Y-31450500D01*
X169756863Y-31450500D01*
X169700079Y-31459975D01*
X169529726Y-31488402D01*
X169311935Y-31563170D01*
X169311931Y-31563171D01*
X169311931Y-31563172D01*
X169176917Y-31636237D01*
X169109409Y-31672772D01*
X168927691Y-31814208D01*
X168816096Y-31935434D01*
X168771731Y-31983627D01*
X168750423Y-32016242D01*
X168645781Y-32176407D01*
X168553284Y-32387281D01*
X168553283Y-32387284D01*
X168525083Y-32498644D01*
X168496753Y-32610516D01*
X168477737Y-32840000D01*
X168496753Y-33069483D01*
X168496753Y-33069486D01*
X168496754Y-33069488D01*
X168551043Y-33283872D01*
X168553284Y-33292718D01*
X168645781Y-33503592D01*
X168645783Y-33503595D01*
X168771731Y-33696373D01*
X168927692Y-33865792D01*
X169109411Y-34007229D01*
X169109417Y-34007232D01*
X169115729Y-34012145D01*
X169156542Y-34068855D01*
X169160217Y-34138628D01*
X169125586Y-34199312D01*
X169115730Y-34207852D01*
X168927692Y-34354207D01*
X168771732Y-34523626D01*
X168645781Y-34716407D01*
X168574455Y-34879016D01*
X168553283Y-34927284D01*
X168538527Y-34985553D01*
X168496753Y-35150516D01*
X168477737Y-35380000D01*
X168496753Y-35609483D01*
X168496753Y-35609486D01*
X168496754Y-35609488D01*
X168544802Y-35799227D01*
X168553284Y-35832718D01*
X168645781Y-36043592D01*
X168645783Y-36043595D01*
X168771731Y-36236373D01*
X168916213Y-36393323D01*
X168927691Y-36405791D01*
X169116136Y-36552463D01*
X169156949Y-36609174D01*
X169160624Y-36678947D01*
X169125992Y-36739630D01*
X169116132Y-36748174D01*
X169081039Y-36775485D01*
X169081039Y-36775486D01*
X169739467Y-37433913D01*
X169729685Y-37435320D01*
X169598900Y-37495048D01*
X169490239Y-37589202D01*
X169412507Y-37710156D01*
X169388923Y-37790476D01*
X168728760Y-37130313D01*
X168646224Y-37256644D01*
X168553758Y-37467445D01*
X168497248Y-37690599D01*
X168478239Y-37920000D01*
X168497248Y-38149400D01*
X168553759Y-38372554D01*
X168646223Y-38583353D01*
X168728760Y-38709685D01*
X169388922Y-38049522D01*
X169412507Y-38129844D01*
X169490239Y-38250798D01*
X169598900Y-38344952D01*
X169729685Y-38404680D01*
X169739466Y-38406086D01*
X169081038Y-39064512D01*
X169116135Y-39091828D01*
X169156949Y-39148538D01*
X169160624Y-39218311D01*
X169125994Y-39278995D01*
X169116136Y-39287537D01*
X168927691Y-39434208D01*
X168771732Y-39603626D01*
X168645781Y-39796407D01*
X168553284Y-40007281D01*
X168553283Y-40007284D01*
X168500468Y-40215847D01*
X168496753Y-40230516D01*
X168477737Y-40459999D01*
X168496753Y-40689483D01*
X168496753Y-40689486D01*
X168496754Y-40689488D01*
X168542837Y-40871467D01*
X168553284Y-40912718D01*
X168645781Y-41123592D01*
X168645783Y-41123595D01*
X168771731Y-41316373D01*
X168927691Y-41485791D01*
X168927695Y-41485795D01*
X169115728Y-41632147D01*
X169156541Y-41688857D01*
X169160216Y-41758630D01*
X169125584Y-41819313D01*
X169115728Y-41827853D01*
X168927695Y-41974204D01*
X168771732Y-42143626D01*
X168645781Y-42336407D01*
X168553284Y-42547281D01*
X168496753Y-42770516D01*
X168477737Y-43000000D01*
X168496753Y-43229483D01*
X168553284Y-43452718D01*
X168645781Y-43663592D01*
X168645783Y-43663595D01*
X168771731Y-43856373D01*
X168927692Y-44025792D01*
X169109411Y-44167229D01*
X169109417Y-44167232D01*
X169115729Y-44172145D01*
X169156542Y-44228855D01*
X169160217Y-44298628D01*
X169125586Y-44359312D01*
X169115730Y-44367852D01*
X168927692Y-44514207D01*
X168784120Y-44670168D01*
X168771731Y-44683627D01*
X168749828Y-44717152D01*
X168645781Y-44876407D01*
X168577439Y-45032213D01*
X168553283Y-45087284D01*
X168537126Y-45151087D01*
X168496753Y-45310516D01*
X168477737Y-45540000D01*
X168496753Y-45769483D01*
X168496753Y-45769486D01*
X168496754Y-45769488D01*
X168549974Y-45979650D01*
X168553284Y-45992718D01*
X168645781Y-46203592D01*
X168645783Y-46203595D01*
X168771731Y-46396373D01*
X168903616Y-46539638D01*
X168927695Y-46565795D01*
X169115728Y-46712147D01*
X169156541Y-46768857D01*
X169160216Y-46838630D01*
X169125584Y-46899313D01*
X169115728Y-46907853D01*
X168927695Y-47054204D01*
X168771732Y-47223626D01*
X168645781Y-47416407D01*
X168553284Y-47627281D01*
X168496753Y-47850516D01*
X168477737Y-48080000D01*
X168496753Y-48309483D01*
X168496753Y-48309486D01*
X168496754Y-48309488D01*
X168550151Y-48520349D01*
X168553284Y-48532718D01*
X168645781Y-48743592D01*
X168645783Y-48743595D01*
X168771731Y-48936373D01*
X168927692Y-49105792D01*
X169109411Y-49247229D01*
X169109417Y-49247232D01*
X169115729Y-49252145D01*
X169156542Y-49308855D01*
X169160217Y-49378628D01*
X169125586Y-49439312D01*
X169115730Y-49447852D01*
X168927692Y-49594207D01*
X168771732Y-49763626D01*
X168645781Y-49956407D01*
X168569117Y-50131184D01*
X168524161Y-50184670D01*
X168457425Y-50205360D01*
X168405125Y-50194653D01*
X168279802Y-50138855D01*
X168094648Y-50099500D01*
X168094646Y-50099500D01*
X167905354Y-50099500D01*
X167905352Y-50099500D01*
X167720197Y-50138855D01*
X167547272Y-50215847D01*
X167546101Y-50216698D01*
X167394129Y-50327112D01*
X167388401Y-50333472D01*
X167328916Y-50370121D01*
X167296253Y-50374500D01*
X166703747Y-50374500D01*
X166636708Y-50354815D01*
X166611599Y-50333473D01*
X166605871Y-50327112D01*
X166452730Y-50215849D01*
X166452729Y-50215848D01*
X166452727Y-50215847D01*
X166279802Y-50138855D01*
X166094648Y-50099500D01*
X166094646Y-50099500D01*
X165905354Y-50099500D01*
X165905352Y-50099500D01*
X165720197Y-50138855D01*
X165547269Y-50215848D01*
X165394129Y-50327110D01*
X165267466Y-50467783D01*
X165172820Y-50631715D01*
X165114326Y-50811742D01*
X165094540Y-50999999D01*
X165114326Y-51188257D01*
X165172820Y-51368284D01*
X165267466Y-51532216D01*
X165394129Y-51672889D01*
X165547269Y-51784151D01*
X165720197Y-51861144D01*
X165802836Y-51878710D01*
X165864318Y-51911902D01*
X165898094Y-51973065D01*
X165893442Y-52042780D01*
X165851837Y-52098912D01*
X165802836Y-52121290D01*
X165720197Y-52138855D01*
X165547269Y-52215848D01*
X165394129Y-52327110D01*
X165267466Y-52467783D01*
X165172820Y-52631715D01*
X165114326Y-52811742D01*
X165094540Y-52999999D01*
X150251133Y-52999999D01*
X150327179Y-52868284D01*
X150367371Y-52744585D01*
X150385674Y-52688256D01*
X150405460Y-52500000D01*
X150385674Y-52311744D01*
X150327989Y-52134208D01*
X150327179Y-52131715D01*
X150232533Y-51967783D01*
X150105870Y-51827110D01*
X149952730Y-51715848D01*
X149779802Y-51638855D01*
X149594648Y-51599500D01*
X149594646Y-51599500D01*
X149535452Y-51599500D01*
X149468413Y-51579815D01*
X149447771Y-51563181D01*
X147938960Y-50054369D01*
X147905475Y-49993046D01*
X147903323Y-49979668D01*
X147885674Y-49811744D01*
X147827179Y-49631716D01*
X147827179Y-49631715D01*
X147732533Y-49467783D01*
X147605870Y-49327110D01*
X147452730Y-49215848D01*
X147279802Y-49138855D01*
X147094648Y-49099500D01*
X147094646Y-49099500D01*
X146905354Y-49099500D01*
X146905352Y-49099500D01*
X146720197Y-49138855D01*
X146547269Y-49215848D01*
X146394129Y-49327110D01*
X146267467Y-49467784D01*
X146225886Y-49539802D01*
X146175318Y-49588017D01*
X146106711Y-49601238D01*
X146095391Y-49599500D01*
X146094646Y-49599500D01*
X145905354Y-49599500D01*
X145905352Y-49599500D01*
X145720197Y-49638855D01*
X145547269Y-49715848D01*
X145394129Y-49827110D01*
X145267466Y-49967783D01*
X145172820Y-50131715D01*
X145114326Y-50311742D01*
X145094540Y-50500000D01*
X145104712Y-50596788D01*
X145092142Y-50665517D01*
X145054276Y-50710066D01*
X144896660Y-50824579D01*
X144769997Y-50965252D01*
X144675351Y-51129184D01*
X144616857Y-51309211D01*
X144597071Y-51497468D01*
X144597071Y-51497469D01*
X120200500Y-51497469D01*
X120200500Y-45499999D01*
X156594540Y-45499999D01*
X156614326Y-45688257D01*
X156672820Y-45868284D01*
X156767466Y-46032216D01*
X156894129Y-46172889D01*
X157047269Y-46284151D01*
X157220197Y-46361144D01*
X157405352Y-46400500D01*
X157405354Y-46400500D01*
X157594648Y-46400500D01*
X157718084Y-46374262D01*
X157779803Y-46361144D01*
X157952730Y-46284151D01*
X158105871Y-46172888D01*
X158111598Y-46166527D01*
X158171084Y-46129879D01*
X158203747Y-46125500D01*
X160296253Y-46125500D01*
X160363292Y-46145185D01*
X160388400Y-46166526D01*
X160394129Y-46172888D01*
X160547270Y-46284151D01*
X160547271Y-46284151D01*
X160547272Y-46284152D01*
X160720197Y-46361144D01*
X160905352Y-46400500D01*
X160905354Y-46400500D01*
X161094648Y-46400500D01*
X161218084Y-46374262D01*
X161279803Y-46361144D01*
X161452730Y-46284151D01*
X161452729Y-46284150D01*
X161605870Y-46172889D01*
X161611598Y-46166528D01*
X161732533Y-46032216D01*
X161827179Y-45868284D01*
X161885674Y-45688256D01*
X161905460Y-45500000D01*
X161885674Y-45311744D01*
X161827179Y-45131716D01*
X161827179Y-45131715D01*
X161732533Y-44967783D01*
X161605870Y-44827110D01*
X161452730Y-44715848D01*
X161279802Y-44638855D01*
X161094648Y-44599500D01*
X161094646Y-44599500D01*
X160905354Y-44599500D01*
X160905352Y-44599500D01*
X160720197Y-44638855D01*
X160547272Y-44715847D01*
X160445175Y-44790024D01*
X160394129Y-44827112D01*
X160388401Y-44833472D01*
X160328916Y-44870121D01*
X160296253Y-44874500D01*
X158203747Y-44874500D01*
X158136708Y-44854815D01*
X158111599Y-44833473D01*
X158105871Y-44827112D01*
X157952730Y-44715849D01*
X157952729Y-44715848D01*
X157952727Y-44715847D01*
X157779802Y-44638855D01*
X157594648Y-44599500D01*
X157594646Y-44599500D01*
X157405354Y-44599500D01*
X157405352Y-44599500D01*
X157220197Y-44638855D01*
X157047269Y-44715848D01*
X156894129Y-44827110D01*
X156767466Y-44967783D01*
X156672820Y-45131715D01*
X156614326Y-45311742D01*
X156594540Y-45499999D01*
X120200500Y-45499999D01*
X120200500Y-40999999D01*
X135094540Y-40999999D01*
X135114326Y-41188257D01*
X135172820Y-41368284D01*
X135267466Y-41532216D01*
X135394129Y-41672889D01*
X135547269Y-41784151D01*
X135720197Y-41861144D01*
X135905352Y-41900500D01*
X135905354Y-41900500D01*
X136094648Y-41900500D01*
X136218083Y-41874262D01*
X136279803Y-41861144D01*
X136452730Y-41784151D01*
X136605871Y-41672888D01*
X136611598Y-41666527D01*
X136671084Y-41629879D01*
X136703747Y-41625500D01*
X140296253Y-41625500D01*
X140363292Y-41645185D01*
X140388400Y-41666526D01*
X140394129Y-41672888D01*
X140547270Y-41784151D01*
X140547271Y-41784151D01*
X140547272Y-41784152D01*
X140720197Y-41861144D01*
X140905352Y-41900500D01*
X140905354Y-41900500D01*
X141094648Y-41900500D01*
X141218084Y-41874262D01*
X141279803Y-41861144D01*
X141452730Y-41784151D01*
X141544947Y-41717152D01*
X141605870Y-41672889D01*
X141611598Y-41666528D01*
X141732533Y-41532216D01*
X141827179Y-41368284D01*
X141885674Y-41188256D01*
X141905460Y-41000000D01*
X141885674Y-40811744D01*
X141845949Y-40689483D01*
X141827179Y-40631715D01*
X141732533Y-40467783D01*
X141605870Y-40327110D01*
X141452730Y-40215848D01*
X141279802Y-40138855D01*
X141094648Y-40099500D01*
X141094646Y-40099500D01*
X140905354Y-40099500D01*
X140905352Y-40099500D01*
X140720197Y-40138855D01*
X140547272Y-40215847D01*
X140445176Y-40290024D01*
X140394129Y-40327112D01*
X140388401Y-40333472D01*
X140328916Y-40370121D01*
X140296253Y-40374500D01*
X136703747Y-40374500D01*
X136636708Y-40354815D01*
X136611599Y-40333473D01*
X136605871Y-40327112D01*
X136452730Y-40215849D01*
X136452729Y-40215848D01*
X136452727Y-40215847D01*
X136279802Y-40138855D01*
X136094648Y-40099500D01*
X136094646Y-40099500D01*
X135905354Y-40099500D01*
X135905352Y-40099500D01*
X135720197Y-40138855D01*
X135547269Y-40215848D01*
X135394129Y-40327110D01*
X135267466Y-40467783D01*
X135172820Y-40631715D01*
X135114326Y-40811742D01*
X135094540Y-40999999D01*
X120200500Y-40999999D01*
X120200500Y-34632000D01*
X128064737Y-34632000D01*
X128083753Y-34861483D01*
X128083753Y-34861486D01*
X128083754Y-34861488D01*
X128133252Y-35056952D01*
X128140284Y-35084718D01*
X128232781Y-35295592D01*
X128232783Y-35295595D01*
X128358731Y-35488373D01*
X128514692Y-35657792D01*
X128696411Y-35799229D01*
X128898931Y-35908828D01*
X129100571Y-35978051D01*
X129115307Y-35983110D01*
X129116729Y-35983598D01*
X129343863Y-36021500D01*
X129343864Y-36021500D01*
X129574136Y-36021500D01*
X129574137Y-36021500D01*
X129801271Y-35983598D01*
X130019069Y-35908828D01*
X130221589Y-35799229D01*
X130403308Y-35657792D01*
X130559269Y-35488373D01*
X130625192Y-35387470D01*
X130678337Y-35342114D01*
X130747569Y-35332690D01*
X130810904Y-35362192D01*
X130832807Y-35387468D01*
X130898731Y-35488373D01*
X131054692Y-35657792D01*
X131236411Y-35799229D01*
X131438931Y-35908828D01*
X131640571Y-35978051D01*
X131655307Y-35983110D01*
X131656729Y-35983598D01*
X131883863Y-36021500D01*
X131883864Y-36021500D01*
X132114136Y-36021500D01*
X132114137Y-36021500D01*
X132341271Y-35983598D01*
X132559069Y-35908828D01*
X132761589Y-35799229D01*
X132943308Y-35657792D01*
X133099269Y-35488373D01*
X133165192Y-35387470D01*
X133218337Y-35342114D01*
X133287569Y-35332690D01*
X133350904Y-35362192D01*
X133372807Y-35387468D01*
X133438731Y-35488373D01*
X133594692Y-35657792D01*
X133776411Y-35799229D01*
X133978931Y-35908828D01*
X134180571Y-35978051D01*
X134195307Y-35983110D01*
X134196729Y-35983598D01*
X134423863Y-36021500D01*
X134423864Y-36021500D01*
X134654136Y-36021500D01*
X134654137Y-36021500D01*
X134881271Y-35983598D01*
X135099069Y-35908828D01*
X135301589Y-35799229D01*
X135483308Y-35657792D01*
X135639269Y-35488373D01*
X135705192Y-35387470D01*
X135758338Y-35342115D01*
X135827569Y-35332691D01*
X135890905Y-35362193D01*
X135912807Y-35387468D01*
X135978731Y-35488373D01*
X136134692Y-35657792D01*
X136316411Y-35799229D01*
X136518931Y-35908828D01*
X136720571Y-35978051D01*
X136735307Y-35983110D01*
X136736729Y-35983598D01*
X136963863Y-36021500D01*
X136963864Y-36021500D01*
X137194136Y-36021500D01*
X137194137Y-36021500D01*
X137421271Y-35983598D01*
X137639069Y-35908828D01*
X137841589Y-35799229D01*
X138023308Y-35657792D01*
X138179269Y-35488373D01*
X138245192Y-35387470D01*
X138298338Y-35342115D01*
X138367569Y-35332691D01*
X138430905Y-35362193D01*
X138452807Y-35387468D01*
X138518731Y-35488373D01*
X138674692Y-35657792D01*
X138856411Y-35799229D01*
X139058931Y-35908828D01*
X139260571Y-35978051D01*
X139275307Y-35983110D01*
X139276729Y-35983598D01*
X139503863Y-36021500D01*
X139503864Y-36021500D01*
X139734136Y-36021500D01*
X139734137Y-36021500D01*
X139961271Y-35983598D01*
X140179069Y-35908828D01*
X140381589Y-35799229D01*
X140563308Y-35657792D01*
X140719269Y-35488373D01*
X140785192Y-35387470D01*
X140838338Y-35342115D01*
X140907569Y-35332691D01*
X140970905Y-35362193D01*
X140992807Y-35387468D01*
X141058731Y-35488373D01*
X141214692Y-35657792D01*
X141396411Y-35799229D01*
X141598931Y-35908828D01*
X141800571Y-35978051D01*
X141815307Y-35983110D01*
X141816729Y-35983598D01*
X142043863Y-36021500D01*
X142043864Y-36021500D01*
X142274136Y-36021500D01*
X142274137Y-36021500D01*
X142501271Y-35983598D01*
X142719069Y-35908828D01*
X142921589Y-35799229D01*
X143103308Y-35657792D01*
X143259269Y-35488373D01*
X143325192Y-35387470D01*
X143378338Y-35342115D01*
X143447569Y-35332691D01*
X143510905Y-35362193D01*
X143532807Y-35387468D01*
X143598731Y-35488373D01*
X143754692Y-35657792D01*
X143936411Y-35799229D01*
X144138931Y-35908828D01*
X144340571Y-35978051D01*
X144355307Y-35983110D01*
X144356729Y-35983598D01*
X144583863Y-36021500D01*
X144583864Y-36021500D01*
X144814136Y-36021500D01*
X144814137Y-36021500D01*
X145041271Y-35983598D01*
X145259069Y-35908828D01*
X145461589Y-35799229D01*
X145643308Y-35657792D01*
X145799269Y-35488373D01*
X145865491Y-35387011D01*
X145918635Y-35341657D01*
X145987866Y-35332233D01*
X146051202Y-35361734D01*
X146073106Y-35387013D01*
X146095759Y-35421686D01*
X146755922Y-34761523D01*
X146779507Y-34841844D01*
X146857239Y-34962798D01*
X146965900Y-35056952D01*
X147096685Y-35116680D01*
X147106466Y-35118086D01*
X146448038Y-35776512D01*
X146476685Y-35798808D01*
X146679137Y-35908369D01*
X146896848Y-35983110D01*
X147123905Y-36021000D01*
X147354095Y-36021000D01*
X147581151Y-35983110D01*
X147798862Y-35908369D01*
X148001315Y-35798807D01*
X148029959Y-35776512D01*
X147371533Y-35118086D01*
X147381315Y-35116680D01*
X147512100Y-35056952D01*
X147620761Y-34962798D01*
X147698493Y-34841844D01*
X147722076Y-34761524D01*
X148382238Y-35421686D01*
X148464773Y-35295357D01*
X148557241Y-35084554D01*
X148578653Y-35000000D01*
X159094540Y-35000000D01*
X159114326Y-35188257D01*
X159172820Y-35368284D01*
X159267466Y-35532216D01*
X159394129Y-35672889D01*
X159547269Y-35784151D01*
X159720197Y-35861144D01*
X159905352Y-35900500D01*
X159905354Y-35900500D01*
X159964548Y-35900500D01*
X160031587Y-35920185D01*
X160052229Y-35936819D01*
X163061038Y-38945629D01*
X163094523Y-39006952D01*
X163096678Y-39020348D01*
X163114326Y-39188257D01*
X163172820Y-39368284D01*
X163267466Y-39532216D01*
X163394129Y-39672889D01*
X163547269Y-39784151D01*
X163720197Y-39861144D01*
X163905352Y-39900500D01*
X163905354Y-39900500D01*
X164094648Y-39900500D01*
X164218083Y-39874262D01*
X164279803Y-39861144D01*
X164452730Y-39784151D01*
X164605871Y-39672888D01*
X164732533Y-39532216D01*
X164827179Y-39368284D01*
X164885674Y-39188256D01*
X164905460Y-39000000D01*
X164885674Y-38811744D01*
X164827179Y-38631716D01*
X164827179Y-38631715D01*
X164732533Y-38467783D01*
X164605870Y-38327110D01*
X164452730Y-38215848D01*
X164279802Y-38138855D01*
X164094648Y-38099500D01*
X164094646Y-38099500D01*
X164035453Y-38099500D01*
X163968414Y-38079815D01*
X163947772Y-38063181D01*
X160938960Y-35054369D01*
X160905475Y-34993046D01*
X160903323Y-34979668D01*
X160885674Y-34811744D01*
X160836977Y-34661870D01*
X160827179Y-34631715D01*
X160732533Y-34467783D01*
X160605870Y-34327110D01*
X160452730Y-34215848D01*
X160279802Y-34138855D01*
X160094648Y-34099500D01*
X160094646Y-34099500D01*
X159905354Y-34099500D01*
X159905352Y-34099500D01*
X159720197Y-34138855D01*
X159547269Y-34215848D01*
X159394129Y-34327110D01*
X159267466Y-34467783D01*
X159172820Y-34631715D01*
X159114326Y-34811742D01*
X159094540Y-35000000D01*
X148578653Y-35000000D01*
X148613751Y-34861400D01*
X148632760Y-34632000D01*
X148613751Y-34402599D01*
X148557241Y-34179445D01*
X148464774Y-33968643D01*
X148382238Y-33842312D01*
X147722076Y-34502475D01*
X147698493Y-34422156D01*
X147620761Y-34301202D01*
X147512100Y-34207048D01*
X147381315Y-34147320D01*
X147371532Y-34145913D01*
X148029959Y-33487487D01*
X148029959Y-33487485D01*
X148001317Y-33465193D01*
X147798862Y-33355630D01*
X147581151Y-33280889D01*
X147354095Y-33243000D01*
X147123905Y-33243000D01*
X146896848Y-33280889D01*
X146679134Y-33355631D01*
X146476682Y-33465192D01*
X146448039Y-33487484D01*
X146448039Y-33487486D01*
X147106467Y-34145913D01*
X147096685Y-34147320D01*
X146965900Y-34207048D01*
X146857239Y-34301202D01*
X146779507Y-34422156D01*
X146755923Y-34502476D01*
X146095759Y-33842312D01*
X146073106Y-33876986D01*
X146019960Y-33922342D01*
X145950729Y-33931766D01*
X145887393Y-33902264D01*
X145865489Y-33876985D01*
X145865191Y-33876529D01*
X145799269Y-33775627D01*
X145643308Y-33606208D01*
X145461589Y-33464771D01*
X145259069Y-33355172D01*
X145259065Y-33355170D01*
X145259064Y-33355170D01*
X145041273Y-33280402D01*
X144889848Y-33255134D01*
X144814137Y-33242500D01*
X144583863Y-33242500D01*
X144527079Y-33251975D01*
X144356726Y-33280402D01*
X144138935Y-33355170D01*
X143936409Y-33464772D01*
X143754691Y-33606208D01*
X143686989Y-33679753D01*
X143598731Y-33775627D01*
X143539824Y-33865792D01*
X143532809Y-33876529D01*
X143479662Y-33921885D01*
X143410431Y-33931309D01*
X143347095Y-33901807D01*
X143325191Y-33876529D01*
X143259269Y-33775627D01*
X143103308Y-33606208D01*
X142921589Y-33464771D01*
X142719069Y-33355172D01*
X142719065Y-33355170D01*
X142719064Y-33355170D01*
X142501273Y-33280402D01*
X142349848Y-33255134D01*
X142274137Y-33242500D01*
X142043863Y-33242500D01*
X141987079Y-33251975D01*
X141816726Y-33280402D01*
X141598935Y-33355170D01*
X141396409Y-33464772D01*
X141214691Y-33606208D01*
X141146989Y-33679753D01*
X141058731Y-33775627D01*
X140999824Y-33865792D01*
X140992809Y-33876529D01*
X140939662Y-33921885D01*
X140870431Y-33931309D01*
X140807095Y-33901807D01*
X140785191Y-33876529D01*
X140719269Y-33775627D01*
X140563308Y-33606208D01*
X140381589Y-33464771D01*
X140179069Y-33355172D01*
X140179065Y-33355170D01*
X140179064Y-33355170D01*
X139961273Y-33280402D01*
X139809848Y-33255134D01*
X139734137Y-33242500D01*
X139503863Y-33242500D01*
X139447079Y-33251975D01*
X139276726Y-33280402D01*
X139058935Y-33355170D01*
X138856409Y-33464772D01*
X138674691Y-33606208D01*
X138606989Y-33679753D01*
X138518731Y-33775627D01*
X138459824Y-33865792D01*
X138452809Y-33876529D01*
X138399662Y-33921885D01*
X138330431Y-33931309D01*
X138267095Y-33901807D01*
X138245191Y-33876529D01*
X138179269Y-33775627D01*
X138023308Y-33606208D01*
X137841589Y-33464771D01*
X137639069Y-33355172D01*
X137639065Y-33355170D01*
X137639064Y-33355170D01*
X137421273Y-33280402D01*
X137269848Y-33255134D01*
X137194137Y-33242500D01*
X136963863Y-33242500D01*
X136907079Y-33251975D01*
X136736726Y-33280402D01*
X136518935Y-33355170D01*
X136316409Y-33464772D01*
X136134691Y-33606208D01*
X136066989Y-33679753D01*
X135978731Y-33775627D01*
X135919824Y-33865792D01*
X135912809Y-33876529D01*
X135859662Y-33921885D01*
X135790431Y-33931309D01*
X135727095Y-33901807D01*
X135705191Y-33876529D01*
X135639269Y-33775627D01*
X135483308Y-33606208D01*
X135301589Y-33464771D01*
X135099069Y-33355172D01*
X135099065Y-33355170D01*
X135099064Y-33355170D01*
X134881273Y-33280402D01*
X134729848Y-33255134D01*
X134654137Y-33242500D01*
X134423863Y-33242500D01*
X134367079Y-33251975D01*
X134196726Y-33280402D01*
X133978935Y-33355170D01*
X133776409Y-33464772D01*
X133594691Y-33606208D01*
X133526989Y-33679753D01*
X133438731Y-33775627D01*
X133379824Y-33865792D01*
X133372809Y-33876529D01*
X133319662Y-33921885D01*
X133250431Y-33931309D01*
X133187095Y-33901807D01*
X133165191Y-33876529D01*
X133099269Y-33775627D01*
X132943308Y-33606208D01*
X132761589Y-33464771D01*
X132559069Y-33355172D01*
X132559065Y-33355170D01*
X132559064Y-33355170D01*
X132341273Y-33280402D01*
X132189848Y-33255134D01*
X132114137Y-33242500D01*
X131883863Y-33242500D01*
X131827079Y-33251975D01*
X131656726Y-33280402D01*
X131438935Y-33355170D01*
X131236409Y-33464772D01*
X131054691Y-33606208D01*
X130986989Y-33679753D01*
X130898731Y-33775627D01*
X130839824Y-33865792D01*
X130832809Y-33876529D01*
X130779662Y-33921885D01*
X130710431Y-33931309D01*
X130647095Y-33901807D01*
X130625191Y-33876529D01*
X130559269Y-33775627D01*
X130403308Y-33606208D01*
X130221589Y-33464771D01*
X130019069Y-33355172D01*
X130019065Y-33355170D01*
X130019064Y-33355170D01*
X129801273Y-33280402D01*
X129649848Y-33255134D01*
X129574137Y-33242500D01*
X129343863Y-33242500D01*
X129287079Y-33251975D01*
X129116726Y-33280402D01*
X128898935Y-33355170D01*
X128696409Y-33464772D01*
X128514691Y-33606208D01*
X128446989Y-33679753D01*
X128358731Y-33775627D01*
X128347498Y-33792821D01*
X128232781Y-33968407D01*
X128152627Y-34151142D01*
X128140283Y-34179284D01*
X128095986Y-34354208D01*
X128083753Y-34402516D01*
X128064737Y-34632000D01*
X120200500Y-34632000D01*
X120200500Y-33063843D01*
X121415643Y-33063843D01*
X121446403Y-33317171D01*
X121517398Y-33562273D01*
X121626794Y-33792822D01*
X121677162Y-33865792D01*
X121771754Y-34002832D01*
X121948525Y-34186870D01*
X122152529Y-34340169D01*
X122274179Y-34404016D01*
X122378478Y-34458757D01*
X122378481Y-34458758D01*
X122620531Y-34539566D01*
X122746950Y-34560111D01*
X122872408Y-34580500D01*
X122872409Y-34580500D01*
X123061209Y-34580500D01*
X123063694Y-34580500D01*
X123254355Y-34565108D01*
X123502122Y-34504039D01*
X123736885Y-34404016D01*
X123952562Y-34267630D01*
X124143569Y-34098413D01*
X124304958Y-33900747D01*
X124432549Y-33679753D01*
X124523038Y-33441153D01*
X124574081Y-33191128D01*
X124581923Y-32996526D01*
X124584356Y-32936156D01*
X124581511Y-32912724D01*
X124553597Y-32682831D01*
X124482601Y-32437724D01*
X124373206Y-32207179D01*
X124228246Y-31997168D01*
X124051475Y-31813130D01*
X123847471Y-31659831D01*
X123725825Y-31595986D01*
X123621521Y-31541242D01*
X123379466Y-31460433D01*
X123127592Y-31419500D01*
X123127591Y-31419500D01*
X122936306Y-31419500D01*
X122933851Y-31419698D01*
X122933830Y-31419699D01*
X122745645Y-31434892D01*
X122497879Y-31495960D01*
X122263110Y-31595986D01*
X122047441Y-31732367D01*
X121856428Y-31901589D01*
X121695041Y-32099252D01*
X121567451Y-32320246D01*
X121476961Y-32558847D01*
X121425918Y-32808874D01*
X121415643Y-33063843D01*
X120200500Y-33063843D01*
X120200500Y-33003479D01*
X120200695Y-32996526D01*
X120204085Y-32936156D01*
X120217713Y-32693494D01*
X120219267Y-32679700D01*
X120269523Y-32383915D01*
X120272616Y-32370363D01*
X120287055Y-32320247D01*
X120355673Y-32082068D01*
X120360265Y-32068948D01*
X120465781Y-31814208D01*
X120475075Y-31791768D01*
X120481097Y-31779262D01*
X120626230Y-31516665D01*
X120633625Y-31504897D01*
X120807245Y-31260201D01*
X120815896Y-31249354D01*
X121015816Y-31025645D01*
X121025647Y-31015815D01*
X121249354Y-30815896D01*
X121260201Y-30807245D01*
X121504902Y-30633621D01*
X121516665Y-30626230D01*
X121779262Y-30481097D01*
X121791768Y-30475075D01*
X122068945Y-30360265D01*
X122082068Y-30355673D01*
X122370369Y-30272614D01*
X122383915Y-30269523D01*
X122679700Y-30219267D01*
X122693494Y-30217713D01*
X122996527Y-30200695D01*
X123003481Y-30200500D01*
X123039882Y-30200500D01*
X194960118Y-30200500D01*
X194996519Y-30200500D01*
X195003472Y-30200695D01*
G37*
G04 #@! TD.AperFunction*
G04 #@! TA.AperFunction,Conductor*
G36*
X187073155Y-72453201D02*
G01*
X187152131Y-72576090D01*
X187262530Y-72671752D01*
X187395408Y-72732435D01*
X187400399Y-72733152D01*
X186749038Y-73384512D01*
X186777685Y-73406808D01*
X186980137Y-73516369D01*
X187102039Y-73558219D01*
X187159054Y-73598605D01*
X187185185Y-73663404D01*
X187172133Y-73732044D01*
X187124045Y-73782732D01*
X187061776Y-73799500D01*
X185479765Y-73799500D01*
X185412726Y-73779815D01*
X185366971Y-73727011D01*
X185357027Y-73657853D01*
X185386052Y-73594297D01*
X185439502Y-73558219D01*
X185481172Y-73543912D01*
X185560069Y-73516828D01*
X185762589Y-73407229D01*
X185944308Y-73265792D01*
X186100269Y-73096373D01*
X186166491Y-72995011D01*
X186219635Y-72949657D01*
X186288866Y-72940233D01*
X186352202Y-72969734D01*
X186374106Y-72995013D01*
X186396759Y-73029686D01*
X187050477Y-72375968D01*
X187073155Y-72453201D01*
G37*
G04 #@! TD.AperFunction*
G04 #@! TA.AperFunction,Conductor*
G36*
X188683238Y-73029686D02*
G01*
X188705891Y-72995013D01*
X188759037Y-72949656D01*
X188828269Y-72940232D01*
X188891605Y-72969734D01*
X188913507Y-72995010D01*
X188979731Y-73096373D01*
X189135692Y-73265792D01*
X189317411Y-73407229D01*
X189519931Y-73516828D01*
X189543523Y-73524927D01*
X189640498Y-73558219D01*
X189697513Y-73598604D01*
X189723644Y-73663404D01*
X189710593Y-73732044D01*
X189662504Y-73782732D01*
X189600235Y-73799500D01*
X188018224Y-73799500D01*
X187951185Y-73779815D01*
X187905430Y-73727011D01*
X187895486Y-73657853D01*
X187924511Y-73594297D01*
X187977961Y-73558219D01*
X188099862Y-73516369D01*
X188302315Y-73406807D01*
X188330959Y-73384512D01*
X187679599Y-72733152D01*
X187684592Y-72732435D01*
X187817470Y-72671752D01*
X187927869Y-72576090D01*
X188006845Y-72453201D01*
X188029522Y-72375969D01*
X188683238Y-73029686D01*
G37*
G04 #@! TD.AperFunction*
M02*
