G04 #@! TF.GenerationSoftware,KiCad,Pcbnew,7.0.2*
G04 #@! TF.CreationDate,2023-06-01T00:45:36-07:00*
G04 #@! TF.ProjectId,Reflow Skillet Rev 1,5265666c-6f77-4205-936b-696c6c657420,rev?*
G04 #@! TF.SameCoordinates,Original*
G04 #@! TF.FileFunction,Soldermask,Bot*
G04 #@! TF.FilePolarity,Negative*
%FSLAX46Y46*%
G04 Gerber Fmt 4.6, Leading zero omitted, Abs format (unit mm)*
G04 Created by KiCad (PCBNEW 7.0.2) date 2023-06-01 00:45:36*
%MOMM*%
%LPD*%
G01*
G04 APERTURE LIST*
%ADD10C,1.879600*%
%ADD11R,1.700000X1.700000*%
%ADD12C,1.700000*%
%ADD13C,1.930400*%
%ADD14C,2.500000*%
%ADD15R,2.100000X2.100000*%
%ADD16C,2.100000*%
G04 APERTURE END LIST*
D10*
X190080000Y-57000000D03*
X187540000Y-57000000D03*
X185000000Y-57000000D03*
X182460000Y-57000000D03*
X179920000Y-57000000D03*
X177380000Y-57000000D03*
X174840000Y-57000000D03*
X172300000Y-57000000D03*
X169760000Y-57000000D03*
X167220000Y-57000000D03*
X164680000Y-57000000D03*
X162140000Y-57000000D03*
X190080000Y-72240000D03*
X187540000Y-72240000D03*
X185000000Y-72240000D03*
X182460000Y-72240000D03*
X179920000Y-72240000D03*
X177380000Y-72240000D03*
X174840000Y-72240000D03*
X172300000Y-72240000D03*
X169760000Y-72240000D03*
X167220000Y-72240000D03*
X164680000Y-72240000D03*
X162140000Y-72240000D03*
D11*
X147500000Y-70500000D03*
D12*
X141000000Y-70500000D03*
X147500000Y-66000000D03*
X141000000Y-66000000D03*
D13*
X147239000Y-34632000D03*
X144699000Y-34632000D03*
X142159000Y-34632000D03*
X139619000Y-34632000D03*
X137079000Y-34632000D03*
X134539000Y-34632000D03*
X131999000Y-34632000D03*
X129459000Y-34632000D03*
D14*
X152849000Y-64062000D03*
X123849000Y-64062000D03*
D15*
X194000000Y-53000000D03*
D16*
X194000000Y-50460000D03*
D14*
X123000000Y-33000000D03*
X123000000Y-71000000D03*
X195000000Y-33000000D03*
X186509000Y-33475000D03*
X186509000Y-52525000D03*
D10*
X169872000Y-53160000D03*
X169872000Y-50620000D03*
X169872000Y-48080000D03*
X169872000Y-45540000D03*
X169872000Y-43000000D03*
X169872000Y-40460000D03*
X169872000Y-37920000D03*
X169872000Y-35380000D03*
X169872000Y-32840000D03*
D11*
X136000000Y-70500000D03*
D12*
X129500000Y-70500000D03*
X136000000Y-66000000D03*
X129500000Y-66000000D03*
D14*
X195000000Y-71000000D03*
M02*
