M48
; DRILL file {KiCad 7.0.2} date Thu Jun  1 00:45:56 2023
; FORMAT={-:-/ absolute / metric / decimal}
; #@! TF.CreationDate,2023-06-01T00:45:56-07:00
; #@! TF.GenerationSoftware,Kicad,Pcbnew,7.0.2
; #@! TF.FileFunction,Plated,1,2,PTH
FMAT,2
METRIC
; #@! TA.AperFunction,Plated,PTH,ViaDrill
T1C0.400
; #@! TA.AperFunction,Plated,PTH,ComponentDrill
T2C1.000
; #@! TA.AperFunction,Plated,PTH,ComponentDrill
T3C1.016
; #@! TA.AperFunction,Plated,PTH,ComponentDrill
T4C1.100
%
G90
G05
T1
X133.0Y-39.0
X135.75Y-38.5
X136.0Y-41.0
X138.0Y-60.0
X138.5Y-38.5
X141.0Y-41.0
X144.5Y-42.0
X145.503Y-51.497
X146.0Y-50.5
X147.0Y-50.0
X147.761Y-53.739
X148.75Y-53.25
X149.5Y-52.5
X149.5Y-59.5
X155.0Y-47.5
X157.5Y-45.5
X160.0Y-35.0
X161.0Y-45.5
X163.5Y-54.75
X164.0Y-39.0
X166.0Y-51.0
X166.0Y-53.0
X166.0Y-54.75
X167.0Y-63.5
X168.0Y-51.0
X168.0Y-53.0
X174.75Y-41.75
X174.75Y-44.25
X176.5Y-52.0
X177.0Y-44.5
X177.0Y-46.5
X177.0Y-48.5
X179.5Y-46.0
X181.5Y-64.0
T2
X129.459Y-34.632
X129.5Y-66.0
X129.5Y-70.5
X131.999Y-34.632
X134.539Y-34.632
X136.0Y-66.0
X136.0Y-70.5
X137.079Y-34.632
X139.619Y-34.632
X141.0Y-66.0
X141.0Y-70.5
X142.159Y-34.632
X144.699Y-34.632
X147.239Y-34.632
X147.5Y-66.0
X147.5Y-70.5
X169.872Y-32.84
X169.872Y-35.38
X169.872Y-37.92
X169.872Y-40.46
X169.872Y-43.0
X169.872Y-45.54
X169.872Y-48.08
X169.872Y-50.62
X169.872Y-53.16
T3
X162.14Y-57.0
X162.14Y-72.24
X164.68Y-57.0
X164.68Y-72.24
X167.22Y-57.0
X167.22Y-72.24
X169.76Y-57.0
X169.76Y-72.24
X172.3Y-57.0
X172.3Y-72.24
X174.84Y-57.0
X174.84Y-72.24
X177.38Y-57.0
X177.38Y-72.24
X179.92Y-57.0
X179.92Y-72.24
X182.46Y-57.0
X182.46Y-72.24
X185.0Y-57.0
X185.0Y-72.24
X187.54Y-57.0
X187.54Y-72.24
X190.08Y-57.0
X190.08Y-72.24
T4
X194.0Y-50.46
X194.0Y-53.0
T0
M30
